<?xml version="1.0" encoding="UTF-8" standalone="no"?>
<!DOCTYPE svg PUBLIC "-//W3C//DTD SVG 1.1//EN"
 "http://www.w3.org/Graphics/SVG/1.1/DTD/svg11.dtd">
<!-- Generated by graphviz version 2.42.4 (0)
 -->
<!-- Title: G Pages: 1 -->
<svg width="783pt" height="753pt"
 viewBox="0.00 0.00 783.40 753.35" xmlns="http://www.w3.org/2000/svg" xmlns:xlink="http://www.w3.org/1999/xlink">
<g id="graph0" class="graph" transform="scale(1 1) rotate(0) translate(25.2 728.15)">
<title>G</title>
<polygon fill="white" stroke="transparent" points="-25.2,25.2 -25.2,-728.15 758.2,-728.15 758.2,25.2 -25.2,25.2"/>
<text text-anchor="middle" x="366.5" y="-682.95" font-family="Noto Sans CJK SC" font-size="20.00">文章历史情境阅读页：固定槽位框架</text>
<!-- header -->
<g id="node1" class="node">
<title>header</title>
<path fill="#e2e8f0" stroke="#64748b" d="M721,-672.95C721,-672.95 126,-672.95 126,-672.95 120,-672.95 114,-666.95 114,-660.95 114,-660.95 114,-644.95 114,-644.95 114,-638.95 120,-632.95 126,-632.95 126,-632.95 721,-632.95 721,-632.95 727,-632.95 733,-638.95 733,-644.95 733,-644.95 733,-660.95 733,-660.95 733,-666.95 727,-672.95 721,-672.95"/>
<text text-anchor="middle" x="423.5" y="-656.35" font-family="Noto Sans CJK SC" font-size="12.00">文章定位条</text>
<text text-anchor="middle" x="423.5" y="-643.35" font-family="Noto Sans CJK SC" font-size="12.00">标题｜时间｜地点｜文体/对象｜核心问题｜阅读模式</text>
</g>
<!-- text -->
<g id="node2" class="node">
<title>text</title>
<path fill="#fffbeb" stroke="#b45309" d="M434,-611.95C434,-611.95 105,-611.95 105,-611.95 99,-611.95 93,-605.95 93,-599.95 93,-599.95 93,-407.95 93,-407.95 93,-401.95 99,-395.95 105,-395.95 105,-395.95 434,-395.95 434,-395.95 440,-395.95 446,-401.95 446,-407.95 446,-407.95 446,-599.95 446,-599.95 446,-605.95 440,-611.95 434,-611.95"/>
<text text-anchor="middle" x="269.5" y="-547.35" font-family="Noto Sans CJK SC" font-size="12.00">原文阅读区</text>
<text text-anchor="middle" x="269.5" y="-520.35" font-family="Noto Sans CJK SC" font-size="12.00">选定版本正文</text>
<text text-anchor="middle" x="269.5" y="-507.35" font-family="Noto Sans CJK SC" font-size="12.00">当前锚点高亮</text>
<text text-anchor="middle" x="269.5" y="-494.35" font-family="Noto Sans CJK SC" font-size="12.00">人物 / 地点 / 事件 / 概念可点击</text>
<text text-anchor="middle" x="269.5" y="-481.35" font-family="Noto Sans CJK SC" font-size="12.00">文本可选择</text>
<text text-anchor="middle" x="269.5" y="-454.35" font-family="Noto Sans CJK SC" font-size="12.00">原文始终是中心</text>
</g>
<!-- header&#45;&gt;text -->
<!-- bg -->
<g id="node3" class="node">
<title>bg</title>
<path fill="#eff6ff" stroke="#2563eb" d="M682.5,-530.45C682.5,-530.45 476.5,-530.45 476.5,-530.45 470.5,-530.45 464.5,-524.45 464.5,-518.45 464.5,-518.45 464.5,-489.45 464.5,-489.45 464.5,-483.45 470.5,-477.45 476.5,-477.45 476.5,-477.45 682.5,-477.45 682.5,-477.45 688.5,-477.45 694.5,-483.45 694.5,-489.45 694.5,-489.45 694.5,-518.45 694.5,-518.45 694.5,-524.45 688.5,-530.45 682.5,-530.45"/>
<text text-anchor="middle" x="579.5" y="-513.85" font-family="Noto Sans CJK SC" font-size="12.00">历史背景</text>
<text text-anchor="middle" x="579.5" y="-500.85" font-family="Noto Sans CJK SC" font-size="12.00">此前如何走到这里</text>
<text text-anchor="middle" x="579.5" y="-487.85" font-family="Noto Sans CJK SC" font-size="12.00">1–3 个最相关前置节点</text>
</g>
<!-- header&#45;&gt;bg -->
<!-- scene -->
<g id="node6" class="node">
<title>scene</title>
<path fill="#f8fafc" stroke="#64748b" d="M607,-114C607,-114 12,-114 12,-114 6,-114 0,-108 0,-102 0,-102 0,-73 0,-73 0,-67 6,-61 12,-61 12,-61 607,-61 607,-61 613,-61 619,-67 619,-73 619,-73 619,-102 619,-102 619,-108 613,-114 607,-114"/>
<text text-anchor="middle" x="309.5" y="-97.4" font-family="Noto Sans CJK SC" font-size="12.00">条件式动态场景</text>
<text text-anchor="middle" x="309.5" y="-84.4" font-family="Noto Sans CJK SC" font-size="12.00">时间线 / 决策路径 / 地图 / 关系图 / none</text>
<text text-anchor="middle" x="309.5" y="-71.4" font-family="Noto Sans CJK SC" font-size="12.00">只有明显提高理解时出现</text>
</g>
<!-- text&#45;&gt;scene -->
<!-- ai -->
<g id="node8" class="node">
<title>ai</title>
<ellipse fill="#fee2e2" stroke="#dc2626" cx="417.5" cy="-327.48" rx="119.5" ry="37.45"/>
<text text-anchor="middle" x="417.5" y="-337.38" font-family="Noto Sans CJK SC" font-size="12.00">AI 编排器</text>
<text text-anchor="middle" x="417.5" y="-324.38" font-family="Noto Sans CJK SC" font-size="12.00">根据用户动作决定最小更新</text>
<text text-anchor="middle" x="417.5" y="-311.38" font-family="Noto Sans CJK SC" font-size="12.00">将语义块流式填入固定槽位</text>
</g>
<!-- text&#45;&gt;ai -->
<g id="edge12" class="edge">
<title>text&#45;&gt;ai</title>
<path fill="none" stroke="#b45309" d="M357.65,-395.8C363.66,-388.72 369.65,-381.72 375.5,-374.95 377.2,-372.99 378.95,-370.98 380.73,-368.96"/>
<polygon fill="#b45309" stroke="#b45309" points="382.66,-370.47 385.46,-363.61 378.99,-367.23 382.66,-370.47"/>
<text text-anchor="middle" x="427" y="-377.95" font-family="Noto Sans CJK SC" font-size="10.00">滚动 / 点击 / 选中 / 提问</text>
</g>
<!-- sit -->
<g id="node4" class="node">
<title>sit</title>
<path fill="#f0fdf4" stroke="#16a34a" d="M682.5,-259C682.5,-259 476.5,-259 476.5,-259 470.5,-259 464.5,-253 464.5,-247 464.5,-247 464.5,-218 464.5,-218 464.5,-212 470.5,-206 476.5,-206 476.5,-206 682.5,-206 682.5,-206 688.5,-206 694.5,-212 694.5,-218 694.5,-218 694.5,-247 694.5,-247 694.5,-253 688.5,-259 682.5,-259"/>
<text text-anchor="middle" x="579.5" y="-242.4" font-family="Noto Sans CJK SC" font-size="12.00">当时处境</text>
<text text-anchor="middle" x="579.5" y="-229.4" font-family="Noto Sans CJK SC" font-size="12.00">写作时点难在哪里</text>
<text text-anchor="middle" x="579.5" y="-216.4" font-family="Noto Sans CJK SC" font-size="12.00">力量｜约束｜争论｜选项｜未知</text>
</g>
<!-- bg&#45;&gt;sit -->
<!-- th -->
<g id="node5" class="node">
<title>th</title>
<path fill="#faf5ff" stroke="#9333ea" d="M555.5,-175C555.5,-175 349.5,-175 349.5,-175 343.5,-175 337.5,-169 337.5,-163 337.5,-163 337.5,-147 337.5,-147 337.5,-141 343.5,-135 349.5,-135 349.5,-135 555.5,-135 555.5,-135 561.5,-135 567.5,-141 567.5,-147 567.5,-147 567.5,-163 567.5,-163 567.5,-169 561.5,-175 555.5,-175"/>
<text text-anchor="middle" x="452.5" y="-158.4" font-family="Noto Sans CJK SC" font-size="12.00">思想与推理</text>
<text text-anchor="middle" x="452.5" y="-145.4" font-family="Noto Sans CJK SC" font-size="12.00">问题 → 依据 → 判断 → 方法</text>
</g>
<!-- sit&#45;&gt;th -->
<!-- th&#45;&gt;scene -->
<!-- tray -->
<g id="node7" class="node">
<title>tray</title>
<path fill="#e2e8f0" stroke="#64748b" d="M607,-40C607,-40 12,-40 12,-40 6,-40 0,-34 0,-28 0,-28 0,-12 0,-12 0,-6 6,0 12,0 12,0 607,0 607,0 613,0 619,-6 619,-12 619,-12 619,-28 619,-28 619,-34 613,-40 607,-40"/>
<text text-anchor="middle" x="309.5" y="-23.4" font-family="Noto Sans CJK SC" font-size="12.00">轻交互条</text>
<text text-anchor="middle" x="309.5" y="-10.4" font-family="Noto Sans CJK SC" font-size="12.00">模式切换｜围绕本段提问｜轻量来源｜反馈</text>
</g>
<!-- scene&#45;&gt;tray -->
<!-- ai&#45;&gt;bg -->
<g id="edge8" class="edge">
<title>ai&#45;&gt;bg</title>
<path fill="none" stroke="#dc2626" d="M464.16,-362.06C469.16,-366.22 474.04,-370.57 478.5,-374.95 509.09,-405.03 538.85,-444.35 558.05,-471.43"/>
<polygon fill="#dc2626" stroke="#dc2626" points="556.19,-473.04 562.22,-477.36 560.2,-470.22 556.19,-473.04"/>
<text text-anchor="middle" x="508.5" y="-377.95" font-family="Noto Sans CJK SC" font-size="10.00">按需更新</text>
</g>
<!-- ai&#45;&gt;sit -->
<g id="edge9" class="edge">
<title>ai&#45;&gt;sit</title>
<path fill="none" stroke="#dc2626" d="M473.71,-294.22C491.53,-283.99 511.13,-272.74 528.56,-262.74"/>
<polygon fill="#dc2626" stroke="#dc2626" points="530.03,-264.72 534.88,-259.11 527.59,-260.47 530.03,-264.72"/>
<text text-anchor="middle" x="533.5" y="-272" font-family="Noto Sans CJK SC" font-size="10.00">按需更新</text>
</g>
<!-- ai&#45;&gt;th -->
<g id="edge10" class="edge">
<title>ai&#45;&gt;th</title>
<path fill="none" stroke="#dc2626" d="M410.75,-289.96C407.72,-265.57 406.56,-233.12 415.5,-206 418.46,-197.01 423.74,-188.31 429.39,-180.77"/>
<polygon fill="#dc2626" stroke="#dc2626" points="431.34,-182.24 433.75,-175.23 427.5,-179.21 431.34,-182.24"/>
<text text-anchor="middle" x="435.5" y="-230" font-family="Noto Sans CJK SC" font-size="10.00">按需更新</text>
</g>
<!-- ai&#45;&gt;scene -->
<g id="edge11" class="edge">
<title>ai&#45;&gt;scene</title>
<path fill="none" stroke="#dc2626" d="M390.29,-290.7C369.51,-261.3 342.2,-217.69 328.5,-175 322.92,-157.61 318.42,-137.73 315.21,-121.42"/>
<polygon fill="#dc2626" stroke="#dc2626" points="317.55,-120.61 313.83,-114.19 312.74,-121.53 317.55,-120.61"/>
<text text-anchor="middle" x="376" y="-188" font-family="Noto Sans CJK SC" font-size="10.00">选择类型 + 填数据</text>
</g>
</g>
</svg>
