<?xml version="1.0" encoding="UTF-8" standalone="no"?>
<!DOCTYPE svg PUBLIC "-//W3C//DTD SVG 1.1//EN"
 "http://www.w3.org/Graphics/SVG/1.1/DTD/svg11.dtd">
<!-- Generated by graphviz version 2.42.4 (0)
 -->
<!-- Title: G Pages: 1 -->
<svg width="1363pt" height="477pt"
 viewBox="0.00 0.00 1363.20 477.20" xmlns="http://www.w3.org/2000/svg" xmlns:xlink="http://www.w3.org/1999/xlink">
<g id="graph0" class="graph" transform="scale(1 1) rotate(0) translate(21.6 455.6)">
<title>G</title>
<polygon fill="white" stroke="transparent" points="-21.6,21.6 -21.6,-455.6 1341.6,-455.6 1341.6,21.6 -21.6,21.6"/>
<text text-anchor="middle" x="660" y="-414" font-family="Noto Sans CJK SC" font-size="20.00">产品主流程</text>
<!-- entry -->
<g id="node1" class="node">
<title>entry</title>
<path fill="#e2e8f0" stroke="#64748b" d="M121,-346C121,-346 12,-346 12,-346 6,-346 0,-340 0,-334 0,-334 0,-322 0,-322 0,-316 6,-310 12,-310 12,-310 121,-310 121,-310 127,-310 133,-316 133,-322 133,-322 133,-334 133,-334 133,-340 127,-346 121,-346"/>
<text text-anchor="middle" x="66.5" y="-325.2" font-family="Noto Sans CJK SC" font-size="11.00">专题 / 搜索 / 文章列表</text>
</g>
<!-- article -->
<g id="node2" class="node">
<title>article</title>
<path fill="#fffbeb" stroke="#b45309" d="M273,-347C273,-347 182,-347 182,-347 176,-347 170,-341 170,-335 170,-335 170,-321 170,-321 170,-315 176,-309 182,-309 182,-309 273,-309 273,-309 279,-309 285,-315 285,-321 285,-321 285,-335 285,-335 285,-341 279,-347 273,-347"/>
<text text-anchor="middle" x="227.5" y="-331.2" font-family="Noto Sans CJK SC" font-size="11.00">进入文章</text>
<text text-anchor="middle" x="227.5" y="-319.2" font-family="Noto Sans CJK SC" font-size="11.00">加载正文与元数据</text>
</g>
<!-- entry&#45;&gt;article -->
<g id="edge1" class="edge">
<title>entry&#45;&gt;article</title>
<path fill="none" stroke="#64748b" d="M133.09,-328C142.93,-328 153.07,-328 162.87,-328"/>
<polygon fill="#64748b" stroke="#64748b" points="162.94,-330.45 169.94,-328 162.94,-325.55 162.94,-330.45"/>
</g>
<!-- anchor -->
<g id="node3" class="node">
<title>anchor</title>
<path fill="#f8fafc" stroke="#64748b" d="M402,-346C402,-346 334,-346 334,-346 328,-346 322,-340 322,-334 322,-334 322,-322 322,-322 322,-316 328,-310 334,-310 334,-310 402,-310 402,-310 408,-310 414,-316 414,-322 414,-322 414,-334 414,-334 414,-340 408,-346 402,-346"/>
<text text-anchor="middle" x="368" y="-325.2" font-family="Noto Sans CJK SC" font-size="11.00">识别当前锚点</text>
</g>
<!-- article&#45;&gt;anchor -->
<g id="edge2" class="edge">
<title>article&#45;&gt;anchor</title>
<path fill="none" stroke="#64748b" d="M285.23,-328C294.88,-328 304.86,-328 314.39,-328"/>
<polygon fill="#64748b" stroke="#64748b" points="314.58,-330.45 321.58,-328 314.58,-325.55 314.58,-330.45"/>
</g>
<!-- snap -->
<g id="node4" class="node">
<title>snap</title>
<path fill="#dbeafe" stroke="#2563eb" d="M542,-347C542,-347 463,-347 463,-347 457,-347 451,-341 451,-335 451,-335 451,-321 451,-321 451,-315 457,-309 463,-309 463,-309 542,-309 542,-309 548,-309 554,-315 554,-321 554,-321 554,-335 554,-335 554,-341 548,-347 542,-347"/>
<text text-anchor="middle" x="502.5" y="-331.2" font-family="Noto Sans CJK SC" font-size="11.00">加载已流式运行记录</text>
<text text-anchor="middle" x="502.5" y="-319.2" font-family="Noto Sans CJK SC" font-size="11.00">三槽位 + 场景</text>
</g>
<!-- anchor&#45;&gt;snap -->
<g id="edge3" class="edge">
<title>anchor&#45;&gt;snap</title>
<path fill="none" stroke="#64748b" d="M414.23,-328C423.64,-328 433.68,-328 443.48,-328"/>
<polygon fill="#64748b" stroke="#64748b" points="443.56,-330.45 450.56,-328 443.56,-325.55 443.56,-330.45"/>
</g>
<!-- read -->
<g id="node5" class="node">
<title>read</title>
<path fill="#fffbeb" stroke="#b45309" d="M671,-260C671,-260 603,-260 603,-260 597,-260 591,-254 591,-248 591,-248 591,-236 591,-236 591,-230 597,-224 603,-224 603,-224 671,-224 671,-224 677,-224 683,-230 683,-236 683,-236 683,-248 683,-248 683,-254 677,-260 671,-260"/>
<text text-anchor="middle" x="637" y="-239.2" font-family="Noto Sans CJK SC" font-size="11.00">继续阅读原文</text>
</g>
<!-- snap&#45;&gt;read -->
<g id="edge4" class="edge">
<title>snap&#45;&gt;read</title>
<path fill="none" stroke="#64748b" d="M532.91,-308.91C553.31,-295.67 580.54,-277.99 601.9,-264.13"/>
<polygon fill="#64748b" stroke="#64748b" points="603.5,-266.02 608.04,-260.15 600.83,-261.91 603.5,-266.02"/>
</g>
<!-- scroll -->
<g id="node6" class="node">
<title>scroll</title>
<path fill="#f8fafc" stroke="#64748b" d="M854,-404C854,-404 786,-404 786,-404 780,-404 774,-398 774,-392 774,-392 774,-378 774,-378 774,-372 780,-366 786,-366 786,-366 854,-366 854,-366 860,-366 866,-372 866,-378 866,-378 866,-392 866,-392 866,-398 860,-404 854,-404"/>
<text text-anchor="middle" x="820" y="-388.2" font-family="Noto Sans CJK SC" font-size="11.00">滚动到新锚点</text>
<text text-anchor="middle" x="820" y="-376.2" font-family="Noto Sans CJK SC" font-size="11.00">快路径</text>
</g>
<!-- read&#45;&gt;scroll -->
<g id="edge5" class="edge">
<title>read&#45;&gt;scroll</title>
<path fill="none" stroke="#64748b" d="M645.34,-260.03C655.06,-281.8 674.15,-318.2 701,-340 720.05,-355.47 745,-366.01 767.05,-372.98"/>
<polygon fill="#64748b" stroke="#64748b" points="766.37,-375.34 773.78,-375.03 767.8,-370.65 766.37,-375.34"/>
</g>
<!-- click -->
<g id="node7" class="node">
<title>click</title>
<path fill="#f8fafc" stroke="#64748b" d="M856.5,-225C856.5,-225 783.5,-225 783.5,-225 777.5,-225 771.5,-219 771.5,-213 771.5,-213 771.5,-199 771.5,-199 771.5,-193 777.5,-187 783.5,-187 783.5,-187 856.5,-187 856.5,-187 862.5,-187 868.5,-193 868.5,-199 868.5,-199 868.5,-213 868.5,-213 868.5,-219 862.5,-225 856.5,-225"/>
<text text-anchor="middle" x="820" y="-209.2" font-family="Noto Sans CJK SC" font-size="11.00">点击段落/实体</text>
<text text-anchor="middle" x="820" y="-197.2" font-family="Noto Sans CJK SC" font-size="11.00">慢路径</text>
</g>
<!-- read&#45;&gt;click -->
<g id="edge6" class="edge">
<title>read&#45;&gt;click</title>
<path fill="none" stroke="#64748b" d="M683.21,-233.01C707.71,-228.14 738.18,-222.07 764.04,-216.93"/>
<polygon fill="#64748b" stroke="#64748b" points="764.82,-219.27 771.21,-215.51 763.86,-214.47 764.82,-219.27"/>
</g>
<!-- select -->
<g id="node8" class="node">
<title>select</title>
<path fill="#f8fafc" stroke="#64748b" d="M843,-162C843,-162 797,-162 797,-162 791,-162 785,-156 785,-150 785,-150 785,-136 785,-136 785,-130 791,-124 797,-124 797,-124 843,-124 843,-124 849,-124 855,-130 855,-136 855,-136 855,-150 855,-150 855,-156 849,-162 843,-162"/>
<text text-anchor="middle" x="820" y="-146.2" font-family="Noto Sans CJK SC" font-size="11.00">选择文字</text>
<text text-anchor="middle" x="820" y="-134.2" font-family="Noto Sans CJK SC" font-size="11.00">慢路径</text>
</g>
<!-- read&#45;&gt;select -->
<g id="edge7" class="edge">
<title>read&#45;&gt;select</title>
<path fill="none" stroke="#64748b" d="M656.08,-223.84C671.79,-208.93 695.78,-188.19 720,-175 737.92,-165.23 759.31,-157.86 777.62,-152.66"/>
<polygon fill="#64748b" stroke="#64748b" points="778.63,-154.92 784.73,-150.7 777.33,-150.2 778.63,-154.92"/>
</g>
<!-- mode -->
<g id="node9" class="node">
<title>mode</title>
<path fill="#f8fafc" stroke="#64748b" d="M843,-99C843,-99 797,-99 797,-99 791,-99 785,-93 785,-87 785,-87 785,-73 785,-73 785,-67 791,-61 797,-61 797,-61 843,-61 843,-61 849,-61 855,-67 855,-73 855,-73 855,-87 855,-87 855,-93 849,-99 843,-99"/>
<text text-anchor="middle" x="820" y="-83.2" font-family="Noto Sans CJK SC" font-size="11.00">切换模式</text>
<text text-anchor="middle" x="820" y="-71.2" font-family="Noto Sans CJK SC" font-size="11.00">时间政策</text>
</g>
<!-- read&#45;&gt;mode -->
<g id="edge8" class="edge">
<title>read&#45;&gt;mode</title>
<path fill="none" stroke="#64748b" d="M644.79,-223.62C656.1,-195.51 681.43,-141.95 720,-112 736.64,-99.07 758.68,-91.28 777.74,-86.63"/>
<polygon fill="#64748b" stroke="#64748b" points="778.33,-89.01 784.61,-85.06 777.24,-84.23 778.33,-89.01"/>
</g>
<!-- ask -->
<g id="node10" class="node">
<title>ask</title>
<path fill="#f8fafc" stroke="#64748b" d="M854,-288C854,-288 786,-288 786,-288 780,-288 774,-282 774,-276 774,-276 774,-262 774,-262 774,-256 780,-250 786,-250 786,-250 854,-250 854,-250 860,-250 866,-256 866,-262 866,-262 866,-276 866,-276 866,-282 860,-288 854,-288"/>
<text text-anchor="middle" x="820" y="-272.2" font-family="Noto Sans CJK SC" font-size="11.00">围绕本段提问</text>
<text text-anchor="middle" x="820" y="-260.2" font-family="Noto Sans CJK SC" font-size="11.00">局部问答</text>
</g>
<!-- read&#45;&gt;ask -->
<g id="edge9" class="edge">
<title>read&#45;&gt;ask</title>
<path fill="none" stroke="#64748b" d="M683.21,-248.74C708.58,-252.53 740.36,-257.27 766.79,-261.21"/>
<polygon fill="#64748b" stroke="#64748b" points="766.46,-263.64 773.74,-262.25 767.18,-258.79 766.46,-263.64"/>
</g>
<!-- feedback -->
<g id="node13" class="node">
<title>feedback</title>
<path fill="#e2e8f0" stroke="#64748b" d="M908,-36C908,-36 732,-36 732,-36 726,-36 720,-30 720,-24 720,-24 720,-12 720,-12 720,-6 726,0 732,0 732,0 908,0 908,0 914,0 920,-6 920,-12 920,-12 920,-24 920,-24 920,-30 914,-36 908,-36"/>
<text text-anchor="middle" x="820" y="-15.2" font-family="Noto Sans CJK SC" font-size="11.00">反馈 / 继续下一锚点 / 返回文章列表</text>
</g>
<!-- read&#45;&gt;feedback -->
<g id="edge17" class="edge">
<title>read&#45;&gt;feedback</title>
<path fill="none" stroke="#64748b" d="M640.48,-223.8C646.66,-185.54 666.31,-96.3 720,-48 723.42,-44.93 727.14,-42.17 731.08,-39.69"/>
<polygon fill="#64748b" stroke="#64748b" points="732.58,-41.65 737.42,-36.03 730.13,-37.41 732.58,-41.65"/>
</g>
<!-- scroll&#45;&gt;snap -->
<g id="edge10" class="edge">
<title>scroll&#45;&gt;snap</title>
<path fill="none" stroke="#64748b" d="M773.56,-376.79C717.52,-366.67 622.21,-349.45 561.1,-338.41"/>
<polygon fill="#64748b" stroke="#64748b" points="561.51,-335.99 554.19,-337.16 560.64,-340.81 561.51,-335.99"/>
<text text-anchor="middle" x="637" y="-362.8" font-family="Noto Sans CJK SC" font-size="9.00">缓存运行记录</text>
</g>
<!-- ai -->
<g id="node11" class="node">
<title>ai</title>
<path fill="#fee2e2" stroke="#dc2626" d="M1168,-225C1168,-225 969,-225 969,-225 963,-225 957,-219 957,-213 957,-213 957,-199 957,-199 957,-193 963,-187 969,-187 969,-187 1168,-187 1168,-187 1174,-187 1180,-193 1180,-199 1180,-199 1180,-213 1180,-213 1180,-219 1174,-225 1168,-225"/>
<text text-anchor="middle" x="1068.5" y="-209.2" font-family="Noto Sans CJK SC" font-size="11.00">Prompt + Workflow</text>
<text text-anchor="middle" x="1068.5" y="-197.2" font-family="Noto Sans CJK SC" font-size="11.00">规划 → 检索 → 生成 → 校验 → 流式提交</text>
</g>
<!-- click&#45;&gt;ai -->
<g id="edge11" class="edge">
<title>click&#45;&gt;ai</title>
<path fill="none" stroke="#64748b" d="M868.53,-206C891.74,-206 920.81,-206 949.5,-206"/>
<polygon fill="#64748b" stroke="#64748b" points="949.78,-208.45 956.78,-206 949.78,-203.55 949.78,-208.45"/>
</g>
<!-- select&#45;&gt;ai -->
<g id="edge12" class="edge">
<title>select&#45;&gt;ai</title>
<path fill="none" stroke="#64748b" d="M855.02,-151.69C888.75,-160.31 941.69,-173.85 986.3,-185.25"/>
<polygon fill="#64748b" stroke="#64748b" points="985.71,-187.62 993.1,-186.98 986.92,-182.88 985.71,-187.62"/>
</g>
<!-- mode&#45;&gt;ai -->
<g id="edge13" class="edge">
<title>mode&#45;&gt;ai</title>
<path fill="none" stroke="#64748b" d="M855.27,-88.74C874.72,-94.28 899.25,-102.23 920,-112 962.32,-131.92 1007.12,-161.91 1036.09,-182.63"/>
<polygon fill="#64748b" stroke="#64748b" points="1034.91,-184.8 1042.02,-186.9 1037.77,-180.82 1034.91,-184.8"/>
</g>
<!-- ask&#45;&gt;ai -->
<g id="edge14" class="edge">
<title>ask&#45;&gt;ai</title>
<path fill="none" stroke="#64748b" d="M866.21,-257.44C899.72,-248.88 946.29,-236.98 986.2,-226.78"/>
<polygon fill="#64748b" stroke="#64748b" points="986.88,-229.13 993.06,-225.03 985.67,-224.39 986.88,-229.13"/>
</g>
<!-- ui -->
<g id="node12" class="node">
<title>ui</title>
<path fill="#dcfce7" stroke="#16a34a" d="M1308,-285C1308,-285 1229,-285 1229,-285 1223,-285 1217,-279 1217,-273 1217,-273 1217,-259 1217,-259 1217,-253 1223,-247 1229,-247 1229,-247 1308,-247 1308,-247 1314,-247 1320,-253 1320,-259 1320,-259 1320,-273 1320,-273 1320,-279 1314,-285 1308,-285"/>
<text text-anchor="middle" x="1268.5" y="-269.2" font-family="Noto Sans CJK SC" font-size="11.00">只更新必要槽位</text>
<text text-anchor="middle" x="1268.5" y="-257.2" font-family="Noto Sans CJK SC" font-size="11.00">按需呈现场景</text>
</g>
<!-- ai&#45;&gt;ui -->
<g id="edge15" class="edge">
<title>ai&#45;&gt;ui</title>
<path fill="none" stroke="#64748b" d="M1132.42,-225.07C1157.37,-232.63 1185.85,-241.26 1210.21,-248.64"/>
<polygon fill="#64748b" stroke="#64748b" points="1209.56,-251 1216.97,-250.69 1210.98,-246.31 1209.56,-251"/>
</g>
<!-- ui&#45;&gt;read -->
<g id="edge16" class="edge">
<title>ui&#45;&gt;read</title>
<path fill="none" stroke="#64748b" d="M1216.9,-281.35C1118.45,-308.61 895.41,-357.55 720,-301 697.85,-293.86 676.63,-278.27 661.33,-264.91"/>
<polygon fill="#64748b" stroke="#64748b" points="662.81,-262.95 655.97,-260.1 659.54,-266.6 662.81,-262.95"/>
</g>
</g>
</svg>
