<?xml version="1.0" encoding="UTF-8" standalone="no"?>
<!DOCTYPE svg PUBLIC "-//W3C//DTD SVG 1.1//EN"
 "http://www.w3.org/Graphics/SVG/1.1/DTD/svg11.dtd">
<!-- Generated by graphviz version 2.42.4 (0)
 -->
<!-- Title: G Pages: 1 -->
<svg width="978pt" height="429pt"
 viewBox="0.00 0.00 978.17 429.10" xmlns="http://www.w3.org/2000/svg" xmlns:xlink="http://www.w3.org/1999/xlink">
<g id="graph0" class="graph" transform="scale(1 1) rotate(0) translate(25.2 403.9)">
<title>G</title>
<polygon fill="white" stroke="transparent" points="-25.2,25.2 -25.2,-403.9 952.97,-403.9 952.97,25.2 -25.2,25.2"/>
<text text-anchor="middle" x="463.89" y="-358.7" font-family="Noto Sans CJK SC" font-size="20.00">C4 System Context</text>
<!-- reader -->
<g id="node1" class="node">
<title>reader</title>
<ellipse fill="#fffbeb" stroke="#b45309" cx="137.89" cy="-319" rx="106.13" ry="29.9"/>
<text text-anchor="middle" x="137.89" y="-322.2" font-family="Noto Sans CJK SC" font-size="11.00">阅读用户</text>
<text text-anchor="middle" x="137.89" y="-310.2" font-family="Noto Sans CJK SC" font-size="11.00">阅读、深挖、提问、反馈</text>
</g>
<!-- system -->
<g id="node4" class="node">
<title>system</title>
<path fill="#dbeafe" stroke="#2563eb" stroke-width="2" d="M654.77,-249C654.77,-249 404.77,-249 404.77,-249 398.77,-249 392.77,-243 392.77,-237 392.77,-237 392.77,-95 392.77,-95 392.77,-89 398.77,-83 404.77,-83 404.77,-83 654.77,-83 654.77,-83 660.77,-83 666.77,-89 666.77,-95 666.77,-95 666.77,-237 666.77,-237 666.77,-243 660.77,-249 654.77,-249"/>
<text text-anchor="middle" x="529.77" y="-199.7" font-family="Noto Sans CJK SC" font-size="11.00">毛泽东著作历史情境化阅读引擎</text>
<text text-anchor="middle" x="529.77" y="-174.7" font-family="Noto Sans CJK SC" font-size="11.00">选定版本正文</text>
<text text-anchor="middle" x="529.77" y="-162.7" font-family="Noto Sans CJK SC" font-size="11.00">历史情境加工层</text>
<text text-anchor="middle" x="529.77" y="-150.7" font-family="Noto Sans CJK SC" font-size="11.00">固定界面槽位</text>
<text text-anchor="middle" x="529.77" y="-138.7" font-family="Noto Sans CJK SC" font-size="11.00">AI 编排与流式输出</text>
<text text-anchor="middle" x="529.77" y="-126.7" font-family="Noto Sans CJK SC" font-size="11.00">内容审核与发布</text>
</g>
<!-- reader&#45;&gt;system -->
<g id="edge1" class="edge">
<title>reader&#45;&gt;system</title>
<path fill="none" stroke="#475569" d="M203.09,-295.48C226.07,-286.96 252.13,-277.17 275.77,-268 311.22,-254.25 349.32,-239.09 384.92,-224.76"/>
<polygon fill="#475569" stroke="#475569" points="386.11,-227.31 392.48,-221.72 384.01,-222.11 386.11,-227.31"/>
<text text-anchor="middle" x="334.27" y="-256.8" font-family="Noto Sans CJK SC" font-size="9.00">Web / API</text>
</g>
<!-- editor -->
<g id="node2" class="node">
<title>editor</title>
<ellipse fill="#f0fdf4" stroke="#16a34a" cx="137.89" cy="-217" rx="106.55" ry="29.9"/>
<text text-anchor="middle" x="137.89" y="-220.2" font-family="Noto Sans CJK SC" font-size="11.00">内容编辑 / 审核 / 发布者</text>
<text text-anchor="middle" x="137.89" y="-208.2" font-family="Noto Sans CJK SC" font-size="11.00">加工 ContextPack 与运行记录</text>
</g>
<!-- editor&#45;&gt;system -->
<g id="edge2" class="edge">
<title>editor&#45;&gt;system</title>
<path fill="none" stroke="#475569" d="M234.76,-204.46C279.92,-198.55 334.74,-191.38 384.75,-184.84"/>
<polygon fill="#475569" stroke="#475569" points="385.16,-187.61 392.73,-183.79 384.44,-182.06 385.16,-187.61"/>
<text text-anchor="middle" x="334.27" y="-196.8" font-family="Noto Sans CJK SC" font-size="9.00">Admin Studio</text>
</g>
<!-- admin -->
<g id="node3" class="node">
<title>admin</title>
<ellipse fill="#faf5ff" stroke="#9333ea" cx="137.89" cy="-115" rx="137.77" ry="29.9"/>
<text text-anchor="middle" x="137.89" y="-118.2" font-family="Noto Sans CJK SC" font-size="11.00">系统 / AI 管理员</text>
<text text-anchor="middle" x="137.89" y="-106.2" font-family="Noto Sans CJK SC" font-size="11.00">Prompt、Workflow、模型、权限</text>
</g>
<!-- admin&#45;&gt;system -->
<g id="edge3" class="edge">
<title>admin&#45;&gt;system</title>
<path fill="none" stroke="#475569" d="M256.13,-130.34C296.47,-135.61 342.13,-141.59 384.38,-147.11"/>
<polygon fill="#475569" stroke="#475569" points="384.21,-149.91 392.51,-148.18 384.94,-144.36 384.21,-149.91"/>
<text text-anchor="middle" x="334.27" y="-145.8" font-family="Noto Sans CJK SC" font-size="9.00">Registry / Ops</text>
</g>
<!-- llm -->
<g id="node5" class="node">
<title>llm</title>
<path fill="#fee2e2" stroke="#dc2626" d="M915.77,-269C915.77,-269 791.77,-269 791.77,-269 785.77,-269 779.77,-263 779.77,-257 779.77,-257 779.77,-239 779.77,-239 779.77,-233 785.77,-227 791.77,-227 791.77,-227 915.77,-227 915.77,-227 921.77,-227 927.77,-233 927.77,-239 927.77,-239 927.77,-257 927.77,-257 927.77,-263 921.77,-269 915.77,-269"/>
<text text-anchor="middle" x="853.77" y="-251.2" font-family="Noto Sans CJK SC" font-size="11.00">模型供应商 / 自托管模型</text>
<text text-anchor="middle" x="853.77" y="-239.2" font-family="Noto Sans CJK SC" font-size="11.00">结构化推理与生成</text>
</g>
<!-- system&#45;&gt;llm -->
<g id="edge4" class="edge">
<title>system&#45;&gt;llm</title>
<path fill="none" stroke="#475569" d="M666.86,-200.66C702.46,-209.72 739.73,-219.21 771.47,-227.3"/>
<polygon fill="#475569" stroke="#475569" points="770.98,-230.06 779.42,-229.32 772.36,-224.63 770.98,-230.06"/>
<text text-anchor="middle" x="723.27" y="-223.8" font-family="Noto Sans CJK SC" font-size="9.00">受控模型任务</text>
</g>
<!-- map -->
<g id="node7" class="node">
<title>map</title>
<path fill="#f8fafc" stroke="#64748b" d="M900.27,-184C900.27,-184 807.27,-184 807.27,-184 801.27,-184 795.27,-178 795.27,-172 795.27,-172 795.27,-160 795.27,-160 795.27,-154 801.27,-148 807.27,-148 807.27,-148 900.27,-148 900.27,-148 906.27,-148 912.27,-154 912.27,-160 912.27,-160 912.27,-172 912.27,-172 912.27,-178 906.27,-184 900.27,-184"/>
<text text-anchor="middle" x="853.77" y="-163.2" font-family="Noto Sans CJK SC" font-size="11.00">可选地图底图服务</text>
</g>
<!-- system&#45;&gt;map -->
<g id="edge6" class="edge">
<title>system&#45;&gt;map</title>
<path fill="none" stroke="#475569" d="M666.86,-166C708.49,-166 752.4,-166 787.09,-166"/>
<polygon fill="#475569" stroke="#475569" points="787.25,-168.8 795.25,-166 787.25,-163.2 787.25,-168.8"/>
<text text-anchor="middle" x="723.27" y="-168.8" font-family="Noto Sans CJK SC" font-size="9.00">可选底图</text>
</g>
<!-- auth -->
<g id="node8" class="node">
<title>auth</title>
<path fill="#f8fafc" stroke="#64748b" d="M894.27,-105C894.27,-105 813.27,-105 813.27,-105 807.27,-105 801.27,-99 801.27,-93 801.27,-93 801.27,-81 801.27,-81 801.27,-75 807.27,-69 813.27,-69 813.27,-69 894.27,-69 894.27,-69 900.27,-69 906.27,-75 906.27,-81 906.27,-81 906.27,-93 906.27,-93 906.27,-99 900.27,-105 894.27,-105"/>
<text text-anchor="middle" x="853.77" y="-84.2" font-family="Noto Sans CJK SC" font-size="11.00">身份与通知服务</text>
</g>
<!-- system&#45;&gt;auth -->
<g id="edge7" class="edge">
<title>system&#45;&gt;auth</title>
<path fill="none" stroke="#475569" d="M666.86,-132.61C710.9,-121.81 757.5,-110.38 793.02,-101.66"/>
<polygon fill="#475569" stroke="#475569" points="793.78,-104.36 800.88,-99.73 792.45,-98.92 793.78,-104.36"/>
<text text-anchor="middle" x="723.27" y="-126.8" font-family="Noto Sans CJK SC" font-size="9.00">OIDC / 通知</text>
</g>
<!-- source -->
<g id="node6" class="node">
<title>source</title>
<path fill="#f8fafc" stroke="#64748b" d="M229.39,-42C229.39,-42 46.39,-42 46.39,-42 40.39,-42 34.39,-36 34.39,-30 34.39,-30 34.39,-12 34.39,-12 34.39,-6 40.39,0 46.39,0 46.39,0 229.39,0 229.39,0 235.39,0 241.39,-6 241.39,-12 241.39,-12 241.39,-30 241.39,-30 241.39,-36 235.39,-42 229.39,-42"/>
<text text-anchor="middle" x="137.89" y="-24.2" font-family="Noto Sans CJK SC" font-size="11.00">资料导入源</text>
<text text-anchor="middle" x="137.89" y="-12.2" font-family="Noto Sans CJK SC" font-size="11.00">已有数字文本、背景材料、地图资产</text>
</g>
<!-- source&#45;&gt;system -->
<g id="edge5" class="edge">
<title>source&#45;&gt;system</title>
<path fill="none" stroke="#475569" d="M209.58,-42.04C230.96,-48.72 254.43,-56.36 275.77,-64 311.47,-76.78 349.58,-91.54 385.1,-105.8"/>
<polygon fill="#475569" stroke="#475569" points="384.18,-108.44 392.64,-108.83 386.27,-103.24 384.18,-108.44"/>
<text text-anchor="middle" x="334.27" y="-97.8" font-family="Noto Sans CJK SC" font-size="9.00">导入 / 登记</text>
</g>
</g>
</svg>
