<?xml version="1.0" encoding="UTF-8" standalone="no"?>
<!DOCTYPE svg PUBLIC "-//W3C//DTD SVG 1.1//EN"
 "http://www.w3.org/Graphics/SVG/1.1/DTD/svg11.dtd">
<!-- Generated by graphviz version 2.42.4 (0)
 -->
<!-- Title: G Pages: 1 -->
<svg width="1573pt" height="513pt"
 viewBox="0.00 0.00 1573.00 513.15" xmlns="http://www.w3.org/2000/svg" xmlns:xlink="http://www.w3.org/1999/xlink">
<g id="graph0" class="graph" transform="scale(1 1) rotate(0) translate(25.2 487.95)">
<title>G</title>
<polygon fill="white" stroke="transparent" points="-25.2,25.2 -25.2,-487.95 1547.8,-487.95 1547.8,25.2 -25.2,25.2"/>
<text text-anchor="middle" x="761.3" y="-442.75" font-family="Noto Sans CJK SC" font-size="20.00">Container / Module Architecture</text>
<g id="clust1" class="cluster">
<title>cluster_client</title>
<path fill="white" stroke="#cbd5e1" d="M259.1,-342.75C259.1,-342.75 500.1,-342.75 500.1,-342.75 506.1,-342.75 512.1,-348.75 512.1,-354.75 512.1,-354.75 512.1,-412.75 512.1,-412.75 512.1,-418.75 506.1,-424.75 500.1,-424.75 500.1,-424.75 259.1,-424.75 259.1,-424.75 253.1,-424.75 247.1,-418.75 247.1,-412.75 247.1,-412.75 247.1,-354.75 247.1,-354.75 247.1,-348.75 253.1,-342.75 259.1,-342.75"/>
<text text-anchor="middle" x="379.6" y="-404.75" font-family="Noto Sans CJK SC" font-size="20.00">客户端</text>
</g>
<g id="clust2" class="cluster">
<title>cluster_app</title>
<path fill="white" stroke="#cbd5e1" d="M36.1,-108.75C36.1,-108.75 1111.1,-108.75 1111.1,-108.75 1117.1,-108.75 1123.1,-114.75 1123.1,-120.75 1123.1,-120.75 1123.1,-178.75 1123.1,-178.75 1123.1,-184.75 1117.1,-190.75 1111.1,-190.75 1111.1,-190.75 36.1,-190.75 36.1,-190.75 30.1,-190.75 24.1,-184.75 24.1,-178.75 24.1,-178.75 24.1,-120.75 24.1,-120.75 24.1,-114.75 30.1,-108.75 36.1,-108.75"/>
<text text-anchor="middle" x="573.6" y="-170.75" font-family="Noto Sans CJK SC" font-size="20.00">应用模块（MVP 可为模块化单体）</text>
</g>
<g id="clust3" class="cluster">
<title>cluster_data</title>
<path fill="white" stroke="#cbd5e1" d="M250.1,-8C250.1,-8 821.1,-8 821.1,-8 827.1,-8 833.1,-14 833.1,-20 833.1,-20 833.1,-88.75 833.1,-88.75 833.1,-94.75 827.1,-100.75 821.1,-100.75 821.1,-100.75 250.1,-100.75 250.1,-100.75 244.1,-100.75 238.1,-94.75 238.1,-88.75 238.1,-88.75 238.1,-20 238.1,-20 238.1,-14 244.1,-8 250.1,-8"/>
<text text-anchor="middle" x="535.6" y="-80.75" font-family="Noto Sans CJK SC" font-size="20.00">数据与基础设施</text>
</g>
<!-- reader -->
<g id="node1" class="node">
<title>reader</title>
<path fill="#fffbeb" stroke="#b45309" d="M492.1,-386.75C492.1,-386.75 408.1,-386.75 408.1,-386.75 402.1,-386.75 396.1,-380.75 396.1,-374.75 396.1,-374.75 396.1,-362.75 396.1,-362.75 396.1,-356.75 402.1,-350.75 408.1,-350.75 408.1,-350.75 492.1,-350.75 492.1,-350.75 498.1,-350.75 504.1,-356.75 504.1,-362.75 504.1,-362.75 504.1,-374.75 504.1,-374.75 504.1,-380.75 498.1,-386.75 492.1,-386.75"/>
<text text-anchor="middle" x="450.1" y="-371.75" font-family="Noto Sans CJK SC" font-size="10.00">Reader Web</text>
<text text-anchor="middle" x="450.1" y="-360.75" font-family="Noto Sans CJK SC" font-size="10.00">原文 + 三槽位 + 场景</text>
</g>
<!-- gateway -->
<g id="node3" class="node">
<title>gateway</title>
<path fill="#dbeafe" stroke="#2563eb" d="M568.1,-310.75C568.1,-310.75 196.1,-310.75 196.1,-310.75 190.1,-310.75 184.1,-304.75 184.1,-298.75 184.1,-298.75 184.1,-286.75 184.1,-286.75 184.1,-280.75 190.1,-274.75 196.1,-274.75 196.1,-274.75 568.1,-274.75 568.1,-274.75 574.1,-274.75 580.1,-280.75 580.1,-286.75 580.1,-286.75 580.1,-298.75 580.1,-298.75 580.1,-304.75 574.1,-310.75 568.1,-310.75"/>
<text text-anchor="middle" x="382.1" y="-295.75" font-family="Noto Sans CJK SC" font-size="10.00">API / BFF / SSE</text>
<text text-anchor="middle" x="382.1" y="-284.75" font-family="Noto Sans CJK SC" font-size="10.00">认证｜会话｜聚合｜限流｜uiVersion</text>
</g>
<!-- reader&#45;&gt;gateway -->
<g id="edge1" class="edge">
<title>reader&#45;&gt;gateway</title>
<path fill="none" stroke="#64748b" d="M434.33,-350.59C424.89,-340.31 412.79,-327.14 402.61,-316.07"/>
<polygon fill="#64748b" stroke="#64748b" points="404.33,-314.32 397.79,-310.82 400.72,-317.63 404.33,-314.32"/>
</g>
<!-- studio -->
<g id="node2" class="node">
<title>studio</title>
<path fill="#f0fdf4" stroke="#16a34a" d="M358.6,-386.75C358.6,-386.75 267.6,-386.75 267.6,-386.75 261.6,-386.75 255.6,-380.75 255.6,-374.75 255.6,-374.75 255.6,-362.75 255.6,-362.75 255.6,-356.75 261.6,-350.75 267.6,-350.75 267.6,-350.75 358.6,-350.75 358.6,-350.75 364.6,-350.75 370.6,-356.75 370.6,-362.75 370.6,-362.75 370.6,-374.75 370.6,-374.75 370.6,-380.75 364.6,-386.75 358.6,-386.75"/>
<text text-anchor="middle" x="313.1" y="-371.75" font-family="Noto Sans CJK SC" font-size="10.00">Admin Studio</text>
<text text-anchor="middle" x="313.1" y="-360.75" font-family="Noto Sans CJK SC" font-size="10.00">内容加工 / 审核 / 发布</text>
</g>
<!-- studio&#45;&gt;gateway -->
<g id="edge2" class="edge">
<title>studio&#45;&gt;gateway</title>
<path fill="none" stroke="#64748b" d="M329.1,-350.59C338.68,-340.31 350.96,-327.14 361.29,-316.07"/>
<polygon fill="#64748b" stroke="#64748b" points="363.2,-317.61 366.18,-310.82 359.62,-314.27 363.2,-317.61"/>
</g>
<!-- article -->
<g id="node4" class="node">
<title>article</title>
<path fill="#f8fafc" stroke="#64748b" d="M159.6,-152.75C159.6,-152.75 44.6,-152.75 44.6,-152.75 38.6,-152.75 32.6,-146.75 32.6,-140.75 32.6,-140.75 32.6,-128.75 32.6,-128.75 32.6,-122.75 38.6,-116.75 44.6,-116.75 44.6,-116.75 159.6,-116.75 159.6,-116.75 165.6,-116.75 171.6,-122.75 171.6,-128.75 171.6,-128.75 171.6,-140.75 171.6,-140.75 171.6,-146.75 165.6,-152.75 159.6,-152.75"/>
<text text-anchor="middle" x="102.1" y="-137.75" font-family="Noto Sans CJK SC" font-size="10.00">Article Module</text>
<text text-anchor="middle" x="102.1" y="-126.75" font-family="Noto Sans CJK SC" font-size="10.00">文章 / 段落 / 锚点 / Release</text>
</g>
<!-- gateway&#45;&gt;article -->
<g id="edge3" class="edge">
<title>gateway&#45;&gt;article</title>
<path fill="none" stroke="#64748b" d="M345.27,-274.59C304.98,-255.44 238.83,-222.91 184.1,-190.75 166.36,-180.32 147.22,-167.58 131.9,-156.98"/>
<polygon fill="#64748b" stroke="#64748b" points="133.16,-154.88 126.01,-152.89 130.36,-158.9 133.16,-154.88"/>
</g>
<!-- context -->
<g id="node5" class="node">
<title>context</title>
<path fill="#f8fafc" stroke="#64748b" d="M359.6,-152.75C359.6,-152.75 208.6,-152.75 208.6,-152.75 202.6,-152.75 196.6,-146.75 196.6,-140.75 196.6,-140.75 196.6,-128.75 196.6,-128.75 196.6,-122.75 202.6,-116.75 208.6,-116.75 208.6,-116.75 359.6,-116.75 359.6,-116.75 365.6,-116.75 371.6,-122.75 371.6,-128.75 371.6,-128.75 371.6,-140.75 371.6,-140.75 371.6,-146.75 365.6,-152.75 359.6,-152.75"/>
<text text-anchor="middle" x="284.1" y="-137.75" font-family="Noto Sans CJK SC" font-size="10.00">Context Module</text>
<text text-anchor="middle" x="284.1" y="-126.75" font-family="Noto Sans CJK SC" font-size="10.00">ContextPack / Unit / Source / Link</text>
</g>
<!-- gateway&#45;&gt;context -->
<g id="edge4" class="edge">
<title>gateway&#45;&gt;context</title>
<path fill="none" stroke="#64748b" d="M371.24,-274.46C353.58,-246.35 318.62,-190.7 298.77,-159.1"/>
<polygon fill="#64748b" stroke="#64748b" points="300.81,-157.74 295.01,-153.12 296.66,-160.35 300.81,-157.74"/>
</g>
<!-- generation_run -->
<g id="node6" class="node">
<title>generation_run</title>
<path fill="#f8fafc" stroke="#64748b" d="M507.6,-152.75C507.6,-152.75 408.6,-152.75 408.6,-152.75 402.6,-152.75 396.6,-146.75 396.6,-140.75 396.6,-140.75 396.6,-128.75 396.6,-128.75 396.6,-122.75 402.6,-116.75 408.6,-116.75 408.6,-116.75 507.6,-116.75 507.6,-116.75 513.6,-116.75 519.6,-122.75 519.6,-128.75 519.6,-128.75 519.6,-140.75 519.6,-140.75 519.6,-146.75 513.6,-152.75 507.6,-152.75"/>
<text text-anchor="middle" x="458.1" y="-137.75" font-family="Noto Sans CJK SC" font-size="10.00">Generation Runtime</text>
<text text-anchor="middle" x="458.1" y="-126.75" font-family="Noto Sans CJK SC" font-size="10.00">生成 / 审核 / 发布 / 缓存</text>
</g>
<!-- gateway&#45;&gt;generation_run -->
<g id="edge5" class="edge">
<title>gateway&#45;&gt;generation_run</title>
<path fill="none" stroke="#64748b" d="M390.52,-274.46C404.16,-246.46 431.1,-191.16 446.53,-159.5"/>
<polygon fill="#64748b" stroke="#64748b" points="448.78,-160.48 449.64,-153.12 444.37,-158.34 448.78,-160.48"/>
</g>
<!-- session -->
<g id="node7" class="node">
<title>session</title>
<path fill="#f8fafc" stroke="#64748b" d="M629.1,-152.75C629.1,-152.75 557.1,-152.75 557.1,-152.75 551.1,-152.75 545.1,-146.75 545.1,-140.75 545.1,-140.75 545.1,-128.75 545.1,-128.75 545.1,-122.75 551.1,-116.75 557.1,-116.75 557.1,-116.75 629.1,-116.75 629.1,-116.75 635.1,-116.75 641.1,-122.75 641.1,-128.75 641.1,-128.75 641.1,-140.75 641.1,-140.75 641.1,-146.75 635.1,-152.75 629.1,-152.75"/>
<text text-anchor="middle" x="593.1" y="-137.75" font-family="Noto Sans CJK SC" font-size="10.00">Reading Module</text>
<text text-anchor="middle" x="593.1" y="-126.75" font-family="Noto Sans CJK SC" font-size="10.00">会话 / 交互 / 反馈</text>
</g>
<!-- gateway&#45;&gt;session -->
<g id="edge6" class="edge">
<title>gateway&#45;&gt;session</title>
<path fill="none" stroke="#64748b" d="M410.01,-274.63C440.77,-255.38 491.28,-222.64 532.1,-190.75 545.23,-180.49 559.09,-168.13 570.27,-157.74"/>
<polygon fill="#64748b" stroke="#64748b" points="572.1,-159.38 575.53,-152.81 568.75,-155.81 572.1,-159.38"/>
</g>
<!-- orchestrator -->
<g id="node11" class="node">
<title>orchestrator</title>
<path fill="#fee2e2" stroke="#dc2626" d="M973.1,-234.75C973.1,-234.75 565.1,-234.75 565.1,-234.75 559.1,-234.75 553.1,-228.75 553.1,-222.75 553.1,-222.75 553.1,-210.75 553.1,-210.75 553.1,-204.75 559.1,-198.75 565.1,-198.75 565.1,-198.75 973.1,-198.75 973.1,-198.75 979.1,-198.75 985.1,-204.75 985.1,-210.75 985.1,-210.75 985.1,-222.75 985.1,-222.75 985.1,-228.75 979.1,-234.75 973.1,-234.75"/>
<text text-anchor="middle" x="769.1" y="-219.75" font-family="Noto Sans CJK SC" font-size="10.00">AI Orchestrator</text>
<text text-anchor="middle" x="769.1" y="-208.75" font-family="Noto Sans CJK SC" font-size="10.00">Planner → Retriever → Slot Generators → Validator → Repair → Stream</text>
</g>
<!-- gateway&#45;&gt;orchestrator -->
<g id="edge7" class="edge">
<title>gateway&#45;&gt;orchestrator</title>
<path fill="none" stroke="#64748b" d="M471.37,-274.68C531.66,-263.15 611.2,-247.94 672.89,-236.15"/>
<polygon fill="#64748b" stroke="#64748b" points="673.53,-238.52 679.94,-234.8 672.61,-233.71 673.53,-238.52"/>
</g>
<!-- obs -->
<g id="node17" class="node">
<title>obs</title>
<path fill="#f1f5f9" stroke="#64748b" d="M825.1,-54.1C825.1,-55.91 797.76,-57.38 764.1,-57.38 730.44,-57.38 703.1,-55.91 703.1,-54.1 703.1,-54.1 703.1,-24.65 703.1,-24.65 703.1,-22.84 730.44,-21.38 764.1,-21.38 797.76,-21.38 825.1,-22.84 825.1,-24.65 825.1,-24.65 825.1,-54.1 825.1,-54.1"/>
<path fill="none" stroke="#64748b" d="M825.1,-54.1C825.1,-52.3 797.76,-50.83 764.1,-50.83 730.44,-50.83 703.1,-52.3 703.1,-54.1"/>
<text text-anchor="middle" x="764.1" y="-36.88" font-family="Noto Sans CJK SC" font-size="10.00">Logs / Metrics / Traces</text>
</g>
<!-- gateway&#45;&gt;obs -->
<g id="edge24" class="edge">
<title>gateway&#45;&gt;obs</title>
<path fill="none" stroke="#64748b" d="M264.22,-274.69C169.73,-258.32 48.12,-230.23 18.1,-190.75 -3.96,-161.74 -7.52,-134.67 18.1,-108.75 31.22,-95.47 672.55,-107.12 690.1,-100.75 711.15,-93.11 730.59,-76.72 744.26,-62.95"/>
<polygon fill="#64748b" stroke="#64748b" points="746.29,-64.37 749.38,-57.63 742.76,-60.97 746.29,-64.37"/>
</g>
<!-- pg -->
<g id="node14" class="node">
<title>pg</title>
<path fill="#e0f2fe" stroke="#0284c7" d="M529.6,-58.4C529.6,-60.73 497.55,-62.63 458.1,-62.63 418.65,-62.63 386.6,-60.73 386.6,-58.4 386.6,-58.4 386.6,-20.35 386.6,-20.35 386.6,-18.02 418.65,-16.12 458.1,-16.12 497.55,-16.12 529.6,-18.02 529.6,-20.35 529.6,-20.35 529.6,-58.4 529.6,-58.4"/>
<path fill="none" stroke="#0284c7" d="M529.6,-58.4C529.6,-56.07 497.55,-54.17 458.1,-54.17 418.65,-54.17 386.6,-56.07 386.6,-58.4"/>
<text text-anchor="middle" x="458.1" y="-42.38" font-family="Noto Sans CJK SC" font-size="10.00">PostgreSQL</text>
<text text-anchor="middle" x="458.1" y="-31.38" font-family="Noto Sans CJK SC" font-size="10.00">权威内容 / 版本 / 运行 / 审计</text>
</g>
<!-- article&#45;&gt;pg -->
<g id="edge13" class="edge">
<title>article&#45;&gt;pg</title>
<path fill="none" stroke="#64748b" d="M150.61,-116.75C161.5,-113.55 173.1,-110.63 184.1,-108.75 225.76,-101.64 334.16,-114.55 374.1,-100.75 394.51,-93.7 414.28,-79.95 429.5,-67.36"/>
<polygon fill="#64748b" stroke="#64748b" points="431.14,-69.18 434.9,-62.78 427.98,-65.44 431.14,-69.18"/>
</g>
<!-- context&#45;&gt;pg -->
<g id="edge14" class="edge">
<title>context&#45;&gt;pg</title>
<path fill="none" stroke="#64748b" d="M337.96,-116.71C350.12,-112.13 362.78,-106.75 374.1,-100.75 391.89,-91.32 410.21,-78.57 425.18,-67.22"/>
<polygon fill="#64748b" stroke="#64748b" points="426.9,-68.99 430.96,-62.78 423.92,-65.1 426.9,-68.99"/>
</g>
<!-- object -->
<g id="node16" class="node">
<title>object</title>
<path fill="#f1f5f9" stroke="#64748b" d="M361.6,-58.4C361.6,-60.73 335.83,-62.63 304.1,-62.63 272.37,-62.63 246.6,-60.73 246.6,-58.4 246.6,-58.4 246.6,-20.35 246.6,-20.35 246.6,-18.02 272.37,-16.12 304.1,-16.12 335.83,-16.12 361.6,-18.02 361.6,-20.35 361.6,-20.35 361.6,-58.4 361.6,-58.4"/>
<path fill="none" stroke="#64748b" d="M361.6,-58.4C361.6,-56.07 335.83,-54.17 304.1,-54.17 272.37,-54.17 246.6,-56.07 246.6,-58.4"/>
<text text-anchor="middle" x="304.1" y="-42.38" font-family="Noto Sans CJK SC" font-size="10.00">Object Storage</text>
<text text-anchor="middle" x="304.1" y="-31.38" font-family="Noto Sans CJK SC" font-size="10.00">导入文件 / 资产 / 导出</text>
</g>
<!-- context&#45;&gt;object -->
<g id="edge22" class="edge">
<title>context&#45;&gt;object</title>
<path fill="none" stroke="#64748b" d="M287.77,-116.62C290.58,-103.47 294.54,-85.01 297.85,-69.55"/>
<polygon fill="#64748b" stroke="#64748b" points="300.25,-70.04 299.32,-62.68 295.46,-69.01 300.25,-70.04"/>
</g>
<!-- generation_run&#45;&gt;pg -->
<g id="edge15" class="edge">
<title>generation_run&#45;&gt;pg</title>
<path fill="none" stroke="#64748b" d="M458.1,-116.62C458.1,-103.59 458.1,-85.34 458.1,-69.96"/>
<polygon fill="#64748b" stroke="#64748b" points="460.55,-69.68 458.1,-62.68 455.65,-69.68 460.55,-69.68"/>
</g>
<!-- redis -->
<g id="node15" class="node">
<title>redis</title>
<path fill="#fee2e2" stroke="#dc2626" d="M677.6,-58.4C677.6,-60.73 650.03,-62.63 616.1,-62.63 582.17,-62.63 554.6,-60.73 554.6,-58.4 554.6,-58.4 554.6,-20.35 554.6,-20.35 554.6,-18.02 582.17,-16.12 616.1,-16.12 650.03,-16.12 677.6,-18.02 677.6,-20.35 677.6,-20.35 677.6,-58.4 677.6,-58.4"/>
<path fill="none" stroke="#dc2626" d="M677.6,-58.4C677.6,-56.07 650.03,-54.17 616.1,-54.17 582.17,-54.17 554.6,-56.07 554.6,-58.4"/>
<text text-anchor="middle" x="616.1" y="-42.38" font-family="Noto Sans CJK SC" font-size="10.00">Redis</text>
<text text-anchor="middle" x="616.1" y="-31.38" font-family="Noto Sans CJK SC" font-size="10.00">运行记录 / 会话 / 幂等 / 状态</text>
</g>
<!-- generation_run&#45;&gt;redis -->
<g id="edge19" class="edge">
<title>generation_run&#45;&gt;redis</title>
<path fill="none" stroke="#64748b" d="M509.04,-116.67C520.24,-112.11 531.82,-106.76 542.1,-100.75 558,-91.45 574.04,-78.84 587.11,-67.56"/>
<polygon fill="#64748b" stroke="#64748b" points="588.87,-69.27 592.51,-62.82 585.63,-65.59 588.87,-69.27"/>
</g>
<!-- session&#45;&gt;pg -->
<g id="edge16" class="edge">
<title>session&#45;&gt;pg</title>
<path fill="none" stroke="#64748b" d="M566.2,-116.7C558.38,-111.64 549.85,-106.04 542.1,-100.75 526.25,-89.94 509.01,-77.64 494.29,-66.97"/>
<polygon fill="#64748b" stroke="#64748b" points="495.67,-64.95 488.57,-62.82 492.79,-68.91 495.67,-64.95"/>
</g>
<!-- session&#45;&gt;redis -->
<g id="edge20" class="edge">
<title>session&#45;&gt;redis</title>
<path fill="none" stroke="#64748b" d="M597.32,-116.62C600.56,-103.47 605.11,-85.01 608.91,-69.55"/>
<polygon fill="#64748b" stroke="#64748b" points="611.31,-70.06 610.61,-62.68 606.55,-68.89 611.31,-70.06"/>
</g>
<!-- scene -->
<g id="node8" class="node">
<title>scene</title>
<path fill="#f8fafc" stroke="#64748b" d="M772.1,-152.75C772.1,-152.75 678.1,-152.75 678.1,-152.75 672.1,-152.75 666.1,-146.75 666.1,-140.75 666.1,-140.75 666.1,-128.75 666.1,-128.75 666.1,-122.75 672.1,-116.75 678.1,-116.75 678.1,-116.75 772.1,-116.75 772.1,-116.75 778.1,-116.75 784.1,-122.75 784.1,-128.75 784.1,-128.75 784.1,-140.75 784.1,-140.75 784.1,-146.75 778.1,-152.75 772.1,-152.75"/>
<text text-anchor="middle" x="725.1" y="-137.75" font-family="Noto Sans CJK SC" font-size="10.00">Scene Module</text>
<text text-anchor="middle" x="725.1" y="-126.75" font-family="Noto Sans CJK SC" font-size="10.00">声明式场景校验与适配</text>
</g>
<!-- registry -->
<g id="node9" class="node">
<title>registry</title>
<path fill="#f8fafc" stroke="#64748b" d="M1102.6,-152.75C1102.6,-152.75 951.6,-152.75 951.6,-152.75 945.6,-152.75 939.6,-146.75 939.6,-140.75 939.6,-140.75 939.6,-128.75 939.6,-128.75 939.6,-122.75 945.6,-116.75 951.6,-116.75 951.6,-116.75 1102.6,-116.75 1102.6,-116.75 1108.6,-116.75 1114.6,-122.75 1114.6,-128.75 1114.6,-128.75 1114.6,-140.75 1114.6,-140.75 1114.6,-146.75 1108.6,-152.75 1102.6,-152.75"/>
<text text-anchor="middle" x="1027.1" y="-137.75" font-family="Noto Sans CJK SC" font-size="10.00">Registry Module</text>
<text text-anchor="middle" x="1027.1" y="-126.75" font-family="Noto Sans CJK SC" font-size="10.00">Prompt / Workflow / Model Policy</text>
</g>
<!-- registry&#45;&gt;pg -->
<g id="edge17" class="edge">
<title>registry&#45;&gt;pg</title>
<path fill="none" stroke="#64748b" d="M968.3,-116.72C954.87,-113.49 940.58,-110.55 927.1,-108.75 884.69,-103.08 582.69,-114.29 542.1,-100.75 521.46,-93.87 501.55,-79.98 486.3,-67.26"/>
<polygon fill="#64748b" stroke="#64748b" points="487.81,-65.33 480.89,-62.64 484.62,-69.05 487.81,-65.33"/>
</g>
<!-- audit -->
<g id="node10" class="node">
<title>audit</title>
<path fill="#f8fafc" stroke="#64748b" d="M902.6,-152.75C902.6,-152.75 821.6,-152.75 821.6,-152.75 815.6,-152.75 809.6,-146.75 809.6,-140.75 809.6,-140.75 809.6,-128.75 809.6,-128.75 809.6,-122.75 815.6,-116.75 821.6,-116.75 821.6,-116.75 902.6,-116.75 902.6,-116.75 908.6,-116.75 914.6,-122.75 914.6,-128.75 914.6,-128.75 914.6,-140.75 914.6,-140.75 914.6,-146.75 908.6,-152.75 902.6,-152.75"/>
<text text-anchor="middle" x="862.1" y="-137.75" font-family="Noto Sans CJK SC" font-size="10.00">Audit &amp; Rights</text>
<text text-anchor="middle" x="862.1" y="-126.75" font-family="Noto Sans CJK SC" font-size="10.00">审计 / 权利 / 可见性</text>
</g>
<!-- audit&#45;&gt;pg -->
<g id="edge18" class="edge">
<title>audit&#45;&gt;pg</title>
<path fill="none" stroke="#64748b" d="M824.24,-116.75C815.5,-113.51 806.11,-110.57 797.1,-108.75 741.53,-97.53 595.79,-118.98 542.1,-100.75 521.65,-93.81 501.88,-80.07 486.66,-67.45"/>
<polygon fill="#64748b" stroke="#64748b" points="488.19,-65.53 481.27,-62.86 485.02,-69.27 488.19,-65.53"/>
</g>
<!-- orchestrator&#45;&gt;context -->
<g id="edge11" class="edge">
<title>orchestrator&#45;&gt;context</title>
<path fill="none" stroke="#64748b" d="M553.08,-209.81C483.85,-206.16 416.69,-200.26 384.1,-190.75 359.15,-183.47 333.51,-169.21 314.45,-157.04"/>
<polygon fill="#64748b" stroke="#64748b" points="315.44,-154.76 308.24,-153 312.77,-158.87 315.44,-154.76"/>
</g>
<!-- orchestrator&#45;&gt;scene -->
<g id="edge12" class="edge">
<title>orchestrator&#45;&gt;scene</title>
<path fill="none" stroke="#64748b" d="M759.55,-198.39C753.22,-186.89 744.85,-171.65 737.94,-159.09"/>
<polygon fill="#64748b" stroke="#64748b" points="740,-157.75 734.48,-152.8 735.7,-160.11 740,-157.75"/>
</g>
<!-- orchestrator&#45;&gt;registry -->
<g id="edge10" class="edge">
<title>orchestrator&#45;&gt;registry</title>
<path fill="none" stroke="#64748b" d="M900.16,-198.65C909.37,-196.34 918.43,-193.72 927.1,-190.75 951.35,-182.45 976.63,-168.49 995.71,-156.71"/>
<polygon fill="#64748b" stroke="#64748b" points="997.3,-158.61 1001.93,-152.81 994.69,-154.46 997.3,-158.61"/>
</g>
<!-- workers -->
<g id="node12" class="node">
<title>workers</title>
<path fill="#faf5ff" stroke="#9333ea" d="M1510.6,-152.75C1510.6,-152.75 1203.6,-152.75 1203.6,-152.75 1197.6,-152.75 1191.6,-146.75 1191.6,-140.75 1191.6,-140.75 1191.6,-128.75 1191.6,-128.75 1191.6,-122.75 1197.6,-116.75 1203.6,-116.75 1203.6,-116.75 1510.6,-116.75 1510.6,-116.75 1516.6,-116.75 1522.6,-122.75 1522.6,-128.75 1522.6,-128.75 1522.6,-140.75 1522.6,-140.75 1522.6,-146.75 1516.6,-152.75 1510.6,-152.75"/>
<text text-anchor="middle" x="1357.1" y="-137.75" font-family="Noto Sans CJK SC" font-size="10.00">AI Worker / Content Worker</text>
<text text-anchor="middle" x="1357.1" y="-126.75" font-family="Noto Sans CJK SC" font-size="10.00">在线优先队列 + 离线批处理</text>
</g>
<!-- orchestrator&#45;&gt;workers -->
<g id="edge8" class="edge">
<title>orchestrator&#45;&gt;workers</title>
<path fill="none" stroke="#64748b" d="M985.33,-211.38C1046.08,-207.71 1111.96,-201.41 1172.1,-190.75 1217.45,-182.71 1267.43,-167.45 1304,-155.04"/>
<polygon fill="#64748b" stroke="#64748b" points="1304.83,-157.34 1310.66,-152.76 1303.25,-152.71 1304.83,-157.34"/>
</g>
<!-- orchestrator&#45;&gt;redis -->
<g id="edge21" class="edge">
<title>orchestrator&#45;&gt;redis</title>
<path fill="none" stroke="#64748b" d="M985.38,-212.47C1055.3,-209.14 1117.88,-202.77 1129.1,-190.75 1153.96,-164.1 1154.63,-134.75 1129.1,-108.75 1112.05,-91.38 713.98,-109.05 691.1,-100.75 672.37,-93.96 654.83,-80.4 641.42,-67.86"/>
<polygon fill="#64748b" stroke="#64748b" points="643.05,-66.02 636.31,-62.93 639.65,-69.55 643.05,-66.02"/>
</g>
<!-- model -->
<g id="node13" class="node">
<title>model</title>
<path fill="#fee2e2" stroke="#dc2626" d="M1226.1,-57.38C1226.1,-57.38 1070.1,-57.38 1070.1,-57.38 1064.1,-57.38 1058.1,-51.38 1058.1,-45.38 1058.1,-45.38 1058.1,-33.38 1058.1,-33.38 1058.1,-27.38 1064.1,-21.38 1070.1,-21.38 1070.1,-21.38 1226.1,-21.38 1226.1,-21.38 1232.1,-21.38 1238.1,-27.38 1238.1,-33.38 1238.1,-33.38 1238.1,-45.38 1238.1,-45.38 1238.1,-51.38 1232.1,-57.38 1226.1,-57.38"/>
<text text-anchor="middle" x="1148.1" y="-42.38" font-family="Noto Sans CJK SC" font-size="10.00">Model Gateway</text>
<text text-anchor="middle" x="1148.1" y="-31.38" font-family="Noto Sans CJK SC" font-size="10.00">路由 / 超时 / 熔断 / 成本 / 结构化输出</text>
</g>
<!-- workers&#45;&gt;model -->
<g id="edge9" class="edge">
<title>workers&#45;&gt;model</title>
<path fill="none" stroke="#64748b" d="M1318.77,-116.62C1283.27,-100.76 1230.46,-77.17 1193,-60.43"/>
<polygon fill="#64748b" stroke="#64748b" points="1193.58,-58.01 1186.19,-57.39 1191.58,-62.49 1193.58,-58.01"/>
</g>
<!-- workers&#45;&gt;obs -->
<g id="edge25" class="edge">
<title>workers&#45;&gt;obs</title>
<path fill="none" stroke="#64748b" d="M1240.3,-116.69C1217.71,-113.75 1194.19,-110.94 1172.1,-108.75 1116.26,-103.21 1101.69,-108.42 1046.1,-100.75 972.02,-90.53 888.39,-71.68 831.57,-57.75"/>
<polygon fill="#64748b" stroke="#64748b" points="831.81,-55.29 824.43,-55.99 830.64,-60.05 831.81,-55.29"/>
</g>
<!-- model&#45;&gt;obs -->
<g id="edge23" class="edge">
<title>model&#45;&gt;obs</title>
<path fill="none" stroke="#64748b" d="M1057.92,-39.38C982.78,-39.38 907.64,-39.38 832.5,-39.38"/>
<polygon fill="#64748b" stroke="#64748b" points="832.23,-36.93 825.23,-39.38 832.23,-41.83 832.23,-36.93"/>
</g>
</g>
</svg>
