<?xml version="1.0" encoding="UTF-8" standalone="no"?>
<!DOCTYPE svg PUBLIC "-//W3C//DTD SVG 1.1//EN"
 "http://www.w3.org/Graphics/SVG/1.1/DTD/svg11.dtd">
<!-- Generated by graphviz version 2.42.4 (0)
 -->
<!-- Title: G Pages: 1 -->
<svg width="2121pt" height="274pt"
 viewBox="0.00 0.00 2121.40 274.40" xmlns="http://www.w3.org/2000/svg" xmlns:xlink="http://www.w3.org/1999/xlink">
<g id="graph0" class="graph" transform="scale(1 1) rotate(0) translate(25.2 249.2)">
<title>G</title>
<polygon fill="white" stroke="transparent" points="-25.2,25.2 -25.2,-249.2 2096.2,-249.2 2096.2,25.2 -25.2,25.2"/>
<text text-anchor="middle" x="1035.5" y="-204" font-family="Noto Sans CJK SC" font-size="20.00">实时 AI 编排工作流：只更新必要槽位</text>
<!-- event -->
<g id="node1" class="node">
<title>event</title>
<path fill="#fffbeb" stroke="#b45309" d="M111,-50C111,-50 12,-50 12,-50 6,-50 0,-44 0,-38 0,-38 0,-26 0,-26 0,-20 6,-14 12,-14 12,-14 111,-14 111,-14 117,-14 123,-20 123,-26 123,-26 123,-38 123,-38 123,-44 117,-50 111,-50"/>
<text text-anchor="middle" x="61.5" y="-34.4" font-family="Noto Sans CJK SC" font-size="9.50">用户事件</text>
<text text-anchor="middle" x="61.5" y="-24.4" font-family="Noto Sans CJK SC" font-size="9.50">点击 / 选中 / 模式 / 提问</text>
</g>
<!-- norm -->
<g id="node2" class="node">
<title>norm</title>
<path fill="#f8fafc" stroke="#64748b" d="M318,-50C318,-50 172,-50 172,-50 166,-50 160,-44 160,-38 160,-38 160,-26 160,-26 160,-20 166,-14 172,-14 172,-14 318,-14 318,-14 324,-14 330,-20 330,-26 330,-26 330,-38 330,-38 330,-44 324,-50 318,-50"/>
<text text-anchor="middle" x="245" y="-34.4" font-family="Noto Sans CJK SC" font-size="9.50">1 事件规范化</text>
<text text-anchor="middle" x="245" y="-24.4" font-family="Noto Sans CJK SC" font-size="9.50">权限 / release / anchor / uiVersion</text>
</g>
<!-- event&#45;&gt;norm -->
<g id="edge1" class="edge">
<title>event&#45;&gt;norm</title>
<path fill="none" stroke="#64748b" d="M123.19,-32C132.83,-32 142.97,-32 153.12,-32"/>
<polygon fill="#64748b" stroke="#64748b" points="153.29,-34.28 159.79,-32 153.29,-29.73 153.29,-34.28"/>
</g>
<!-- plan -->
<g id="node3" class="node">
<title>plan</title>
<path fill="#fee2e2" stroke="#dc2626" d="M490,-53C490,-53 379,-53 379,-53 373,-53 367,-47 367,-41 367,-41 367,-23 367,-23 367,-17 373,-11 379,-11 379,-11 490,-11 490,-11 496,-11 502,-17 502,-23 502,-23 502,-41 502,-41 502,-47 496,-53 490,-53"/>
<text text-anchor="middle" x="434.5" y="-39.4" font-family="Noto Sans CJK SC" font-size="9.50">2 Planner</text>
<text text-anchor="middle" x="434.5" y="-29.4" font-family="Noto Sans CJK SC" font-size="9.50">updateSlots / keepSlots</text>
<text text-anchor="middle" x="434.5" y="-19.4" font-family="Noto Sans CJK SC" font-size="9.50">检索目标 / 场景 / 时间政策</text>
</g>
<!-- norm&#45;&gt;plan -->
<g id="edge2" class="edge">
<title>norm&#45;&gt;plan</title>
<path fill="none" stroke="#64748b" d="M330.15,-32C340.12,-32 350.23,-32 360.03,-32"/>
<polygon fill="#64748b" stroke="#64748b" points="360.26,-34.28 366.76,-32 360.26,-29.73 360.26,-34.28"/>
</g>
<!-- retrieve -->
<g id="node4" class="node">
<title>retrieve</title>
<path fill="#dbeafe" stroke="#2563eb" d="M694,-86C694,-86 551,-86 551,-86 545,-86 539,-80 539,-74 539,-74 539,-62 539,-62 539,-56 545,-50 551,-50 551,-50 694,-50 694,-50 700,-50 706,-56 706,-62 706,-62 706,-74 706,-74 706,-80 700,-86 694,-86"/>
<text text-anchor="middle" x="622.5" y="-70.4" font-family="Noto Sans CJK SC" font-size="9.50">3 Context Retrieval</text>
<text text-anchor="middle" x="622.5" y="-60.4" font-family="Noto Sans CJK SC" font-size="9.50">正文 + 人工链接 + 时间过滤 + 重排</text>
</g>
<!-- plan&#45;&gt;retrieve -->
<g id="edge3" class="edge">
<title>plan&#45;&gt;retrieve</title>
<path fill="none" stroke="#64748b" d="M502.12,-44.9C511.87,-46.78 522.04,-48.75 532.15,-50.71"/>
<polygon fill="#64748b" stroke="#64748b" points="531.97,-52.99 538.79,-51.99 532.84,-48.52 531.97,-52.99"/>
</g>
<!-- scene -->
<g id="node13" class="node">
<title>scene</title>
<path fill="#f8fafc" stroke="#64748b" d="M890,-36C890,-36 755,-36 755,-36 749,-36 743,-30 743,-24 743,-24 743,-12 743,-12 743,-6 749,0 755,0 755,0 890,0 890,0 896,0 902,-6 902,-12 902,-12 902,-24 902,-24 902,-30 896,-36 890,-36"/>
<text text-anchor="middle" x="822.5" y="-20.4" font-family="Noto Sans CJK SC" font-size="9.50">10 场景</text>
<text text-anchor="middle" x="822.5" y="-10.4" font-family="Noto Sans CJK SC" font-size="9.50">选择类型 → 回填受控 ID → 校验</text>
</g>
<!-- plan&#45;&gt;scene -->
<g id="edge15" class="edge">
<title>plan&#45;&gt;scene</title>
<path fill="none" stroke="#64748b" d="M502.3,-29.58C567.1,-27.23 665.7,-23.65 736.16,-21.1"/>
<polygon fill="#64748b" stroke="#64748b" points="736.47,-23.36 742.88,-20.85 736.31,-18.81 736.47,-23.36"/>
<text text-anchor="middle" x="622.5" y="-31.6" font-family="Noto Sans CJK SC" font-size="8.00">sceneType != none</text>
</g>
<!-- assemble -->
<g id="node5" class="node">
<title>assemble</title>
<path fill="#f8fafc" stroke="#64748b" d="M878,-114C878,-114 767,-114 767,-114 761,-114 755,-108 755,-102 755,-102 755,-90 755,-90 755,-84 761,-78 767,-78 767,-78 878,-78 878,-78 884,-78 890,-84 890,-90 890,-90 890,-102 890,-102 890,-108 884,-114 878,-114"/>
<text text-anchor="middle" x="822.5" y="-98.4" font-family="Noto Sans CJK SC" font-size="9.50">4 Prompt Assembly</text>
<text text-anchor="middle" x="822.5" y="-88.4" font-family="Noto Sans CJK SC" font-size="9.50">系统规则 / 任务 / 数据隔离</text>
</g>
<!-- retrieve&#45;&gt;assemble -->
<g id="edge4" class="edge">
<title>retrieve&#45;&gt;assemble</title>
<path fill="none" stroke="#64748b" d="M706.04,-79.67C719.99,-81.64 734.39,-83.68 748.09,-85.62"/>
<polygon fill="#64748b" stroke="#64748b" points="748,-87.9 754.75,-86.56 748.63,-83.4 748,-87.9"/>
</g>
<!-- retrieve&#45;&gt;scene -->
<g id="edge16" class="edge">
<title>retrieve&#45;&gt;scene</title>
<path fill="none" stroke="#64748b" d="M694.98,-49.95C710.82,-45.95 727.69,-41.69 743.77,-37.63"/>
<polygon fill="#64748b" stroke="#64748b" points="744.38,-39.82 750.12,-36.02 743.26,-35.41 744.38,-39.82"/>
</g>
<!-- bg -->
<g id="node6" class="node">
<title>bg</title>
<path fill="#eff6ff" stroke="#2563eb" d="M1000,-135C1000,-135 951,-135 951,-135 945,-135 939,-129 939,-123 939,-123 939,-111 939,-111 939,-105 945,-99 951,-99 951,-99 1000,-99 1000,-99 1006,-99 1012,-105 1012,-111 1012,-111 1012,-123 1012,-123 1012,-129 1006,-135 1000,-135"/>
<text text-anchor="middle" x="975.5" y="-119.4" font-family="Noto Sans CJK SC" font-size="9.50">5A 背景生成</text>
<text text-anchor="middle" x="975.5" y="-109.4" font-family="Noto Sans CJK SC" font-size="9.50">仅计划时</text>
</g>
<!-- assemble&#45;&gt;bg -->
<g id="edge5" class="edge">
<title>assemble&#45;&gt;bg</title>
<path fill="none" stroke="#64748b" d="M890.17,-105.27C904.43,-107.26 919.12,-109.3 932.16,-111.11"/>
<polygon fill="#64748b" stroke="#64748b" points="932.07,-113.4 938.82,-112.04 932.7,-108.89 932.07,-113.4"/>
</g>
<!-- sit -->
<g id="node7" class="node">
<title>sit</title>
<path fill="#f0fdf4" stroke="#16a34a" d="M1000,-76C1000,-76 951,-76 951,-76 945,-76 939,-70 939,-64 939,-64 939,-52 939,-52 939,-46 945,-40 951,-40 951,-40 1000,-40 1000,-40 1006,-40 1012,-46 1012,-52 1012,-52 1012,-64 1012,-64 1012,-70 1006,-76 1000,-76"/>
<text text-anchor="middle" x="975.5" y="-60.4" font-family="Noto Sans CJK SC" font-size="9.50">5B 处境生成</text>
<text text-anchor="middle" x="975.5" y="-50.4" font-family="Noto Sans CJK SC" font-size="9.50">仅计划时</text>
</g>
<!-- assemble&#45;&gt;sit -->
<g id="edge6" class="edge">
<title>assemble&#45;&gt;sit</title>
<path fill="none" stroke="#64748b" d="M890.17,-79.22C904.43,-75.63 919.12,-71.94 932.16,-68.65"/>
<polygon fill="#64748b" stroke="#64748b" points="933.07,-70.77 938.82,-66.98 931.96,-66.36 933.07,-70.77"/>
</g>
<!-- th -->
<g id="node8" class="node">
<title>th</title>
<path fill="#faf5ff" stroke="#9333ea" d="M1000,-194C1000,-194 951,-194 951,-194 945,-194 939,-188 939,-182 939,-182 939,-170 939,-170 939,-164 945,-158 951,-158 951,-158 1000,-158 1000,-158 1006,-158 1012,-164 1012,-170 1012,-170 1012,-182 1012,-182 1012,-188 1006,-194 1000,-194"/>
<text text-anchor="middle" x="975.5" y="-178.4" font-family="Noto Sans CJK SC" font-size="9.50">5C 思想生成</text>
<text text-anchor="middle" x="975.5" y="-168.4" font-family="Noto Sans CJK SC" font-size="9.50">仅计划时</text>
</g>
<!-- assemble&#45;&gt;th -->
<g id="edge7" class="edge">
<title>assemble&#45;&gt;th</title>
<path fill="none" stroke="#64748b" d="M857.76,-114.15C880.55,-126.22 910.55,-142.12 934.44,-154.78"/>
<polygon fill="#64748b" stroke="#64748b" points="933.56,-156.89 940.37,-157.92 935.69,-152.87 933.56,-156.89"/>
</g>
<!-- det -->
<g id="node9" class="node">
<title>det</title>
<path fill="#f8fafc" stroke="#64748b" d="M1215,-134C1215,-134 1061,-134 1061,-134 1055,-134 1049,-128 1049,-122 1049,-122 1049,-110 1049,-110 1049,-104 1055,-98 1061,-98 1061,-98 1215,-98 1215,-98 1221,-98 1227,-104 1227,-110 1227,-110 1227,-122 1227,-122 1227,-128 1221,-134 1215,-134"/>
<text text-anchor="middle" x="1138" y="-118.4" font-family="Noto Sans CJK SC" font-size="9.50">6 确定性校验</text>
<text text-anchor="middle" x="1138" y="-108.4" font-family="Noto Sans CJK SC" font-size="9.50">Schema / source / 日期 / 长度 / 重复</text>
</g>
<!-- bg&#45;&gt;det -->
<g id="edge8" class="edge">
<title>bg&#45;&gt;det</title>
<path fill="none" stroke="#64748b" d="M1012.12,-116.78C1021.3,-116.72 1031.62,-116.66 1042.29,-116.59"/>
<polygon fill="#64748b" stroke="#64748b" points="1042.49,-118.86 1048.97,-116.55 1042.46,-114.31 1042.49,-118.86"/>
</g>
<!-- sit&#45;&gt;det -->
<g id="edge9" class="edge">
<title>sit&#45;&gt;det</title>
<path fill="none" stroke="#64748b" d="M1012.12,-70.87C1032.3,-78.16 1057.99,-87.45 1080.82,-95.7"/>
<polygon fill="#64748b" stroke="#64748b" points="1080.29,-97.93 1087.18,-97.99 1081.84,-93.65 1080.29,-97.93"/>
</g>
<!-- th&#45;&gt;det -->
<g id="edge10" class="edge">
<title>th&#45;&gt;det</title>
<path fill="none" stroke="#64748b" d="M1012.12,-162.68C1032.81,-154.95 1059.29,-145.05 1082.55,-136.36"/>
<polygon fill="#64748b" stroke="#64748b" points="1083.4,-138.47 1088.7,-134.06 1081.81,-134.2 1083.4,-138.47"/>
</g>
<!-- sem -->
<g id="node10" class="node">
<title>sem</title>
<path fill="#f8fafc" stroke="#64748b" d="M1471,-134C1471,-134 1341,-134 1341,-134 1335,-134 1329,-128 1329,-122 1329,-122 1329,-110 1329,-110 1329,-104 1335,-98 1341,-98 1341,-98 1471,-98 1471,-98 1477,-98 1483,-104 1483,-110 1483,-110 1483,-122 1483,-122 1483,-128 1477,-134 1471,-134"/>
<text text-anchor="middle" x="1406" y="-118.4" font-family="Noto Sans CJK SC" font-size="9.50">7 语义校验</text>
<text text-anchor="middle" x="1406" y="-108.4" font-family="Noto Sans CJK SC" font-size="9.50">贴合原文 / 槽位分离 / 后见泄漏</text>
</g>
<!-- det&#45;&gt;sem -->
<g id="edge11" class="edge">
<title>det&#45;&gt;sem</title>
<path fill="none" stroke="#64748b" d="M1227.2,-116C1257.71,-116 1291.78,-116 1321.87,-116"/>
<polygon fill="#64748b" stroke="#64748b" points="1322.13,-118.28 1328.63,-116 1322.13,-113.73 1322.13,-118.28"/>
</g>
<!-- repair -->
<g id="node11" class="node">
<title>repair</title>
<path fill="#fef3c7" stroke="#d97706" d="M1643,-133C1643,-133 1553,-133 1553,-133 1547,-133 1541,-127 1541,-121 1541,-121 1541,-109 1541,-109 1541,-103 1547,-97 1553,-97 1553,-97 1643,-97 1643,-97 1649,-97 1655,-103 1655,-109 1655,-109 1655,-121 1655,-121 1655,-127 1649,-133 1643,-133"/>
<text text-anchor="middle" x="1598" y="-117.4" font-family="Noto Sans CJK SC" font-size="9.50">8 一次修复</text>
<text text-anchor="middle" x="1598" y="-107.4" font-family="Noto Sans CJK SC" font-size="9.50">仍失败则 unavailable</text>
</g>
<!-- sem&#45;&gt;repair -->
<g id="edge13" class="edge">
<title>sem&#45;&gt;repair</title>
<path fill="none" stroke="#64748b" d="M1483.19,-115.6C1500.08,-115.51 1517.8,-115.42 1534.09,-115.33"/>
<polygon fill="#64748b" stroke="#64748b" points="1534.49,-117.6 1540.98,-115.29 1534.47,-113.05 1534.49,-117.6"/>
<text text-anchor="middle" x="1512" y="-117.6" font-family="Noto Sans CJK SC" font-size="8.00">repair</text>
</g>
<!-- stream -->
<g id="node12" class="node">
<title>stream</title>
<path fill="#dcfce7" stroke="#16a34a" d="M1858,-94C1858,-94 1774,-94 1774,-94 1768,-94 1762,-88 1762,-82 1762,-82 1762,-70 1762,-70 1762,-64 1768,-58 1774,-58 1774,-58 1858,-58 1858,-58 1864,-58 1870,-64 1870,-70 1870,-70 1870,-82 1870,-82 1870,-88 1864,-94 1858,-94"/>
<text text-anchor="middle" x="1816" y="-78.4" font-family="Noto Sans CJK SC" font-size="9.50">9 语义块 SSE</text>
<text text-anchor="middle" x="1816" y="-68.4" font-family="Noto Sans CJK SC" font-size="9.50">block → committed</text>
</g>
<!-- sem&#45;&gt;stream -->
<g id="edge12" class="edge">
<title>sem&#45;&gt;stream</title>
<path fill="none" stroke="#64748b" d="M1456.54,-97.99C1481.5,-89.84 1512.46,-81.12 1541,-77 1614.18,-66.43 1699.5,-68.33 1755.25,-71.45"/>
<polygon fill="#64748b" stroke="#64748b" points="1755.27,-73.73 1761.9,-71.83 1755.54,-69.19 1755.27,-73.73"/>
<text text-anchor="middle" x="1598" y="-79.6" font-family="Noto Sans CJK SC" font-size="8.00">pass</text>
</g>
<!-- persist -->
<g id="node14" class="node">
<title>persist</title>
<path fill="#f8fafc" stroke="#64748b" d="M2059,-164C2059,-164 1919,-164 1919,-164 1913,-164 1907,-158 1907,-152 1907,-152 1907,-140 1907,-140 1907,-134 1913,-128 1919,-128 1919,-128 2059,-128 2059,-128 2065,-128 2071,-134 2071,-140 2071,-140 2071,-152 2071,-152 2071,-158 2065,-164 2059,-164"/>
<text text-anchor="middle" x="1989" y="-148.4" font-family="Noto Sans CJK SC" font-size="9.50">11 记录与缓存</text>
<text text-anchor="middle" x="1989" y="-138.4" font-family="Noto Sans CJK SC" font-size="9.50">GenerationRun / 动态缓存 / 指标</text>
</g>
<!-- sem&#45;&gt;persist -->
<g id="edge20" class="edge">
<title>sem&#45;&gt;persist</title>
<path fill="none" stroke="#64748b" stroke-dasharray="5,2" d="M1476.79,-134.02C1497.33,-138.52 1519.94,-142.72 1541,-145 1665.2,-158.43 1809.94,-155.36 1900.29,-151.24"/>
<polygon fill="#64748b" stroke="#64748b" points="1900.58,-153.5 1906.97,-150.93 1900.37,-148.96 1900.58,-153.5"/>
<text text-anchor="middle" x="1708.5" y="-156.6" font-family="Noto Sans CJK SC" font-size="8.00">unavailable / failed</text>
</g>
<!-- repair&#45;&gt;stream -->
<g id="edge14" class="edge">
<title>repair&#45;&gt;stream</title>
<path fill="none" stroke="#64748b" d="M1655.19,-104.86C1685.88,-99.31 1723.89,-92.45 1755.14,-86.81"/>
<polygon fill="#64748b" stroke="#64748b" points="1755.7,-89.02 1761.7,-85.62 1754.9,-84.54 1755.7,-89.02"/>
</g>
<!-- stream&#45;&gt;persist -->
<g id="edge19" class="edge">
<title>stream&#45;&gt;persist</title>
<path fill="none" stroke="#64748b" d="M1861.04,-94.03C1884.48,-103.62 1913.42,-115.47 1937.74,-125.42"/>
<polygon fill="#64748b" stroke="#64748b" points="1936.94,-127.56 1943.82,-127.91 1938.66,-123.34 1936.94,-127.56"/>
</g>
<!-- ui -->
<g id="node15" class="node">
<title>ui</title>
<path fill="#e2e8f0" stroke="#64748b" d="M2036,-94C2036,-94 1942,-94 1942,-94 1936,-94 1930,-88 1930,-82 1930,-82 1930,-70 1930,-70 1930,-64 1936,-58 1942,-58 1942,-58 2036,-58 2036,-58 2042,-58 2048,-64 2048,-70 2048,-70 2048,-82 2048,-82 2048,-88 2042,-94 2036,-94"/>
<text text-anchor="middle" x="1989" y="-78.4" font-family="Noto Sans CJK SC" font-size="9.50">固定界面槽位</text>
<text text-anchor="middle" x="1989" y="-68.4" font-family="Noto Sans CJK SC" font-size="9.50">旧内容保留，原子替换</text>
</g>
<!-- stream&#45;&gt;ui -->
<g id="edge18" class="edge">
<title>stream&#45;&gt;ui</title>
<path fill="none" stroke="#64748b" d="M1870.17,-76C1886.87,-76 1905.51,-76 1922.94,-76"/>
<polygon fill="#64748b" stroke="#64748b" points="1923.31,-78.28 1929.81,-76 1923.31,-73.73 1923.31,-78.28"/>
</g>
<!-- scene&#45;&gt;stream -->
<g id="edge17" class="edge">
<title>scene&#45;&gt;stream</title>
<path fill="none" stroke="#64748b" d="M902.15,-8.66C925.41,-6.59 950.95,-5 974.5,-5 974.5,-5 974.5,-5 1599,-5 1663.52,-5 1733.71,-33.95 1776.03,-54.87"/>
<polygon fill="#64748b" stroke="#64748b" points="1775.23,-57.02 1782.06,-57.9 1777.27,-52.95 1775.23,-57.02"/>
<text text-anchor="middle" x="1278" y="-7.6" font-family="Noto Sans CJK SC" font-size="8.00">scene.committed</text>
</g>
</g>
</svg>
