<?xml version="1.0" encoding="UTF-8" standalone="no"?>
<!DOCTYPE svg PUBLIC "-//W3C//DTD SVG 1.1//EN"
 "http://www.w3.org/Graphics/SVG/1.1/DTD/svg11.dtd">
<!-- Generated by graphviz version 2.42.4 (0)
 -->
<!-- Title: G Pages: 1 -->
<svg width="2020pt" height="391pt"
 viewBox="0.00 0.00 2020.40 391.40" xmlns="http://www.w3.org/2000/svg" xmlns:xlink="http://www.w3.org/1999/xlink">
<g id="graph0" class="graph" transform="scale(1 1) rotate(0) translate(25.2 366.2)">
<title>G</title>
<polygon fill="white" stroke="transparent" points="-25.2,25.2 -25.2,-366.2 1995.2,-366.2 1995.2,25.2 -25.2,25.2"/>
<text text-anchor="middle" x="985" y="-321" font-family="Noto Sans CJK SC" font-size="20.00">文本选中后的交互时序（概念图）</text>
<g id="clust1" class="cluster">
<title>cluster_actor</title>
<path fill="white" stroke="#cbd5e1" d="M177.5,-8C177.5,-8 540.5,-8 540.5,-8 546.5,-8 552.5,-14 552.5,-20 552.5,-20 552.5,-291 552.5,-291 552.5,-297 546.5,-303 540.5,-303 540.5,-303 177.5,-303 177.5,-303 171.5,-303 165.5,-297 165.5,-291 165.5,-291 165.5,-20 165.5,-20 165.5,-14 171.5,-8 177.5,-8"/>
<text text-anchor="middle" x="359" y="-283" font-family="Noto Sans CJK SC" font-size="20.00">参与者</text>
</g>
<!-- browser -->
<g id="node1" class="node">
<title>browser</title>
<path fill="#fffbeb" stroke="#b45309" d="M252,-265C252,-265 207,-265 207,-265 201,-265 195,-259 195,-253 195,-253 195,-241 195,-241 195,-235 201,-229 207,-229 207,-229 252,-229 252,-229 258,-229 264,-235 264,-241 264,-241 264,-253 264,-253 264,-259 258,-265 252,-265"/>
<text text-anchor="middle" x="229.5" y="-244.8" font-family="Noto Sans CJK SC" font-size="9.00">Reader Web</text>
</g>
<!-- bff -->
<g id="node2" class="node">
<title>bff</title>
<path fill="#dbeafe" stroke="#2563eb" d="M268,-194C268,-194 235,-194 235,-194 229,-194 223,-188 223,-182 223,-182 223,-170 223,-170 223,-164 229,-158 235,-158 235,-158 268,-158 268,-158 274,-158 280,-164 280,-170 280,-170 280,-182 280,-182 280,-188 274,-194 268,-194"/>
<text text-anchor="middle" x="251.5" y="-173.8" font-family="Noto Sans CJK SC" font-size="9.00">API / SSE</text>
</g>
<!-- browser&#45;&gt;bff -->
<g id="edge5" class="edge">
<title>browser&#45;&gt;bff</title>
<path fill="none" stroke="#64748b" d="M217.38,-228.63C214.11,-221.78 212.27,-213.91 215.5,-207 216.92,-203.96 218.82,-201.12 221.01,-198.5"/>
<polygon fill="#64748b" stroke="#64748b" points="222.64,-199.83 225.21,-194.01 219.58,-196.96 222.64,-199.83"/>
<text text-anchor="middle" x="233.5" y="-209.6" font-family="Noto Sans CJK SC" font-size="8.00">4 GET SSE</text>
</g>
<!-- s1 -->
<g id="node7" class="node">
<title>s1</title>
<polygon fill="#fffbeb" stroke="#64748b" points="696,-265 561,-265 561,-229 702,-229 702,-259 696,-265"/>
<polyline fill="none" stroke="#64748b" points="696,-265 696,-259 "/>
<polyline fill="none" stroke="#64748b" points="702,-259 696,-259 "/>
<text text-anchor="middle" x="631.5" y="-244.8" font-family="Noto Sans CJK SC" font-size="9.00">1. 用户选中文字，uiVersion=7</text>
</g>
<!-- browser&#45;&gt;s1 -->
<!-- bff&#45;&gt;browser -->
<g id="edge13" class="edge">
<title>bff&#45;&gt;browser</title>
<path fill="none" stroke="#64748b" d="M253.18,-194.07C253.32,-201.03 252.79,-209.05 250.5,-216 249.67,-218.51 248.56,-221 247.27,-223.41"/>
<polygon fill="#64748b" stroke="#64748b" points="245.3,-222.62 244.02,-228.85 248.9,-224.78 245.3,-222.62"/>
<text text-anchor="middle" x="258.5" y="-209.6" font-family="Noto Sans CJK SC" font-size="8.00">SSE</text>
</g>
<!-- orch -->
<g id="node3" class="node">
<title>orch</title>
<path fill="#fee2e2" stroke="#dc2626" d="M351.5,-123C351.5,-123 303.5,-123 303.5,-123 297.5,-123 291.5,-117 291.5,-111 291.5,-111 291.5,-99 291.5,-99 291.5,-93 297.5,-87 303.5,-87 303.5,-87 351.5,-87 351.5,-87 357.5,-87 363.5,-93 363.5,-99 363.5,-99 363.5,-111 363.5,-111 363.5,-117 357.5,-123 351.5,-123"/>
<text text-anchor="middle" x="327.5" y="-102.8" font-family="Noto Sans CJK SC" font-size="9.00">Orchestrator</text>
</g>
<!-- bff&#45;&gt;orch -->
<g id="edge6" class="edge">
<title>bff&#45;&gt;orch</title>
<path fill="none" stroke="#64748b" d="M280.23,-165.17C290.81,-160.41 302.23,-153.78 310.5,-145 314.83,-140.4 318.17,-134.53 320.69,-128.74"/>
<polygon fill="#64748b" stroke="#64748b" points="322.69,-129.38 322.94,-123.03 318.78,-127.84 322.69,-129.38"/>
<text text-anchor="middle" x="337.5" y="-138.6" font-family="Noto Sans CJK SC" font-size="8.00">启动工作流</text>
</g>
<!-- s3 -->
<g id="node9" class="node">
<title>s3</title>
<polygon fill="#f8fafc" stroke="#64748b" points="151,-123 0,-123 0,-87 157,-87 157,-117 151,-123"/>
<polyline fill="none" stroke="#64748b" points="151,-123 151,-117 "/>
<polyline fill="none" stroke="#64748b" points="157,-117 151,-117 "/>
<text text-anchor="middle" x="78.5" y="-102.8" font-family="Noto Sans CJK SC" font-size="9.00">3. 返回 interactionId 与 streamUrl</text>
</g>
<!-- bff&#45;&gt;s3 -->
<!-- orch&#45;&gt;bff -->
<g id="edge12" class="edge">
<title>orch&#45;&gt;bff</title>
<path fill="none" stroke="#64748b" d="M291.18,-110.76C275.65,-114.8 258.95,-122.25 249.5,-136 246.41,-140.5 245.46,-146.02 245.61,-151.49"/>
<polygon fill="#64748b" stroke="#64748b" points="243.56,-152.04 246.23,-157.8 247.74,-151.63 243.56,-152.04"/>
<text text-anchor="middle" x="278.5" y="-138.6" font-family="Noto Sans CJK SC" font-size="8.00">8 / 9 / 10 events</text>
</g>
<!-- ctx -->
<g id="node4" class="node">
<title>ctx</title>
<path fill="#e0f2fe" stroke="#0284c7" d="M356,-52C356,-52 295,-52 295,-52 289,-52 283,-46 283,-40 283,-40 283,-28 283,-28 283,-22 289,-16 295,-16 295,-16 356,-16 356,-16 362,-16 368,-22 368,-28 368,-28 368,-40 368,-40 368,-46 362,-52 356,-52"/>
<text text-anchor="middle" x="325.5" y="-31.8" font-family="Noto Sans CJK SC" font-size="9.00">Context Service</text>
</g>
<!-- orch&#45;&gt;ctx -->
<g id="edge8" class="edge">
<title>orch&#45;&gt;ctx</title>
<path fill="none" stroke="#64748b" d="M291.47,-90.49C284.7,-86.26 278.49,-80.85 274.5,-74 270.43,-67.02 272.76,-60.86 278.18,-55.62"/>
<polygon fill="#64748b" stroke="#64748b" points="279.56,-57.22 282.88,-51.8 276.9,-53.96 279.56,-57.22"/>
<text text-anchor="middle" x="293" y="-67.6" font-family="Noto Sans CJK SC" font-size="8.00">6 retrieval</text>
</g>
<!-- model -->
<g id="node5" class="node">
<title>model</title>
<path fill="#faf5ff" stroke="#9333ea" d="M481.5,-52C481.5,-52 423.5,-52 423.5,-52 417.5,-52 411.5,-46 411.5,-40 411.5,-40 411.5,-28 411.5,-28 411.5,-22 417.5,-16 423.5,-16 423.5,-16 481.5,-16 481.5,-16 487.5,-16 493.5,-22 493.5,-28 493.5,-28 493.5,-40 493.5,-40 493.5,-46 487.5,-52 481.5,-52"/>
<text text-anchor="middle" x="452.5" y="-31.8" font-family="Noto Sans CJK SC" font-size="9.00">Model Gateway</text>
</g>
<!-- orch&#45;&gt;model -->
<g id="edge10" class="edge">
<title>orch&#45;&gt;model</title>
<path fill="none" stroke="#64748b" d="M362.01,-86.91C370.1,-82.78 378.64,-78.31 386.5,-74 397.23,-68.11 408.77,-61.42 419.15,-55.26"/>
<polygon fill="#64748b" stroke="#64748b" points="420.38,-56.97 424.46,-52.1 418.23,-53.36 420.38,-56.97"/>
<text text-anchor="middle" x="431.5" y="-67.6" font-family="Noto Sans CJK SC" font-size="8.00">7 structured task</text>
</g>
<!-- store -->
<g id="node6" class="node">
<title>store</title>
<path fill="#f1f5f9" stroke="#64748b" d="M267.5,-48.73C267.5,-50.53 246.43,-52 220.5,-52 194.57,-52 173.5,-50.53 173.5,-48.73 173.5,-48.73 173.5,-19.27 173.5,-19.27 173.5,-17.47 194.57,-16 220.5,-16 246.43,-16 267.5,-17.47 267.5,-19.27 267.5,-19.27 267.5,-48.73 267.5,-48.73"/>
<path fill="none" stroke="#64748b" d="M267.5,-48.73C267.5,-46.92 246.43,-45.45 220.5,-45.45 194.57,-45.45 173.5,-46.92 173.5,-48.73"/>
<text text-anchor="middle" x="220.5" y="-31.8" font-family="Noto Sans CJK SC" font-size="9.00">Run Store / Cache</text>
</g>
<!-- orch&#45;&gt;store -->
<g id="edge14" class="edge">
<title>orch&#45;&gt;store</title>
<path fill="none" stroke="#64748b" d="M291.39,-95.53C256.54,-87.27 208.84,-75.71 207.5,-74 203.81,-69.27 203.94,-63.45 205.78,-57.76"/>
<polygon fill="#64748b" stroke="#64748b" points="207.75,-58.5 208.12,-52.16 203.87,-56.89 207.75,-58.5"/>
<text text-anchor="middle" x="238" y="-67.6" font-family="Noto Sans CJK SC" font-size="8.00">11 persist/cache</text>
</g>
<!-- s5 -->
<g id="node11" class="node">
<title>s5</title>
<polygon fill="#fee2e2" stroke="#64748b" points="754.5,-52 560.5,-52 560.5,-16 760.5,-16 760.5,-46 754.5,-52"/>
<polyline fill="none" stroke="#64748b" points="754.5,-52 754.5,-46 "/>
<polyline fill="none" stroke="#64748b" points="760.5,-46 754.5,-46 "/>
<text text-anchor="middle" x="660.5" y="-31.8" font-family="Noto Sans CJK SC" font-size="9.00">5. Planner：只更新 thought，背景/处境保持</text>
</g>
<!-- orch&#45;&gt;s5 -->
<!-- ctx&#45;&gt;orch -->
<g id="edge9" class="edge">
<title>ctx&#45;&gt;orch</title>
<path fill="none" stroke="#64748b" d="M326,-52.34C326.25,-60.94 326.56,-71.45 326.83,-80.75"/>
<polygon fill="#64748b" stroke="#64748b" points="324.73,-81.01 327.01,-86.94 328.93,-80.89 324.73,-81.01"/>
<text text-anchor="middle" x="355.5" y="-67.6" font-family="Noto Sans CJK SC" font-size="8.00">curated context</text>
</g>
<!-- model&#45;&gt;orch -->
<g id="edge11" class="edge">
<title>model&#45;&gt;orch</title>
<path fill="none" stroke="#64748b" d="M464.97,-52.23C468.65,-59.53 470.52,-67.78 465.5,-74 453.61,-88.75 405.78,-96.63 369.73,-100.55"/>
<polygon fill="#64748b" stroke="#64748b" points="369.35,-98.48 363.6,-101.19 369.79,-102.66 369.35,-98.48"/>
<text text-anchor="middle" x="499" y="-67.6" font-family="Noto Sans CJK SC" font-size="8.00">candidate JSON</text>
</g>
<!-- store&#45;&gt;bff -->
<g id="edge15" class="edge">
<title>store&#45;&gt;bff</title>
<path fill="none" stroke="#64748b" stroke-dasharray="5,2" d="M206.47,-52.19C202.66,-58.75 199.96,-66.47 201.5,-74 207.43,-102.91 223.73,-132.81 236.12,-152.5"/>
<polygon fill="#64748b" stroke="#64748b" points="234.49,-153.86 239.5,-157.77 238.03,-151.59 234.49,-153.86"/>
<text text-anchor="middle" x="250" y="-103.1" font-family="Noto Sans CJK SC" font-size="8.00">final result query</text>
</g>
<!-- s1&#45;&gt;bff -->
<g id="edge2" class="edge">
<title>s1&#45;&gt;bff</title>
<path fill="none" stroke="#64748b" d="M560.73,-230.05C558.97,-229.69 557.22,-229.34 555.5,-229 458.18,-209.81 342.52,-191.16 286.02,-182.32"/>
<polygon fill="#64748b" stroke="#64748b" points="286.34,-180.25 280.09,-181.39 285.69,-184.4 286.34,-180.25"/>
<text text-anchor="middle" x="483" y="-209.6" font-family="Noto Sans CJK SC" font-size="8.00">2</text>
</g>
<!-- s2 -->
<g id="node8" class="node">
<title>s2</title>
<polygon fill="#f8fafc" stroke="#64748b" points="891.5,-265 715.5,-265 715.5,-229 897.5,-229 897.5,-259 891.5,-265"/>
<polyline fill="none" stroke="#64748b" points="891.5,-265 891.5,-259 "/>
<polyline fill="none" stroke="#64748b" points="897.5,-259 891.5,-259 "/>
<text text-anchor="middle" x="806.5" y="-244.8" font-family="Noto Sans CJK SC" font-size="9.00">2. POST interaction + Idempotency&#45;Key</text>
</g>
<!-- s3&#45;&gt;browser -->
<g id="edge4" class="edge">
<title>s3&#45;&gt;browser</title>
<path fill="none" stroke="#64748b" d="M97.17,-123.31C124.76,-148.89 176.41,-196.78 206.37,-224.55"/>
<polygon fill="#64748b" stroke="#64748b" points="205.16,-226.29 210.98,-228.83 208.01,-223.21 205.16,-226.29"/>
<text text-anchor="middle" x="173" y="-174.1" font-family="Noto Sans CJK SC" font-size="8.00">3</text>
</g>
<!-- s4 -->
<g id="node10" class="node">
<title>s4</title>
<polygon fill="#f8fafc" stroke="#64748b" points="1016.5,-265 910.5,-265 910.5,-229 1022.5,-229 1022.5,-259 1016.5,-265"/>
<polyline fill="none" stroke="#64748b" points="1016.5,-265 1016.5,-259 "/>
<polyline fill="none" stroke="#64748b" points="1022.5,-259 1016.5,-259 "/>
<text text-anchor="middle" x="966.5" y="-244.8" font-family="Noto Sans CJK SC" font-size="9.00">4. 建立 SSE，accepted</text>
</g>
<!-- s6 -->
<g id="node12" class="node">
<title>s6</title>
<polygon fill="#e0f2fe" stroke="#64748b" points="1201.5,-265 1035.5,-265 1035.5,-229 1207.5,-229 1207.5,-259 1201.5,-265"/>
<polyline fill="none" stroke="#64748b" points="1201.5,-265 1201.5,-259 "/>
<polyline fill="none" stroke="#64748b" points="1207.5,-259 1201.5,-259 "/>
<text text-anchor="middle" x="1121.5" y="-244.8" font-family="Noto Sans CJK SC" font-size="9.00">6. 按时间策略检索正文与 ContextUnit</text>
</g>
<!-- s7 -->
<g id="node13" class="node">
<title>s7</title>
<polygon fill="#faf5ff" stroke="#64748b" points="1344.5,-265 1220.5,-265 1220.5,-229 1350.5,-229 1350.5,-259 1344.5,-265"/>
<polyline fill="none" stroke="#64748b" points="1344.5,-265 1344.5,-259 "/>
<polyline fill="none" stroke="#64748b" points="1350.5,-259 1344.5,-259 "/>
<text text-anchor="middle" x="1285.5" y="-244.8" font-family="Noto Sans CJK SC" font-size="9.00">7. 调用 thought 生成与校验</text>
</g>
<!-- s8 -->
<g id="node14" class="node">
<title>s8</title>
<polygon fill="#dcfce7" stroke="#64748b" points="1475.5,-265 1363.5,-265 1363.5,-229 1481.5,-229 1481.5,-259 1475.5,-265"/>
<polyline fill="none" stroke="#64748b" points="1475.5,-265 1475.5,-259 "/>
<polyline fill="none" stroke="#64748b" points="1481.5,-259 1475.5,-259 "/>
<text text-anchor="middle" x="1422.5" y="-244.8" font-family="Noto Sans CJK SC" font-size="9.00">8. slot.block：标题/摘要</text>
</g>
<!-- s9 -->
<g id="node15" class="node">
<title>s9</title>
<polygon fill="#dcfce7" stroke="#64748b" points="1642.5,-265 1494.5,-265 1494.5,-229 1648.5,-229 1648.5,-259 1642.5,-265"/>
<polyline fill="none" stroke="#64748b" points="1642.5,-265 1642.5,-259 "/>
<polyline fill="none" stroke="#64748b" points="1648.5,-259 1642.5,-259 "/>
<text text-anchor="middle" x="1571.5" y="-244.8" font-family="Noto Sans CJK SC" font-size="9.00">9. slot.committed：完整合法卡片</text>
</g>
<!-- s10 -->
<g id="node16" class="node">
<title>s10</title>
<polygon fill="#dcfce7" stroke="#64748b" points="1797.5,-265 1661.5,-265 1661.5,-229 1803.5,-229 1803.5,-259 1797.5,-265"/>
<polyline fill="none" stroke="#64748b" points="1797.5,-265 1797.5,-259 "/>
<polyline fill="none" stroke="#64748b" points="1803.5,-259 1797.5,-259 "/>
<text text-anchor="middle" x="1732.5" y="-244.8" font-family="Noto Sans CJK SC" font-size="9.00">10. scene.committed（可选）</text>
</g>
<!-- s11 -->
<g id="node17" class="node">
<title>s11</title>
<polygon fill="#f8fafc" stroke="#64748b" points="1964,-265 1817,-265 1817,-229 1970,-229 1970,-259 1964,-265"/>
<polyline fill="none" stroke="#64748b" points="1964,-265 1964,-259 "/>
<polyline fill="none" stroke="#64748b" points="1970,-259 1964,-259 "/>
<text text-anchor="middle" x="1893.5" y="-244.8" font-family="Noto Sans CJK SC" font-size="9.00">11. 保存 Run 与缓存，completed</text>
</g>
</g>
</svg>
