<?xml version="1.0" encoding="UTF-8" standalone="no"?>
<!DOCTYPE svg PUBLIC "-//W3C//DTD SVG 1.1//EN"
 "http://www.w3.org/Graphics/SVG/1.1/DTD/svg11.dtd">
<!-- Generated by graphviz version 2.42.4 (0)
 -->
<!-- Title: G Pages: 1 -->
<svg width="2109pt" height="364pt"
 viewBox="0.00 0.00 2109.40 364.40" xmlns="http://www.w3.org/2000/svg" xmlns:xlink="http://www.w3.org/1999/xlink">
<g id="graph0" class="graph" transform="scale(1 1) rotate(0) translate(25.2 339.2)">
<title>G</title>
<polygon fill="white" stroke="transparent" points="-25.2,25.2 -25.2,-339.2 2084.2,-339.2 2084.2,25.2 -25.2,25.2"/>
<text text-anchor="middle" x="1029.5" y="-294" font-family="Noto Sans CJK SC" font-size="20.00">内容生产、审核与发布流程</text>
<!-- import -->
<g id="node1" class="node">
<title>import</title>
<path fill="#fffbeb" stroke="#b45309" d="M87,-150C87,-150 12,-150 12,-150 6,-150 0,-144 0,-138 0,-138 0,-126 0,-126 0,-120 6,-114 12,-114 12,-114 87,-114 87,-114 93,-114 99,-120 99,-126 99,-126 99,-138 99,-138 99,-144 93,-150 87,-150"/>
<text text-anchor="middle" x="49.5" y="-129.4" font-family="Noto Sans CJK SC" font-size="9.50">导入选定版本正文</text>
</g>
<!-- para -->
<g id="node2" class="node">
<title>para</title>
<path fill="#f8fafc" stroke="#64748b" d="M251,-150C251,-150 148,-150 148,-150 142,-150 136,-144 136,-138 136,-138 136,-126 136,-126 136,-120 142,-114 148,-114 148,-114 251,-114 251,-114 257,-114 263,-120 263,-126 263,-126 263,-138 263,-138 263,-144 257,-150 251,-150"/>
<text text-anchor="middle" x="199.5" y="-129.4" font-family="Noto Sans CJK SC" font-size="9.50">校对 / 段落 ID / 正文哈希</text>
</g>
<!-- import&#45;&gt;para -->
<g id="edge1" class="edge">
<title>import&#45;&gt;para</title>
<path fill="none" stroke="#64748b" d="M99.37,-132C108.97,-132 119.21,-132 129.33,-132"/>
<polygon fill="#64748b" stroke="#64748b" points="129.46,-134.28 135.96,-132 129.46,-129.73 129.46,-134.28"/>
</g>
<!-- anchor -->
<g id="node3" class="node">
<title>anchor</title>
<path fill="#f8fafc" stroke="#64748b" d="M388,-150C388,-150 312,-150 312,-150 306,-150 300,-144 300,-138 300,-138 300,-126 300,-126 300,-120 306,-114 312,-114 312,-114 388,-114 388,-114 394,-114 400,-120 400,-126 400,-126 400,-138 400,-138 400,-144 394,-150 388,-150"/>
<text text-anchor="middle" x="350" y="-134.4" font-family="Noto Sans CJK SC" font-size="9.50">划分锚点</text>
<text text-anchor="middle" x="350" y="-124.4" font-family="Noto Sans CJK SC" font-size="9.50">AI 候选 + 人工确认</text>
</g>
<!-- para&#45;&gt;anchor -->
<g id="edge2" class="edge">
<title>para&#45;&gt;anchor</title>
<path fill="none" stroke="#64748b" d="M263.05,-132C272.97,-132 283.17,-132 292.93,-132"/>
<polygon fill="#64748b" stroke="#64748b" points="293.1,-134.28 299.6,-132 293.1,-129.73 293.1,-134.28"/>
</g>
<!-- frame -->
<g id="node4" class="node">
<title>frame</title>
<path fill="#f8fafc" stroke="#64748b" d="M543,-150C543,-150 449,-150 449,-150 443,-150 437,-144 437,-138 437,-138 437,-126 437,-126 437,-120 443,-114 449,-114 449,-114 543,-114 543,-114 549,-114 555,-120 555,-126 555,-126 555,-138 555,-138 555,-144 549,-150 543,-150"/>
<text text-anchor="middle" x="496" y="-129.4" font-family="Noto Sans CJK SC" font-size="9.50">文章级问题与时间骨架</text>
</g>
<!-- anchor&#45;&gt;frame -->
<g id="edge3" class="edge">
<title>anchor&#45;&gt;frame</title>
<path fill="none" stroke="#64748b" d="M400.15,-132C409.85,-132 420.15,-132 430.27,-132"/>
<polygon fill="#64748b" stroke="#64748b" points="430.38,-134.28 436.88,-132 430.38,-129.73 430.38,-134.28"/>
</g>
<!-- extract -->
<g id="node5" class="node">
<title>extract</title>
<path fill="#fee2e2" stroke="#dc2626" d="M731,-150C731,-150 604,-150 604,-150 598,-150 592,-144 592,-138 592,-138 592,-126 592,-126 592,-120 598,-114 604,-114 604,-114 731,-114 731,-114 737,-114 743,-120 743,-126 743,-126 743,-138 743,-138 743,-144 737,-150 731,-150"/>
<text text-anchor="middle" x="667.5" y="-134.4" font-family="Noto Sans CJK SC" font-size="9.50">AI 提取 ContextUnit 候选</text>
<text text-anchor="middle" x="667.5" y="-124.4" font-family="Noto Sans CJK SC" font-size="9.50">事件 / 约束 / 争论 / 选项 / 概念</text>
</g>
<!-- frame&#45;&gt;extract -->
<g id="edge4" class="edge">
<title>frame&#45;&gt;extract</title>
<path fill="none" stroke="#64748b" d="M555.33,-132C564.99,-132 575.17,-132 585.27,-132"/>
<polygon fill="#64748b" stroke="#64748b" points="585.39,-134.28 591.89,-132 585.39,-129.73 585.39,-134.28"/>
</g>
<!-- edit -->
<g id="node6" class="node">
<title>edit</title>
<path fill="#f0fdf4" stroke="#16a34a" d="M886,-150C886,-150 792,-150 792,-150 786,-150 780,-144 780,-138 780,-138 780,-126 780,-126 780,-120 786,-114 792,-114 792,-114 886,-114 886,-114 892,-114 898,-120 898,-126 898,-126 898,-138 898,-138 898,-144 892,-150 886,-150"/>
<text text-anchor="middle" x="839" y="-134.4" font-family="Noto Sans CJK SC" font-size="9.50">编辑确认、补充、拒绝</text>
<text text-anchor="middle" x="839" y="-124.4" font-family="Noto Sans CJK SC" font-size="9.50">登记来源与权利</text>
</g>
<!-- extract&#45;&gt;edit -->
<g id="edge5" class="edge">
<title>extract&#45;&gt;edit</title>
<path fill="none" stroke="#64748b" d="M743.34,-132C753.28,-132 763.41,-132 773.17,-132"/>
<polygon fill="#64748b" stroke="#64748b" points="773.35,-134.28 779.85,-132 773.35,-129.73 773.35,-134.28"/>
</g>
<!-- link -->
<g id="node7" class="node">
<title>link</title>
<path fill="#f8fafc" stroke="#64748b" d="M1066,-284C1066,-284 947,-284 947,-284 941,-284 935,-278 935,-272 935,-272 935,-260 935,-260 935,-254 941,-248 947,-248 947,-248 1066,-248 1066,-248 1072,-248 1078,-254 1078,-260 1078,-260 1078,-272 1078,-272 1078,-278 1072,-284 1066,-284"/>
<text text-anchor="middle" x="1006.5" y="-268.4" font-family="Noto Sans CJK SC" font-size="9.50">关联 Anchor ↔ ContextUnit</text>
<text text-anchor="middle" x="1006.5" y="-258.4" font-family="Noto Sans CJK SC" font-size="9.50">角色 / 相关度 / 槽位 / 场景</text>
</g>
<!-- edit&#45;&gt;link -->
<g id="edge6" class="edge">
<title>edit&#45;&gt;link</title>
<path fill="none" stroke="#64748b" d="M849.1,-150.05C861.38,-172.69 885.29,-211.28 916,-234 921.69,-238.21 927.98,-241.9 934.52,-245.14"/>
<polygon fill="#64748b" stroke="#64748b" points="933.73,-247.28 940.58,-247.99 935.66,-243.16 933.73,-247.28"/>
</g>
<!-- gap -->
<g id="node8" class="node">
<title>gap</title>
<path fill="#f8fafc" stroke="#64748b" d="M1192,-235C1192,-235 1127,-235 1127,-235 1121,-235 1115,-229 1115,-223 1115,-223 1115,-211 1115,-211 1115,-205 1121,-199 1127,-199 1127,-199 1192,-199 1192,-199 1198,-199 1204,-205 1204,-211 1204,-211 1204,-223 1204,-223 1204,-229 1198,-235 1192,-235"/>
<text text-anchor="middle" x="1159.5" y="-214.4" font-family="Noto Sans CJK SC" font-size="9.50">缺口检测与补充</text>
</g>
<!-- link&#45;&gt;gap -->
<g id="edge7" class="edge">
<title>link&#45;&gt;gap</title>
<path fill="none" stroke="#64748b" d="M1063.3,-247.89C1078.01,-243.12 1093.8,-237.99 1108.21,-233.32"/>
<polygon fill="#64748b" stroke="#64748b" points="1109.24,-235.38 1114.72,-231.21 1107.84,-231.05 1109.24,-235.38"/>
</g>
<!-- gap&#45;&gt;edit -->
<g id="edge14" class="edge">
<title>gap&#45;&gt;edit</title>
<path fill="none" stroke="#d97706" d="M1114.74,-215.01C1065.18,-211.61 982.65,-202.47 916,-178 899.91,-172.09 883.47,-162.65 870.01,-153.85"/>
<polygon fill="#d97706" stroke="#d97706" points="871.11,-151.84 864.44,-150.13 868.58,-155.63 871.11,-151.84"/>
<text text-anchor="middle" x="1006.5" y="-213.6" font-family="Noto Sans CJK SC" font-size="8.00">有阻塞缺口</text>
</g>
<!-- gen -->
<g id="node9" class="node">
<title>gen</title>
<path fill="#fee2e2" stroke="#dc2626" d="M1353,-234C1353,-234 1269,-234 1269,-234 1263,-234 1257,-228 1257,-222 1257,-222 1257,-210 1257,-210 1257,-204 1263,-198 1269,-198 1269,-198 1353,-198 1353,-198 1359,-198 1365,-204 1365,-210 1365,-210 1365,-222 1365,-222 1365,-228 1359,-234 1353,-234"/>
<text text-anchor="middle" x="1311" y="-218.4" font-family="Noto Sans CJK SC" font-size="9.50">批量生成锚点运行记录</text>
<text text-anchor="middle" x="1311" y="-208.4" font-family="Noto Sans CJK SC" font-size="9.50">Prompt + Workflow</text>
</g>
<!-- gap&#45;&gt;gen -->
<g id="edge8" class="edge">
<title>gap&#45;&gt;gen</title>
<path fill="none" stroke="#64748b" d="M1204.14,-216.71C1218.55,-216.61 1234.83,-216.5 1250.22,-216.4"/>
<polygon fill="#64748b" stroke="#64748b" points="1250.27,-218.67 1256.76,-216.36 1250.24,-214.12 1250.27,-218.67"/>
</g>
<!-- auto -->
<g id="node10" class="node">
<title>auto</title>
<path fill="#f8fafc" stroke="#64748b" d="M1530,-180C1530,-180 1414,-180 1414,-180 1408,-180 1402,-174 1402,-168 1402,-168 1402,-156 1402,-156 1402,-150 1408,-144 1414,-144 1414,-144 1530,-144 1530,-144 1536,-144 1542,-150 1542,-156 1542,-156 1542,-168 1542,-168 1542,-174 1536,-180 1530,-180"/>
<text text-anchor="middle" x="1472" y="-164.4" font-family="Noto Sans CJK SC" font-size="9.50">自动质量门禁</text>
<text text-anchor="middle" x="1472" y="-154.4" font-family="Noto Sans CJK SC" font-size="9.50">Schema / 来源 / 时间 / 重复</text>
</g>
<!-- gen&#45;&gt;auto -->
<g id="edge9" class="edge">
<title>gen&#45;&gt;auto</title>
<path fill="none" stroke="#64748b" d="M1365.39,-197.87C1380.15,-192.86 1396.26,-187.38 1411.35,-182.26"/>
<polygon fill="#64748b" stroke="#64748b" points="1412.33,-184.33 1417.75,-180.08 1410.87,-180.02 1412.33,-184.33"/>
</g>
<!-- auto&#45;&gt;edit -->
<g id="edge15" class="edge">
<title>auto&#45;&gt;edit</title>
<path fill="none" stroke="#dc2626" d="M1401.52,-158.7C1278.57,-152.85 1024.44,-140.77 904.87,-135.08"/>
<polygon fill="#dc2626" stroke="#dc2626" points="904.83,-132.8 898.23,-134.77 904.62,-137.35 904.83,-132.8"/>
<text text-anchor="middle" x="1159.5" y="-151.6" font-family="Noto Sans CJK SC" font-size="8.00">失败</text>
</g>
<!-- hist -->
<g id="node11" class="node">
<title>hist</title>
<path fill="#dbeafe" stroke="#2563eb" d="M1627,-130C1627,-130 1591,-130 1591,-130 1585,-130 1579,-124 1579,-118 1579,-118 1579,-106 1579,-106 1579,-100 1585,-94 1591,-94 1591,-94 1627,-94 1627,-94 1633,-94 1639,-100 1639,-106 1639,-106 1639,-118 1639,-118 1639,-124 1633,-130 1627,-130"/>
<text text-anchor="middle" x="1609" y="-109.4" font-family="Noto Sans CJK SC" font-size="9.50">历史审核</text>
</g>
<!-- auto&#45;&gt;hist -->
<g id="edge10" class="edge">
<title>auto&#45;&gt;hist</title>
<path fill="none" stroke="#64748b" d="M1521.74,-143.95C1538.52,-137.73 1556.99,-130.89 1572.52,-125.14"/>
<polygon fill="#64748b" stroke="#64748b" points="1573.67,-127.14 1578.98,-122.75 1572.09,-122.87 1573.67,-127.14"/>
</g>
<!-- hist&#45;&gt;edit -->
<g id="edge16" class="edge">
<title>hist&#45;&gt;edit</title>
<path fill="none" stroke="#dc2626" d="M1578.79,-109.95C1551.45,-108.21 1509.48,-106 1473,-106 1005.5,-106 1005.5,-106 1005.5,-106 971.97,-106 935.07,-111.27 904.64,-117.07"/>
<polygon fill="#dc2626" stroke="#dc2626" points="904.19,-114.84 898.24,-118.31 905.06,-119.31 904.19,-114.84"/>
<text text-anchor="middle" x="1230.5" y="-108.6" font-family="Noto Sans CJK SC" font-size="8.00">退回</text>
</g>
<!-- thought -->
<g id="node12" class="node">
<title>thought</title>
<path fill="#faf5ff" stroke="#9333ea" d="M1753,-78C1753,-78 1688,-78 1688,-78 1682,-78 1676,-72 1676,-66 1676,-66 1676,-54 1676,-54 1676,-48 1682,-42 1688,-42 1688,-42 1753,-42 1753,-42 1759,-42 1765,-48 1765,-54 1765,-54 1765,-66 1765,-66 1765,-72 1759,-78 1753,-78"/>
<text text-anchor="middle" x="1720.5" y="-57.4" font-family="Noto Sans CJK SC" font-size="9.50">思想与原文审核</text>
</g>
<!-- hist&#45;&gt;thought -->
<g id="edge11" class="edge">
<title>hist&#45;&gt;thought</title>
<path fill="none" stroke="#64748b" d="M1639.06,-98.2C1650.16,-92.93 1663.1,-86.79 1675.3,-80.99"/>
<polygon fill="#64748b" stroke="#64748b" points="1676.33,-83.02 1681.22,-78.18 1674.38,-78.91 1676.33,-83.02"/>
</g>
<!-- thought&#45;&gt;edit -->
<g id="edge17" class="edge">
<title>thought&#45;&gt;edit</title>
<path fill="none" stroke="#dc2626" d="M1675.81,-60C1655.76,-60 1631.67,-60 1610,-60 1005.5,-60 1005.5,-60 1005.5,-60 954.76,-60 902,-88.8 870.07,-109.98"/>
<polygon fill="#dc2626" stroke="#dc2626" points="868.47,-108.31 864.35,-113.83 871.02,-112.08 868.47,-108.31"/>
<text text-anchor="middle" x="1311" y="-62.6" font-family="Noto Sans CJK SC" font-size="8.00">退回</text>
</g>
<!-- publish -->
<g id="node13" class="node">
<title>publish</title>
<path fill="#dcfce7" stroke="#16a34a" d="M1903,-76C1903,-76 1814,-76 1814,-76 1808,-76 1802,-70 1802,-64 1802,-64 1802,-52 1802,-52 1802,-46 1808,-40 1814,-40 1814,-40 1903,-40 1903,-40 1909,-40 1915,-46 1915,-52 1915,-52 1915,-64 1915,-64 1915,-70 1909,-76 1903,-76"/>
<text text-anchor="middle" x="1858.5" y="-60.4" font-family="Noto Sans CJK SC" font-size="9.50">创建不可变 Release</text>
<text text-anchor="middle" x="1858.5" y="-50.4" font-family="Noto Sans CJK SC" font-size="9.50">预热缓存 → 原子发布</text>
</g>
<!-- thought&#45;&gt;publish -->
<g id="edge12" class="edge">
<title>thought&#45;&gt;publish</title>
<path fill="none" stroke="#64748b" d="M1765.28,-59.36C1774.83,-59.22 1785.12,-59.06 1795.24,-58.92"/>
<polygon fill="#64748b" stroke="#64748b" points="1795.39,-61.19 1801.86,-58.82 1795.32,-56.64 1795.39,-61.19"/>
</g>
<!-- feedback -->
<g id="node14" class="node">
<title>feedback</title>
<path fill="#e2e8f0" stroke="#64748b" d="M2047,-36C2047,-36 1964,-36 1964,-36 1958,-36 1952,-30 1952,-24 1952,-24 1952,-12 1952,-12 1952,-6 1958,0 1964,0 1964,0 2047,0 2047,0 2053,0 2059,-6 2059,-12 2059,-12 2059,-24 2059,-24 2059,-30 2053,-36 2047,-36"/>
<text text-anchor="middle" x="2005.5" y="-20.4" font-family="Noto Sans CJK SC" font-size="9.50">用户反馈 / 质量监控</text>
<text text-anchor="middle" x="2005.5" y="-10.4" font-family="Noto Sans CJK SC" font-size="9.50">进入修订闭环</text>
</g>
<!-- publish&#45;&gt;feedback -->
<g id="edge13" class="edge">
<title>publish&#45;&gt;feedback</title>
<path fill="none" stroke="#64748b" d="M1915.15,-42.65C1924.97,-39.94 1935.24,-37.11 1945.16,-34.37"/>
<polygon fill="#64748b" stroke="#64748b" points="1945.97,-36.51 1951.63,-32.59 1944.76,-32.12 1945.97,-36.51"/>
</g>
<!-- feedback&#45;&gt;edit -->
<g id="edge18" class="edge">
<title>feedback&#45;&gt;edit</title>
<path fill="none" stroke="#64748b" stroke-dasharray="5,2" d="M1951.93,-10.47C1924.45,-7.15 1890.23,-4 1859.5,-4 1005.5,-4 1005.5,-4 1005.5,-4 938.09,-4 881.45,-71.26 855.38,-108.27"/>
<polygon fill="#64748b" stroke="#64748b" points="853.29,-107.29 851.46,-113.93 857.03,-109.88 853.29,-107.29"/>
<text text-anchor="middle" x="1472" y="-6.6" font-family="Noto Sans CJK SC" font-size="8.00">新版本修订</text>
</g>
</g>
</svg>
