<?xml version="1.0" encoding="UTF-8" standalone="no"?>
<!DOCTYPE svg PUBLIC "-//W3C//DTD SVG 1.1//EN"
 "http://www.w3.org/Graphics/SVG/1.1/DTD/svg11.dtd">
<!-- Generated by graphviz version 2.42.4 (0)
 -->
<!-- Title: G Pages: 1 -->
<svg width="1760pt" height="573pt"
 viewBox="0.00 0.00 1760.40 572.90" xmlns="http://www.w3.org/2000/svg" xmlns:xlink="http://www.w3.org/1999/xlink">
<g id="graph0" class="graph" transform="scale(1 1) rotate(0) translate(25.2 547.7)">
<title>G</title>
<polygon fill="white" stroke="transparent" points="-25.2,25.2 -25.2,-547.7 1735.2,-547.7 1735.2,25.2 -25.2,25.2"/>
<text text-anchor="middle" x="855" y="-502.5" font-family="Noto Sans CJK SC" font-size="20.00">核心领域数据模型</text>
<!-- article -->
<g id="node1" class="node">
<title>article</title>
<polygon fill="#fffbeb" stroke="#b45309" points="0,-2 0,-40 121,-40 121,-2 0,-2"/>
<text text-anchor="middle" x="20" y="-19.04" font-family="Noto Sans CJK SC" font-size="8.70">Article</text>
<polyline fill="none" stroke="#b45309" points="40,-2 40,-40 "/>
<text text-anchor="start" x="47" y="-29.04" font-family="Noto Sans CJK SC" font-size="8.70">id</text>
<text text-anchor="start" x="47" y="-19.04" font-family="Noto Sans CJK SC" font-size="8.70">title</text>
<text text-anchor="start" x="47" y="-9.04" font-family="Noto Sans CJK SC" font-size="8.70">currentReleaseId</text>
</g>
<!-- av -->
<g id="node2" class="node">
<title>av</title>
<polygon fill="#f8fafc" stroke="#64748b" points="174,-149 174,-197 326,-197 326,-149 174,-149"/>
<text text-anchor="middle" x="208.5" y="-171.04" font-family="Noto Sans CJK SC" font-size="8.70">ArticleVersion</text>
<polyline fill="none" stroke="#64748b" points="243,-149 243,-197 "/>
<text text-anchor="start" x="250" y="-186.04" font-family="Noto Sans CJK SC" font-size="8.70">id</text>
<text text-anchor="start" x="250" y="-176.04" font-family="Noto Sans CJK SC" font-size="8.70">canonicalEdition</text>
<text text-anchor="start" x="250" y="-166.04" font-family="Noto Sans CJK SC" font-size="8.70">date/location</text>
<text text-anchor="start" x="250" y="-156.04" font-family="Noto Sans CJK SC" font-size="8.70">textHash</text>
</g>
<!-- article&#45;&gt;av -->
<g id="edge1" class="edge">
<title>article&#45;&gt;av</title>
<path fill="none" stroke="#64748b" d="M85.25,-40.25C117.88,-66.7 176.8,-114.47 214.35,-144.91"/>
<polygon fill="#64748b" stroke="#64748b" points="213.29,-146.75 219.27,-148.9 215.94,-143.49 213.29,-146.75"/>
<text text-anchor="middle" x="147.5" y="-95" font-family="Noto Sans CJK SC" font-size="7.50">1:N</text>
</g>
<!-- rel -->
<g id="node14" class="node">
<title>rel</title>
<polygon fill="#dcfce7" stroke="#16a34a" points="919,-95 919,-163 1056,-163 1056,-95 919,-95"/>
<text text-anchor="middle" x="941.5" y="-127.04" font-family="Noto Sans CJK SC" font-size="8.70">Release</text>
<polyline fill="none" stroke="#16a34a" points="964,-95 964,-163 "/>
<text text-anchor="start" x="971" y="-152.04" font-family="Noto Sans CJK SC" font-size="8.70">id</text>
<text text-anchor="start" x="971" y="-142.04" font-family="Noto Sans CJK SC" font-size="8.70">articleVersion</text>
<text text-anchor="start" x="971" y="-132.04" font-family="Noto Sans CJK SC" font-size="8.70">contextPackVersion</text>
<text text-anchor="start" x="971" y="-122.04" font-family="Noto Sans CJK SC" font-size="8.70">promptBundle</text>
<text text-anchor="start" x="971" y="-112.04" font-family="Noto Sans CJK SC" font-size="8.70">workflow</text>
<text text-anchor="start" x="971" y="-102.04" font-family="Noto Sans CJK SC" font-size="8.70">generationRunSet</text>
</g>
<!-- article&#45;&gt;rel -->
<g id="edge19" class="edge">
<title>article&#45;&gt;rel</title>
<path fill="none" stroke="#64748b" d="M121.26,-10.87C158,-5.5 206.09,0 249,0 249,0 249,0 779,0 848.09,0 913.26,-52.22 951.53,-90.21"/>
<polygon fill="#64748b" stroke="#64748b" points="950.35,-92 956.06,-94.77 953.32,-89.03 950.35,-92"/>
<text text-anchor="middle" x="453.5" y="-2" font-family="Noto Sans CJK SC" font-size="7.50">1:N</text>
</g>
<!-- p -->
<g id="node3" class="node">
<title>p</title>
<polygon fill="#f8fafc" stroke="#64748b" points="403.5,-154 403.5,-192 503.5,-192 503.5,-154 403.5,-154"/>
<text text-anchor="middle" x="432" y="-171.04" font-family="Noto Sans CJK SC" font-size="8.70">Paragraph</text>
<polyline fill="none" stroke="#64748b" points="460.5,-154 460.5,-192 "/>
<text text-anchor="start" x="467.5" y="-181.04" font-family="Noto Sans CJK SC" font-size="8.70">id</text>
<text text-anchor="start" x="467.5" y="-171.04" font-family="Noto Sans CJK SC" font-size="8.70">ordinal</text>
<text text-anchor="start" x="467.5" y="-161.04" font-family="Noto Sans CJK SC" font-size="8.70">text</text>
</g>
<!-- av&#45;&gt;p -->
<g id="edge2" class="edge">
<title>av&#45;&gt;p</title>
<path fill="none" stroke="#64748b" d="M326.03,-173C349.66,-173 375.31,-173 397.29,-173"/>
<polygon fill="#64748b" stroke="#64748b" points="397.39,-175.1 403.39,-173 397.39,-170.9 397.39,-175.1"/>
<text text-anchor="middle" x="352.5" y="-175" font-family="Noto Sans CJK SC" font-size="7.50">1:N</text>
</g>
<!-- a -->
<g id="node4" class="node">
<title>a</title>
<polygon fill="#f8fafc" stroke="#64748b" points="548,-406 548,-454 674,-454 674,-406 548,-406"/>
<text text-anchor="middle" x="570" y="-428.04" font-family="Noto Sans CJK SC" font-size="8.70">Anchor</text>
<polyline fill="none" stroke="#64748b" points="592,-406 592,-454 "/>
<text text-anchor="start" x="599" y="-443.04" font-family="Noto Sans CJK SC" font-size="8.70">id</text>
<text text-anchor="start" x="599" y="-433.04" font-family="Noto Sans CJK SC" font-size="8.70">paragraph range</text>
<text text-anchor="start" x="599" y="-423.04" font-family="Noto Sans CJK SC" font-size="8.70">coreQuestion</text>
<text text-anchor="start" x="599" y="-413.04" font-family="Noto Sans CJK SC" font-size="8.70">function</text>
</g>
<!-- av&#45;&gt;a -->
<g id="edge3" class="edge">
<title>av&#45;&gt;a</title>
<path fill="none" stroke="#64748b" d="M263.41,-197.3C283.19,-233.77 325.18,-302.69 379,-343 427.62,-379.41 493.21,-402.17 542.08,-415.24"/>
<polygon fill="#64748b" stroke="#64748b" points="541.62,-417.29 547.95,-416.78 542.69,-413.22 541.62,-417.29"/>
<text text-anchor="middle" x="352.5" y="-326" font-family="Noto Sans CJK SC" font-size="7.50">1:N</text>
</g>
<!-- cp -->
<g id="node5" class="node">
<title>cp</title>
<polygon fill="#dbeafe" stroke="#2563eb" points="379,-282 379,-330 528,-330 528,-282 379,-282"/>
<text text-anchor="middle" x="425.5" y="-304.04" font-family="Noto Sans CJK SC" font-size="8.70">ContextPackVersion</text>
<polyline fill="none" stroke="#2563eb" points="472,-282 472,-330 "/>
<text text-anchor="start" x="479" y="-319.04" font-family="Noto Sans CJK SC" font-size="8.70">id</text>
<text text-anchor="start" x="479" y="-309.04" font-family="Noto Sans CJK SC" font-size="8.70">version</text>
<text text-anchor="start" x="479" y="-299.04" font-family="Noto Sans CJK SC" font-size="8.70">cutoffDate</text>
<text text-anchor="start" x="479" y="-289.04" font-family="Noto Sans CJK SC" font-size="8.70">status</text>
</g>
<!-- av&#45;&gt;cp -->
<g id="edge4" class="edge">
<title>av&#45;&gt;cp</title>
<path fill="none" stroke="#64748b" d="M279.94,-197.05C305.22,-217.47 343.35,-246.9 379,-269 384.48,-272.4 390.32,-275.75 396.22,-278.97"/>
<polygon fill="#64748b" stroke="#64748b" points="395.36,-280.89 401.64,-281.88 397.35,-277.19 395.36,-280.89"/>
<text text-anchor="middle" x="352.5" y="-257" font-family="Noto Sans CJK SC" font-size="7.50">1:N</text>
</g>
<!-- av&#45;&gt;rel -->
<g id="edge14" class="edge">
<title>av&#45;&gt;rel</title>
<path fill="none" stroke="#64748b" d="M273.27,-148.99C296.88,-125.47 336.57,-91.14 379,-77 563.67,-15.44 796.51,-69.16 913.02,-104.3"/>
<polygon fill="#64748b" stroke="#64748b" points="912.47,-106.33 918.82,-106.06 913.69,-102.31 912.47,-106.33"/>
</g>
<!-- link -->
<g id="node7" class="node">
<title>link</title>
<polygon fill="#f8fafc" stroke="#64748b" points="918,-434 918,-492 1057,-492 1057,-434 918,-434"/>
<text text-anchor="middle" x="948.5" y="-461.04" font-family="Noto Sans CJK SC" font-size="8.70">ContextLink</text>
<polyline fill="none" stroke="#64748b" points="979,-434 979,-492 "/>
<text text-anchor="start" x="986" y="-481.04" font-family="Noto Sans CJK SC" font-size="8.70">anchorId</text>
<text text-anchor="start" x="986" y="-471.04" font-family="Noto Sans CJK SC" font-size="8.70">unitId</text>
<text text-anchor="start" x="986" y="-461.04" font-family="Noto Sans CJK SC" font-size="8.70">role</text>
<text text-anchor="start" x="986" y="-451.04" font-family="Noto Sans CJK SC" font-size="8.70">relevance</text>
<text text-anchor="start" x="986" y="-441.04" font-family="Noto Sans CJK SC" font-size="8.70">slot/scene hints</text>
</g>
<!-- a&#45;&gt;link -->
<g id="edge6" class="edge">
<title>a&#45;&gt;link</title>
<path fill="none" stroke="#64748b" d="M674.26,-435.49C739.47,-441.23 841.91,-450.26 911.52,-456.39"/>
<polygon fill="#64748b" stroke="#64748b" points="911.57,-458.51 917.73,-456.94 911.94,-454.32 911.57,-458.51"/>
<text text-anchor="middle" x="778" y="-453" font-family="Noto Sans CJK SC" font-size="7.50">1:N</text>
</g>
<!-- cu -->
<g id="node6" class="node">
<title>cu</title>
<polygon fill="#f8fafc" stroke="#64748b" points="705,-344 705,-402 851,-402 851,-344 705,-344"/>
<text text-anchor="middle" x="735.5" y="-371.04" font-family="Noto Sans CJK SC" font-size="8.70">ContextUnit</text>
<polyline fill="none" stroke="#64748b" points="766,-344 766,-402 "/>
<text text-anchor="start" x="773" y="-391.04" font-family="Noto Sans CJK SC" font-size="8.70">id</text>
<text text-anchor="start" x="773" y="-381.04" font-family="Noto Sans CJK SC" font-size="8.70">type</text>
<text text-anchor="start" x="773" y="-371.04" font-family="Noto Sans CJK SC" font-size="8.70">time/knownAt</text>
<text text-anchor="start" x="773" y="-361.04" font-family="Noto Sans CJK SC" font-size="8.70">factInterpretation</text>
<text text-anchor="start" x="773" y="-351.04" font-family="Noto Sans CJK SC" font-size="8.70">status</text>
</g>
<!-- cp&#45;&gt;cu -->
<g id="edge5" class="edge">
<title>cp&#45;&gt;cu</title>
<path fill="none" stroke="#64748b" d="M528.08,-321.29C579.1,-331.89 646.94,-345.98 698.91,-356.78"/>
<polygon fill="#64748b" stroke="#64748b" points="698.54,-358.84 704.84,-358.01 699.4,-354.73 698.54,-358.84"/>
<text text-anchor="middle" x="611" y="-353" font-family="Noto Sans CJK SC" font-size="7.50">1:N</text>
</g>
<!-- set -->
<g id="node12" class="node">
<title>set</title>
<polygon fill="#f8fafc" stroke="#64748b" points="694,-208 694,-256 862,-256 862,-208 694,-208"/>
<text text-anchor="middle" x="727" y="-230.04" font-family="Noto Sans CJK SC" font-size="8.70">GenerationRunSet</text>
<polyline fill="none" stroke="#64748b" points="760,-208 760,-256 "/>
<text text-anchor="start" x="767" y="-245.04" font-family="Noto Sans CJK SC" font-size="8.70">id</text>
<text text-anchor="start" x="767" y="-235.04" font-family="Noto Sans CJK SC" font-size="8.70">contextPackVersion</text>
<text text-anchor="start" x="767" y="-225.04" font-family="Noto Sans CJK SC" font-size="8.70">promptBundleVersion</text>
<text text-anchor="start" x="767" y="-215.04" font-family="Noto Sans CJK SC" font-size="8.70">qualityReport</text>
</g>
<!-- cp&#45;&gt;set -->
<g id="edge10" class="edge">
<title>cp&#45;&gt;set</title>
<path fill="none" stroke="#64748b" d="M528.04,-282.39C534.76,-280.47 541.49,-278.64 548,-277 593.77,-265.44 645.32,-255.08 687.9,-247.22"/>
<polygon fill="#64748b" stroke="#64748b" points="688.33,-249.28 693.85,-246.13 687.57,-245.15 688.33,-249.28"/>
<text text-anchor="middle" x="611" y="-279" font-family="Noto Sans CJK SC" font-size="7.50">1:N</text>
</g>
<!-- cp&#45;&gt;rel -->
<g id="edge15" class="edge">
<title>cp&#45;&gt;rel</title>
<path fill="none" stroke="#64748b" d="M528.13,-307.46C610.91,-307.24 748.58,-301.26 862,-269 878.25,-264.38 884.68,-264.54 896,-252 912.86,-233.31 902.31,-220.13 916,-199 923.24,-187.83 932.52,-177.03 941.96,-167.4"/>
<polygon fill="#64748b" stroke="#64748b" points="943.54,-168.78 946.29,-163.05 940.57,-165.81 943.54,-168.78"/>
</g>
<!-- cu&#45;&gt;link -->
<g id="edge7" class="edge">
<title>cu&#45;&gt;link</title>
<path fill="none" stroke="#64748b" d="M846.08,-402.1C867.7,-411.47 891.74,-421.9 913.75,-431.44"/>
<polygon fill="#64748b" stroke="#64748b" points="912.95,-433.39 919.29,-433.85 914.62,-429.54 912.95,-433.39"/>
<text text-anchor="middle" x="889" y="-425" font-family="Noto Sans CJK SC" font-size="7.50">1:N</text>
</g>
<!-- src -->
<g id="node8" class="node">
<title>src</title>
<polygon fill="#f8fafc" stroke="#64748b" points="929.5,-360 929.5,-408 1045.5,-408 1045.5,-360 929.5,-360"/>
<text text-anchor="middle" x="950.5" y="-382.04" font-family="Noto Sans CJK SC" font-size="8.70">Source</text>
<polyline fill="none" stroke="#64748b" points="971.5,-360 971.5,-408 "/>
<text text-anchor="start" x="978.5" y="-397.04" font-family="Noto Sans CJK SC" font-size="8.70">id</text>
<text text-anchor="start" x="978.5" y="-387.04" font-family="Noto Sans CJK SC" font-size="8.70">type</text>
<text text-anchor="start" x="978.5" y="-377.04" font-family="Noto Sans CJK SC" font-size="8.70">reliability</text>
<text text-anchor="start" x="978.5" y="-367.04" font-family="Noto Sans CJK SC" font-size="8.70">rights/visibility</text>
</g>
<!-- cu&#45;&gt;src -->
<g id="edge8" class="edge">
<title>cu&#45;&gt;src</title>
<path fill="none" stroke="#64748b" d="M851.28,-376.83C874.69,-378.07 900.45,-379.44 923.16,-380.64"/>
<polygon fill="#64748b" stroke="#64748b" points="923.07,-382.74 929.17,-380.96 923.29,-378.55 923.07,-382.74"/>
<text text-anchor="middle" x="889" y="-381" font-family="Noto Sans CJK SC" font-size="7.50">N:M</text>
</g>
<!-- ent -->
<g id="node9" class="node">
<title>ent</title>
<polygon fill="#f8fafc" stroke="#64748b" points="916,-296 916,-334 1059,-334 1059,-296 916,-296"/>
<text text-anchor="middle" x="950" y="-313.04" font-family="Noto Sans CJK SC" font-size="8.70">Entity / Place</text>
<polyline fill="none" stroke="#64748b" points="984,-296 984,-334 "/>
<text text-anchor="start" x="991" y="-323.04" font-family="Noto Sans CJK SC" font-size="8.70">id</text>
<text text-anchor="start" x="991" y="-313.04" font-family="Noto Sans CJK SC" font-size="8.70">type/name</text>
<text text-anchor="start" x="991" y="-303.04" font-family="Noto Sans CJK SC" font-size="8.70">state/geometry</text>
</g>
<!-- cu&#45;&gt;ent -->
<g id="edge9" class="edge">
<title>cu&#45;&gt;ent</title>
<path fill="none" stroke="#64748b" d="M851.28,-352.8C871.08,-347.26 892.57,-341.25 912.47,-335.69"/>
<polygon fill="#64748b" stroke="#64748b" points="913.1,-337.7 918.31,-334.06 911.97,-333.65 913.1,-337.7"/>
<text text-anchor="middle" x="889" y="-346" font-family="Noto Sans CJK SC" font-size="7.50">N:M</text>
</g>
<!-- bundle -->
<g id="node10" class="node">
<title>bundle</title>
<polygon fill="#fee2e2" stroke="#dc2626" points="386,-90 386,-128 521,-128 521,-90 386,-90"/>
<text text-anchor="middle" x="422.5" y="-107.04" font-family="Noto Sans CJK SC" font-size="8.70">PromptBundle</text>
<polyline fill="none" stroke="#dc2626" points="459,-90 459,-128 "/>
<text text-anchor="start" x="466" y="-117.04" font-family="Noto Sans CJK SC" font-size="8.70">id</text>
<text text-anchor="start" x="466" y="-107.04" font-family="Noto Sans CJK SC" font-size="8.70">version</text>
<text text-anchor="start" x="466" y="-97.04" font-family="Noto Sans CJK SC" font-size="8.70">promptMap</text>
</g>
<!-- bundle&#45;&gt;set -->
<g id="edge11" class="edge">
<title>bundle&#45;&gt;set</title>
<path fill="none" stroke="#64748b" d="M504.54,-128.08C559.13,-148.9 646.87,-182.37 707.98,-205.68"/>
<polygon fill="#64748b" stroke="#64748b" points="707.46,-207.72 713.81,-207.9 708.95,-203.8 707.46,-207.72"/>
</g>
<!-- bundle&#45;&gt;rel -->
<g id="edge16" class="edge">
<title>bundle&#45;&gt;rel</title>
<path fill="none" stroke="#64748b" d="M521.07,-111.5C620.85,-115.25 808.53,-122.31 912.49,-126.22"/>
<polygon fill="#64748b" stroke="#64748b" points="912.52,-128.32 918.6,-126.45 912.68,-124.12 912.52,-128.32"/>
</g>
<!-- wf -->
<g id="node11" class="node">
<title>wf</title>
<polygon fill="#fee2e2" stroke="#dc2626" points="386.5,-218 386.5,-256 520.5,-256 520.5,-218 386.5,-218"/>
<text text-anchor="middle" x="427" y="-235.04" font-family="Noto Sans CJK SC" font-size="8.70">WorkflowVersion</text>
<polyline fill="none" stroke="#dc2626" points="467.5,-218 467.5,-256 "/>
<text text-anchor="start" x="474.5" y="-245.04" font-family="Noto Sans CJK SC" font-size="8.70">id</text>
<text text-anchor="start" x="474.5" y="-235.04" font-family="Noto Sans CJK SC" font-size="8.70">version</text>
<text text-anchor="start" x="474.5" y="-225.04" font-family="Noto Sans CJK SC" font-size="8.70">definition</text>
</g>
<!-- wf&#45;&gt;set -->
<g id="edge12" class="edge">
<title>wf&#45;&gt;set</title>
<path fill="none" stroke="#64748b" d="M520.54,-235.98C568.81,-235.23 634.8,-234.2 687.75,-233.38"/>
<polygon fill="#64748b" stroke="#64748b" points="687.85,-235.48 693.82,-233.29 687.79,-231.28 687.85,-235.48"/>
</g>
<!-- wf&#45;&gt;rel -->
<g id="edge17" class="edge">
<title>wf&#45;&gt;rel</title>
<path fill="none" stroke="#64748b" d="M520.53,-223.59C620.26,-203.35 808.66,-165.1 912.75,-143.97"/>
<polygon fill="#64748b" stroke="#64748b" points="913.4,-145.98 918.86,-142.73 912.57,-141.87 913.4,-145.98"/>
</g>
<!-- snap -->
<g id="node13" class="node">
<title>snap</title>
<polygon fill="#f0fdf4" stroke="#16a34a" points="928,-212 928,-270 1047,-270 1047,-212 928,-212"/>
<text text-anchor="middle" x="954.5" y="-239.04" font-family="Noto Sans CJK SC" font-size="8.70">GenerationRun</text>
<polyline fill="none" stroke="#16a34a" points="981,-212 981,-270 "/>
<text text-anchor="start" x="988" y="-259.04" font-family="Noto Sans CJK SC" font-size="8.70">anchorId</text>
<text text-anchor="start" x="988" y="-249.04" font-family="Noto Sans CJK SC" font-size="8.70">mode</text>
<text text-anchor="start" x="988" y="-239.04" font-family="Noto Sans CJK SC" font-size="8.70">cards</text>
<text text-anchor="start" x="988" y="-229.04" font-family="Noto Sans CJK SC" font-size="8.70">scene</text>
<text text-anchor="start" x="988" y="-219.04" font-family="Noto Sans CJK SC" font-size="8.70">contentHash</text>
</g>
<!-- set&#45;&gt;snap -->
<g id="edge13" class="edge">
<title>set&#45;&gt;snap</title>
<path fill="none" stroke="#64748b" d="M862.2,-235.61C881.96,-236.47 902.74,-237.37 921.55,-238.18"/>
<polygon fill="#64748b" stroke="#64748b" points="921.76,-240.29 927.84,-238.46 921.94,-236.1 921.76,-240.29"/>
<text text-anchor="middle" x="889" y="-240" font-family="Noto Sans CJK SC" font-size="7.50">1:N</text>
</g>
<!-- set&#45;&gt;rel -->
<g id="edge18" class="edge">
<title>set&#45;&gt;rel</title>
<path fill="none" stroke="#64748b" d="M837.61,-207.96C856.46,-199.83 877.3,-190.41 896,-181 905.07,-176.44 914.5,-171.38 923.7,-166.27"/>
<polygon fill="#64748b" stroke="#64748b" points="924.87,-168.02 929.09,-163.25 922.82,-164.35 924.87,-168.02"/>
</g>
<!-- sess -->
<g id="node15" class="node">
<title>sess</title>
<polygon fill="#f8fafc" stroke="#64748b" points="1112,-105 1112,-153 1260,-153 1260,-105 1112,-105"/>
<text text-anchor="middle" x="1151" y="-127.04" font-family="Noto Sans CJK SC" font-size="8.70">ReadingSession</text>
<polyline fill="none" stroke="#64748b" points="1190,-105 1190,-153 "/>
<text text-anchor="start" x="1197" y="-142.04" font-family="Noto Sans CJK SC" font-size="8.70">id</text>
<text text-anchor="start" x="1197" y="-132.04" font-family="Noto Sans CJK SC" font-size="8.70">releaseId</text>
<text text-anchor="start" x="1197" y="-122.04" font-family="Noto Sans CJK SC" font-size="8.70">anchor/mode</text>
<text text-anchor="start" x="1197" y="-112.04" font-family="Noto Sans CJK SC" font-size="8.70">uiVersion</text>
</g>
<!-- rel&#45;&gt;sess -->
<g id="edge20" class="edge">
<title>rel&#45;&gt;sess</title>
<path fill="none" stroke="#64748b" d="M1056.12,-129C1072.14,-129 1089.37,-129 1105.84,-129"/>
<polygon fill="#64748b" stroke="#64748b" points="1105.88,-131.1 1111.88,-129 1105.88,-126.9 1105.88,-131.1"/>
<text text-anchor="middle" x="1085.5" y="-131" font-family="Noto Sans CJK SC" font-size="7.50">1:N</text>
</g>
<!-- inter -->
<g id="node16" class="node">
<title>inter</title>
<polygon fill="#f8fafc" stroke="#64748b" points="1313,-105 1313,-153 1507,-153 1507,-105 1313,-105"/>
<text text-anchor="middle" x="1353.5" y="-127.04" font-family="Noto Sans CJK SC" font-size="8.70">InteractionEvent</text>
<polyline fill="none" stroke="#64748b" points="1394,-105 1394,-153 "/>
<text text-anchor="start" x="1401" y="-142.04" font-family="Noto Sans CJK SC" font-size="8.70">id</text>
<text text-anchor="start" x="1401" y="-132.04" font-family="Noto Sans CJK SC" font-size="8.70">eventType</text>
<text text-anchor="start" x="1401" y="-122.04" font-family="Noto Sans CJK SC" font-size="8.70">selection/entity/question</text>
<text text-anchor="start" x="1401" y="-112.04" font-family="Noto Sans CJK SC" font-size="8.70">status</text>
</g>
<!-- sess&#45;&gt;inter -->
<g id="edge21" class="edge">
<title>sess&#45;&gt;inter</title>
<path fill="none" stroke="#64748b" d="M1260.31,-129C1275.14,-129 1290.98,-129 1306.6,-129"/>
<polygon fill="#64748b" stroke="#64748b" points="1306.81,-131.1 1312.81,-129 1306.81,-126.9 1306.81,-131.1"/>
<text text-anchor="middle" x="1286.5" y="-131" font-family="Noto Sans CJK SC" font-size="7.50">1:N</text>
</g>
<!-- run -->
<g id="node17" class="node">
<title>run</title>
<polygon fill="#f8fafc" stroke="#64748b" points="1560,-137 1560,-195 1710,-195 1710,-137 1560,-137"/>
<text text-anchor="middle" x="1597" y="-164.04" font-family="Noto Sans CJK SC" font-size="8.70">GenerationRun</text>
<polyline fill="none" stroke="#64748b" points="1634,-137 1634,-195 "/>
<text text-anchor="start" x="1641" y="-184.04" font-family="Noto Sans CJK SC" font-size="8.70">id</text>
<text text-anchor="start" x="1641" y="-174.04" font-family="Noto Sans CJK SC" font-size="8.70">versions</text>
<text text-anchor="start" x="1641" y="-164.04" font-family="Noto Sans CJK SC" font-size="8.70">retrieved IDs</text>
<text text-anchor="start" x="1641" y="-154.04" font-family="Noto Sans CJK SC" font-size="8.70">validation</text>
<text text-anchor="start" x="1641" y="-144.04" font-family="Noto Sans CJK SC" font-size="8.70">output/timings</text>
</g>
<!-- inter&#45;&gt;run -->
<g id="edge22" class="edge">
<title>inter&#45;&gt;run</title>
<path fill="none" stroke="#64748b" d="M1507.19,-144.96C1522.8,-147.55 1538.82,-150.21 1553.99,-152.72"/>
<polygon fill="#64748b" stroke="#64748b" points="1553.72,-154.81 1559.98,-153.72 1554.41,-150.67 1553.72,-154.81"/>
<text text-anchor="middle" x="1533.5" y="-152" font-family="Noto Sans CJK SC" font-size="7.50">1:N</text>
</g>
<!-- fb -->
<g id="node18" class="node">
<title>fb</title>
<polygon fill="#f8fafc" stroke="#64748b" points="1584,-73 1584,-111 1686,-111 1686,-73 1584,-73"/>
<text text-anchor="middle" x="1610.5" y="-90.04" font-family="Noto Sans CJK SC" font-size="8.70">Feedback</text>
<polyline fill="none" stroke="#64748b" points="1637,-73 1637,-111 "/>
<text text-anchor="start" x="1644" y="-100.04" font-family="Noto Sans CJK SC" font-size="8.70">target</text>
<text text-anchor="start" x="1644" y="-90.04" font-family="Noto Sans CJK SC" font-size="8.70">category</text>
<text text-anchor="start" x="1644" y="-80.04" font-family="Noto Sans CJK SC" font-size="8.70">status</text>
</g>
<!-- inter&#45;&gt;fb -->
<g id="edge23" class="edge">
<title>inter&#45;&gt;fb</title>
<path fill="none" stroke="#64748b" d="M1507.19,-113.04C1531.33,-109.04 1556.44,-104.87 1577.88,-101.31"/>
<polygon fill="#64748b" stroke="#64748b" points="1578.26,-103.38 1583.83,-100.32 1577.57,-99.23 1578.26,-103.38"/>
<text text-anchor="middle" x="1533.5" y="-112" font-family="Noto Sans CJK SC" font-size="7.50">0:N</text>
</g>
</g>
</svg>
