<?xml version="1.0" encoding="UTF-8" standalone="no"?>
<!DOCTYPE svg PUBLIC "-//W3C//DTD SVG 1.1//EN"
 "http://www.w3.org/Graphics/SVG/1.1/DTD/svg11.dtd">
<!-- Generated by graphviz version 2.42.4 (0)
 -->
<!-- Title: G Pages: 1 -->
<svg width="927pt" height="744pt"
 viewBox="0.00 0.00 926.90 744.40" xmlns="http://www.w3.org/2000/svg" xmlns:xlink="http://www.w3.org/1999/xlink">
<g id="graph0" class="graph" transform="scale(1 1) rotate(0) translate(25.2 719.2)">
<title>G</title>
<polygon fill="white" stroke="transparent" points="-25.2,25.2 -25.2,-719.2 901.7,-719.2 901.7,25.2 -25.2,25.2"/>
<text text-anchor="middle" x="438.25" y="-674" font-family="Noto Sans CJK SC" font-size="20.00">生产部署拓扑</text>
<g id="clust1" class="cluster">
<title>cluster_compute</title>
<path fill="white" stroke="#cbd5e1" d="M483,-72C483,-72 703,-72 703,-72 709,-72 715,-78 715,-84 715,-84 715,-380 715,-380 715,-386 709,-392 703,-392 703,-392 483,-392 483,-392 477,-392 471,-386 471,-380 471,-380 471,-84 471,-84 471,-78 477,-72 483,-72"/>
<text text-anchor="middle" x="593" y="-372" font-family="Noto Sans CJK SC" font-size="20.00">应用计算</text>
</g>
<g id="clust2" class="cluster">
<title>cluster_data</title>
<path fill="white" stroke="#cbd5e1" d="M20,-68C20,-68 451,-68 451,-68 457,-68 463,-74 463,-80 463,-80 463,-146 463,-146 463,-152 457,-158 451,-158 451,-158 20,-158 20,-158 14,-158 8,-152 8,-146 8,-146 8,-80 8,-80 8,-74 14,-68 20,-68"/>
<text text-anchor="middle" x="235.5" y="-138" font-family="Noto Sans CJK SC" font-size="20.00">数据</text>
</g>
<!-- users -->
<g id="node1" class="node">
<title>users</title>
<ellipse fill="#fffbeb" stroke="#b45309" cx="590" cy="-646" rx="67.68" ry="18"/>
<text text-anchor="middle" x="590" y="-643.4" font-family="Noto Sans CJK SC" font-size="9.50">阅读用户 / 内容团队</text>
</g>
<!-- cdn -->
<g id="node2" class="node">
<title>cdn</title>
<path fill="#e2e8f0" stroke="#64748b" d="M632,-588C632,-588 548,-588 548,-588 542,-588 536,-582 536,-576 536,-576 536,-564 536,-564 536,-558 542,-552 548,-552 548,-552 632,-552 632,-552 638,-552 644,-558 644,-564 644,-564 644,-576 644,-576 644,-582 638,-588 632,-588"/>
<text text-anchor="middle" x="590" y="-572.4" font-family="Noto Sans CJK SC" font-size="9.50">CDN / WAF / TLS</text>
<text text-anchor="middle" x="590" y="-562.4" font-family="Noto Sans CJK SC" font-size="9.50">静态缓存 + 基础防护</text>
</g>
<!-- users&#45;&gt;cdn -->
<g id="edge1" class="edge">
<title>users&#45;&gt;cdn</title>
<path fill="none" stroke="#64748b" d="M590,-627.84C590,-618.03 590,-605.58 590,-594.84"/>
<polygon fill="#64748b" stroke="#64748b" points="592.28,-594.57 590,-588.07 587.73,-594.57 592.28,-594.57"/>
</g>
<!-- web -->
<g id="node3" class="node">
<title>web</title>
<path fill="#dbeafe" stroke="#2563eb" d="M649.5,-512C649.5,-512 530.5,-512 530.5,-512 524.5,-512 518.5,-506 518.5,-500 518.5,-500 518.5,-488 518.5,-488 518.5,-482 524.5,-476 530.5,-476 530.5,-476 649.5,-476 649.5,-476 655.5,-476 661.5,-482 661.5,-488 661.5,-488 661.5,-500 661.5,-500 661.5,-506 655.5,-512 649.5,-512"/>
<text text-anchor="middle" x="590" y="-496.4" font-family="Noto Sans CJK SC" font-size="9.50">Reader Web / Admin Studio</text>
<text text-anchor="middle" x="590" y="-486.4" font-family="Noto Sans CJK SC" font-size="9.50">静态前端或 SSR</text>
</g>
<!-- cdn&#45;&gt;web -->
<g id="edge2" class="edge">
<title>cdn&#45;&gt;web</title>
<path fill="none" stroke="#64748b" d="M590,-551.84C590,-542.03 590,-529.58 590,-518.84"/>
<polygon fill="#64748b" stroke="#64748b" points="592.28,-518.57 590,-512.07 587.73,-518.57 592.28,-518.57"/>
</g>
<!-- lb -->
<g id="node4" class="node">
<title>lb</title>
<path fill="#dbeafe" stroke="#2563eb" d="M652,-436C652,-436 528,-436 528,-436 522,-436 516,-430 516,-424 516,-424 516,-412 516,-412 516,-406 522,-400 528,-400 528,-400 652,-400 652,-400 658,-400 664,-406 664,-412 664,-412 664,-424 664,-424 664,-430 658,-436 652,-436"/>
<text text-anchor="middle" x="590" y="-420.4" font-family="Noto Sans CJK SC" font-size="9.50">Load Balancer / API Gateway</text>
<text text-anchor="middle" x="590" y="-410.4" font-family="Noto Sans CJK SC" font-size="9.50">SSE 长连接支持</text>
</g>
<!-- web&#45;&gt;lb -->
<g id="edge3" class="edge">
<title>web&#45;&gt;lb</title>
<path fill="none" stroke="#64748b" d="M590,-475.84C590,-466.03 590,-453.58 590,-442.84"/>
<polygon fill="#64748b" stroke="#64748b" points="592.28,-442.57 590,-436.07 587.73,-442.57 592.28,-442.57"/>
</g>
<!-- api1 -->
<g id="node5" class="node">
<title>api1</title>
<path fill="#f8fafc" stroke="#64748b" d="M565,-354C565,-354 491,-354 491,-354 485,-354 479,-348 479,-342 479,-342 479,-330 479,-330 479,-324 485,-318 491,-318 491,-318 565,-318 565,-318 571,-318 577,-324 577,-330 577,-330 577,-342 577,-342 577,-348 571,-354 565,-354"/>
<text text-anchor="middle" x="528" y="-338.4" font-family="Noto Sans CJK SC" font-size="9.50">API App Replica 1</text>
<text text-anchor="middle" x="528" y="-328.4" font-family="Noto Sans CJK SC" font-size="9.50">模块化单体</text>
</g>
<!-- lb&#45;&gt;api1 -->
<g id="edge4" class="edge">
<title>lb&#45;&gt;api1</title>
<path fill="none" stroke="#64748b" d="M576.55,-399.64C567.39,-387.82 555.17,-372.06 545.29,-359.31"/>
<polygon fill="#64748b" stroke="#64748b" points="546.99,-357.79 541.21,-354.05 543.4,-360.58 546.99,-357.79"/>
</g>
<!-- api2 -->
<g id="node6" class="node">
<title>api2</title>
<path fill="#f8fafc" stroke="#64748b" d="M689.5,-354C689.5,-354 614.5,-354 614.5,-354 608.5,-354 602.5,-348 602.5,-342 602.5,-342 602.5,-330 602.5,-330 602.5,-324 608.5,-318 614.5,-318 614.5,-318 689.5,-318 689.5,-318 695.5,-318 701.5,-324 701.5,-330 701.5,-330 701.5,-342 701.5,-342 701.5,-348 695.5,-354 689.5,-354"/>
<text text-anchor="middle" x="652" y="-338.4" font-family="Noto Sans CJK SC" font-size="9.50">API App Replica N</text>
<text text-anchor="middle" x="652" y="-328.4" font-family="Noto Sans CJK SC" font-size="9.50">模块化单体</text>
</g>
<!-- lb&#45;&gt;api2 -->
<g id="edge5" class="edge">
<title>lb&#45;&gt;api2</title>
<path fill="none" stroke="#64748b" d="M603.45,-399.64C612.61,-387.82 624.83,-372.06 634.71,-359.31"/>
<polygon fill="#64748b" stroke="#64748b" points="636.6,-360.58 638.79,-354.05 633.01,-357.79 636.6,-360.58"/>
</g>
<!-- queue -->
<g id="node7" class="node">
<title>queue</title>
<path fill="#faf5ff" stroke="#9333ea" d="M639.5,-278C639.5,-278 546.5,-278 546.5,-278 540.5,-278 534.5,-272 534.5,-266 534.5,-266 534.5,-254 534.5,-254 534.5,-248 540.5,-242 546.5,-242 546.5,-242 639.5,-242 639.5,-242 645.5,-242 651.5,-248 651.5,-254 651.5,-254 651.5,-266 651.5,-266 651.5,-272 645.5,-278 639.5,-278"/>
<text text-anchor="middle" x="593" y="-262.4" font-family="Noto Sans CJK SC" font-size="9.50">任务队列</text>
<text text-anchor="middle" x="593" y="-252.4" font-family="Noto Sans CJK SC" font-size="9.50">在线优先 / 离线批处理</text>
</g>
<!-- api1&#45;&gt;queue -->
<g id="edge6" class="edge">
<title>api1&#45;&gt;queue</title>
<path fill="none" stroke="#64748b" d="M543.08,-317.84C552.18,-307.47 563.88,-294.15 573.66,-283.02"/>
<polygon fill="#64748b" stroke="#64748b" points="575.43,-284.45 578.01,-278.07 572.01,-281.45 575.43,-284.45"/>
</g>
<!-- pg -->
<g id="node11" class="node">
<title>pg</title>
<path fill="#e0f2fe" stroke="#0284c7" d="M454.5,-116C454.5,-118.21 426.93,-120 393,-120 359.07,-120 331.5,-118.21 331.5,-116 331.5,-116 331.5,-80 331.5,-80 331.5,-77.79 359.07,-76 393,-76 426.93,-76 454.5,-77.79 454.5,-80 454.5,-80 454.5,-116 454.5,-116"/>
<path fill="none" stroke="#0284c7" d="M454.5,-116C454.5,-113.79 426.93,-112 393,-112 359.07,-112 331.5,-113.79 331.5,-116"/>
<text text-anchor="middle" x="393" y="-100.4" font-family="Noto Sans CJK SC" font-size="9.50">PostgreSQL HA</text>
<text text-anchor="middle" x="393" y="-90.4" font-family="Noto Sans CJK SC" font-size="9.50">内容 / 版本 / 运行 / 审计</text>
</g>
<!-- api1&#45;&gt;pg -->
<g id="edge12" class="edge">
<title>api1&#45;&gt;pg</title>
<path fill="none" stroke="#64748b" d="M478.82,-319.63C458.16,-310.71 435.76,-297.32 422,-278 389.76,-232.74 388.19,-164.8 390.33,-126.96"/>
<polygon fill="#64748b" stroke="#64748b" points="392.61,-126.9 390.76,-120.26 388.07,-126.6 392.61,-126.9"/>
</g>
<!-- redis -->
<g id="node12" class="node">
<title>redis</title>
<path fill="#fee2e2" stroke="#dc2626" d="M306.5,-116C306.5,-118.21 278.93,-120 245,-120 211.07,-120 183.5,-118.21 183.5,-116 183.5,-116 183.5,-80 183.5,-80 183.5,-77.79 211.07,-76 245,-76 278.93,-76 306.5,-77.79 306.5,-80 306.5,-80 306.5,-116 306.5,-116"/>
<path fill="none" stroke="#dc2626" d="M306.5,-116C306.5,-113.79 278.93,-112 245,-112 211.07,-112 183.5,-113.79 183.5,-116"/>
<text text-anchor="middle" x="245" y="-100.4" font-family="Noto Sans CJK SC" font-size="9.50">Redis HA</text>
<text text-anchor="middle" x="245" y="-90.4" font-family="Noto Sans CJK SC" font-size="9.50">运行记录 / 会话 / 幂等 / 状态</text>
</g>
<!-- api1&#45;&gt;redis -->
<g id="edge16" class="edge">
<title>api1&#45;&gt;redis</title>
<path fill="none" stroke="#64748b" d="M479,-319.24C453.66,-309.69 423.09,-295.87 399,-278 340.09,-234.3 288.3,-164.24 262.45,-126.02"/>
<polygon fill="#64748b" stroke="#64748b" points="264.04,-124.3 258.53,-120.17 260.26,-126.84 264.04,-124.3"/>
</g>
<!-- obj -->
<g id="node13" class="node">
<title>obj</title>
<path fill="#f1f5f9" stroke="#64748b" d="M158,-116C158,-118.21 126.18,-120 87,-120 47.82,-120 16,-118.21 16,-116 16,-116 16,-80 16,-80 16,-77.79 47.82,-76 87,-76 126.18,-76 158,-77.79 158,-80 158,-80 158,-116 158,-116"/>
<path fill="none" stroke="#64748b" d="M158,-116C158,-113.79 126.18,-112 87,-112 47.82,-112 16,-113.79 16,-116"/>
<text text-anchor="middle" x="87" y="-100.4" font-family="Noto Sans CJK SC" font-size="9.50">Object Storage + Versioning</text>
<text text-anchor="middle" x="87" y="-90.4" font-family="Noto Sans CJK SC" font-size="9.50">导入 / 资产 / 备份</text>
</g>
<!-- api1&#45;&gt;obj -->
<g id="edge20" class="edge">
<title>api1&#45;&gt;obj</title>
<path fill="none" stroke="#64748b" d="M478.96,-322.52C443.59,-312.65 395.19,-297.32 355,-278 267.01,-235.7 251.85,-212.73 171,-158 154.7,-146.97 136.83,-134.47 121.78,-123.83"/>
<polygon fill="#64748b" stroke="#64748b" points="122.99,-121.9 116.37,-120 120.36,-125.61 122.99,-121.9"/>
</g>
<!-- obs -->
<g id="node15" class="node">
<title>obs</title>
<path fill="#f1f5f9" stroke="#64748b" d="M876.5,-112.73C876.5,-114.53 842.21,-116 800,-116 757.79,-116 723.5,-114.53 723.5,-112.73 723.5,-112.73 723.5,-83.27 723.5,-83.27 723.5,-81.47 757.79,-80 800,-80 842.21,-80 876.5,-81.47 876.5,-83.27 876.5,-83.27 876.5,-112.73 876.5,-112.73"/>
<path fill="none" stroke="#64748b" d="M876.5,-112.73C876.5,-110.92 842.21,-109.45 800,-109.45 757.79,-109.45 723.5,-110.92 723.5,-112.73"/>
<text text-anchor="middle" x="800" y="-95.4" font-family="Noto Sans CJK SC" font-size="9.50">Logs / Metrics / Traces / Alerts</text>
</g>
<!-- api1&#45;&gt;obs -->
<g id="edge21" class="edge">
<title>api1&#45;&gt;obs</title>
<path fill="none" stroke="#64748b" d="M577.22,-321.33C604.62,-312.09 638.29,-297.91 664,-278 721.17,-233.72 766.83,-159.77 787.69,-122.3"/>
<polygon fill="#64748b" stroke="#64748b" points="789.92,-122.96 791.06,-116.17 785.93,-120.77 789.92,-122.96"/>
</g>
<!-- api2&#45;&gt;queue -->
<g id="edge7" class="edge">
<title>api2&#45;&gt;queue</title>
<path fill="none" stroke="#64748b" d="M638.32,-317.84C630.12,-307.56 619.62,-294.39 610.79,-283.32"/>
<polygon fill="#64748b" stroke="#64748b" points="612.44,-281.73 606.61,-278.07 608.88,-284.57 612.44,-281.73"/>
</g>
<!-- api2&#45;&gt;pg -->
<g id="edge13" class="edge">
<title>api2&#45;&gt;pg</title>
<path fill="none" stroke="#64748b" d="M602.3,-320.24C576.52,-310.93 545.59,-297.03 522,-278 468.51,-234.85 426.64,-164.27 406.37,-125.9"/>
<polygon fill="#64748b" stroke="#64748b" points="408.33,-124.73 403.3,-120.02 404.3,-126.84 408.33,-124.73"/>
</g>
<!-- api2&#45;&gt;redis -->
<g id="edge17" class="edge">
<title>api2&#45;&gt;redis</title>
<path fill="none" stroke="#64748b" d="M602.19,-320.55C559.19,-307.72 500.66,-289.3 479,-278 400.19,-236.88 389.31,-212.38 319,-158 304.89,-147.09 289.43,-134.81 276.31,-124.3"/>
<polygon fill="#64748b" stroke="#64748b" points="277.72,-122.51 271.22,-120.22 274.87,-126.06 277.72,-122.51"/>
</g>
<!-- api2&#45;&gt;obs -->
<g id="edge22" class="edge">
<title>api2&#45;&gt;obs</title>
<path fill="none" stroke="#64748b" d="M701.75,-321.07C724.32,-312.27 749.41,-298.58 765,-278 799.96,-231.86 802.84,-160.34 801.63,-123.21"/>
<polygon fill="#64748b" stroke="#64748b" points="803.88,-122.66 801.34,-116.26 799.33,-122.85 803.88,-122.66"/>
</g>
<!-- aiw -->
<g id="node8" class="node">
<title>aiw</title>
<path fill="#fee2e2" stroke="#dc2626" d="M694.5,-202C694.5,-202 631.5,-202 631.5,-202 625.5,-202 619.5,-196 619.5,-190 619.5,-190 619.5,-178 619.5,-178 619.5,-172 625.5,-166 631.5,-166 631.5,-166 694.5,-166 694.5,-166 700.5,-166 706.5,-172 706.5,-178 706.5,-178 706.5,-190 706.5,-190 706.5,-196 700.5,-202 694.5,-202"/>
<text text-anchor="middle" x="663" y="-181.4" font-family="Noto Sans CJK SC" font-size="9.50">AI Worker Pool</text>
</g>
<!-- queue&#45;&gt;aiw -->
<g id="edge8" class="edge">
<title>queue&#45;&gt;aiw</title>
<path fill="none" stroke="#64748b" d="M609.24,-241.84C619.04,-231.47 631.64,-218.15 642.17,-207.02"/>
<polygon fill="#64748b" stroke="#64748b" points="644.04,-208.36 646.85,-202.07 640.73,-205.23 644.04,-208.36"/>
</g>
<!-- cw -->
<g id="node9" class="node">
<title>cw</title>
<path fill="#f0fdf4" stroke="#16a34a" d="M582.5,-202C582.5,-202 491.5,-202 491.5,-202 485.5,-202 479.5,-196 479.5,-190 479.5,-190 479.5,-178 479.5,-178 479.5,-172 485.5,-166 491.5,-166 491.5,-166 582.5,-166 582.5,-166 588.5,-166 594.5,-172 594.5,-178 594.5,-178 594.5,-190 594.5,-190 594.5,-196 588.5,-202 582.5,-202"/>
<text text-anchor="middle" x="537" y="-181.4" font-family="Noto Sans CJK SC" font-size="9.50">Content Worker Pool</text>
</g>
<!-- queue&#45;&gt;cw -->
<g id="edge9" class="edge">
<title>queue&#45;&gt;cw</title>
<path fill="none" stroke="#64748b" d="M580.01,-241.84C572.24,-231.56 562.27,-218.39 553.89,-207.32"/>
<polygon fill="#64748b" stroke="#64748b" points="555.65,-205.88 549.92,-202.07 552.03,-208.63 555.65,-205.88"/>
</g>
<!-- mg -->
<g id="node10" class="node">
<title>mg</title>
<path fill="#fee2e2" stroke="#dc2626" d="M686,-116C686,-116 614,-116 614,-116 608,-116 602,-110 602,-104 602,-104 602,-92 602,-92 602,-86 608,-80 614,-80 614,-80 686,-80 686,-80 692,-80 698,-86 698,-92 698,-92 698,-104 698,-104 698,-110 692,-116 686,-116"/>
<text text-anchor="middle" x="650" y="-100.4" font-family="Noto Sans CJK SC" font-size="9.50">Model Gateway</text>
<text text-anchor="middle" x="650" y="-90.4" font-family="Noto Sans CJK SC" font-size="9.50">熔断 / 路由 / 成本</text>
</g>
<!-- aiw&#45;&gt;mg -->
<g id="edge10" class="edge">
<title>aiw&#45;&gt;mg</title>
<path fill="none" stroke="#64748b" d="M660.31,-165.6C658.39,-153.24 655.8,-136.49 653.7,-122.88"/>
<polygon fill="#64748b" stroke="#64748b" points="655.89,-122.17 652.65,-116.1 651.39,-122.87 655.89,-122.17"/>
</g>
<!-- aiw&#45;&gt;pg -->
<g id="edge14" class="edge">
<title>aiw&#45;&gt;pg</title>
<path fill="none" stroke="#64748b" d="M619.22,-168.63C615.12,-167.61 611,-166.71 607,-166 575.88,-160.48 494.45,-169.47 465,-158 446.79,-150.91 429.71,-137.35 416.77,-125.01"/>
<polygon fill="#64748b" stroke="#64748b" points="418.07,-123.11 411.84,-120.19 414.89,-126.36 418.07,-123.11"/>
</g>
<!-- aiw&#45;&gt;redis -->
<g id="edge18" class="edge">
<title>aiw&#45;&gt;redis</title>
<path fill="none" stroke="#64748b" d="M619.24,-168.51C615.14,-167.52 611.01,-166.65 607,-166 575.4,-160.86 349.07,-168.99 319,-158 300.03,-151.07 282.22,-137.19 268.83,-124.64"/>
<polygon fill="#64748b" stroke="#64748b" points="270.36,-122.96 264.1,-120.09 267.21,-126.23 270.36,-122.96"/>
</g>
<!-- aiw&#45;&gt;obs -->
<g id="edge23" class="edge">
<title>aiw&#45;&gt;obs</title>
<path fill="none" stroke="#64748b" d="M704.94,-165.89C710.1,-163.41 715.23,-160.76 720,-158 739.03,-147 758.92,-132.34 774.11,-120.39"/>
<polygon fill="#64748b" stroke="#64748b" points="775.81,-121.94 779.49,-116.12 772.98,-118.38 775.81,-121.94"/>
</g>
<!-- cw&#45;&gt;pg -->
<g id="edge15" class="edge">
<title>cw&#45;&gt;pg</title>
<path fill="none" stroke="#64748b" d="M481.48,-165.97C475.79,-163.57 470.2,-160.91 465,-158 448.69,-148.87 432.42,-135.95 419.49,-124.52"/>
<polygon fill="#64748b" stroke="#64748b" points="420.88,-122.71 414.52,-120.07 417.84,-126.1 420.88,-122.71"/>
</g>
<!-- cw&#45;&gt;obj -->
<g id="edge19" class="edge">
<title>cw&#45;&gt;obj</title>
<path fill="none" stroke="#64748b" d="M479.18,-182.82C390.7,-181.9 226.16,-177.53 171,-158 150.32,-150.68 130.11,-136.76 114.7,-124.28"/>
<polygon fill="#64748b" stroke="#64748b" points="116.12,-122.5 109.66,-120.11 113.22,-126.01 116.12,-122.5"/>
</g>
<!-- cw&#45;&gt;obs -->
<g id="edge24" class="edge">
<title>cw&#45;&gt;obs</title>
<path fill="none" stroke="#64748b" d="M594.53,-168.22C598.73,-167.39 602.92,-166.63 607,-166 631.87,-162.13 696.38,-166.7 720,-158 741.97,-149.9 763.12,-133.82 778.15,-120.49"/>
<polygon fill="#64748b" stroke="#64748b" points="779.72,-122.14 783.01,-116.09 776.66,-118.77 779.72,-122.14"/>
</g>
<!-- llm -->
<g id="node14" class="node">
<title>llm</title>
<path fill="#fee2e2" stroke="#dc2626" d="M687.5,-36C687.5,-36 612.5,-36 612.5,-36 606.5,-36 600.5,-30 600.5,-24 600.5,-24 600.5,-12 600.5,-12 600.5,-6 606.5,0 612.5,0 612.5,0 687.5,0 687.5,0 693.5,0 699.5,-6 699.5,-12 699.5,-12 699.5,-24 699.5,-24 699.5,-30 693.5,-36 687.5,-36"/>
<text text-anchor="middle" x="650" y="-15.4" font-family="Noto Sans CJK SC" font-size="9.50">外部或自托管模型</text>
</g>
<!-- mg&#45;&gt;llm -->
<g id="edge11" class="edge">
<title>mg&#45;&gt;llm</title>
<path fill="none" stroke="#64748b" d="M650,-79.69C650,-68.88 650,-54.82 650,-42.95"/>
<polygon fill="#64748b" stroke="#64748b" points="652.28,-42.76 650,-36.26 647.73,-42.76 652.28,-42.76"/>
</g>
<!-- backup -->
<g id="node16" class="node">
<title>backup</title>
<path fill="#f1f5f9" stroke="#64748b" d="M298.5,-32.73C298.5,-34.53 272.28,-36 240,-36 207.72,-36 181.5,-34.53 181.5,-32.73 181.5,-32.73 181.5,-3.27 181.5,-3.27 181.5,-1.47 207.72,0 240,0 272.28,0 298.5,-1.47 298.5,-3.27 298.5,-3.27 298.5,-32.73 298.5,-32.73"/>
<path fill="none" stroke="#64748b" d="M298.5,-32.73C298.5,-30.92 272.28,-29.45 240,-29.45 207.72,-29.45 181.5,-30.92 181.5,-32.73"/>
<text text-anchor="middle" x="240" y="-15.4" font-family="Noto Sans CJK SC" font-size="9.50">备份 / 不可变审计归档</text>
</g>
<!-- pg&#45;&gt;backup -->
<g id="edge25" class="edge">
<title>pg&#45;&gt;backup</title>
<path fill="none" stroke="#64748b" d="M352.4,-76.3C329.73,-64.74 301.61,-50.41 279.17,-38.97"/>
<polygon fill="#64748b" stroke="#64748b" points="280.13,-36.9 273.3,-35.98 278.06,-40.96 280.13,-36.9"/>
</g>
<!-- obj&#45;&gt;backup -->
<g id="edge26" class="edge">
<title>obj&#45;&gt;backup</title>
<path fill="none" stroke="#64748b" d="M128,-76.1C150.59,-64.58 178.49,-50.36 200.78,-38.99"/>
<polygon fill="#64748b" stroke="#64748b" points="201.86,-41 206.62,-36.02 199.8,-36.94 201.86,-41"/>
</g>
</g>
</svg>
