<?xml version="1.0" encoding="UTF-8" standalone="no"?>
<!DOCTYPE svg PUBLIC "-//W3C//DTD SVG 1.1//EN"
 "http://www.w3.org/Graphics/SVG/1.1/DTD/svg11.dtd">
<!-- Generated by graphviz version 2.42.4 (0)
 -->
<!-- Title: G Pages: 1 -->
<svg width="1564pt" height="807pt"
 viewBox="0.00 0.00 1563.95 807.40" xmlns="http://www.w3.org/2000/svg" xmlns:xlink="http://www.w3.org/1999/xlink">
<g id="graph0" class="graph" transform="scale(1 1) rotate(0) translate(25.2 782.2)">
<title>G</title>
<polygon fill="white" stroke="transparent" points="-25.2,25.2 -25.2,-782.2 1538.75,-782.2 1538.75,25.2 -25.2,25.2"/>
<text text-anchor="middle" x="756.78" y="-737" font-family="Noto Sans CJK SC" font-size="20.00">交互与槽位状态机</text>
<!-- idle -->
<g id="node1" class="node">
<title>idle</title>
<ellipse fill="#dcfce7" stroke="#16a34a" cx="41.01" cy="-241" rx="41.02" ry="24.08"/>
<text text-anchor="middle" x="41.01" y="-244" font-family="Noto Sans CJK SC" font-size="10.00">IDLE</text>
<text text-anchor="middle" x="41.01" y="-233" font-family="Noto Sans CJK SC" font-size="10.00">稳定内容</text>
</g>
<!-- accepted -->
<g id="node2" class="node">
<title>accepted</title>
<ellipse fill="#f8fafc" stroke="#64748b" cx="216.22" cy="-509" rx="44.39" ry="18"/>
<text text-anchor="middle" x="216.22" y="-506.5" font-family="Noto Sans CJK SC" font-size="10.00">ACCEPTED</text>
</g>
<!-- idle&#45;&gt;accepted -->
<g id="edge1" class="edge">
<title>idle&#45;&gt;accepted</title>
<path fill="none" stroke="#64748b" d="M56.48,-263.39C88.84,-313.46 166.8,-434.09 199.92,-485.33"/>
<polygon fill="#64748b" stroke="#64748b" points="198.06,-486.97 203.92,-491.52 202.18,-484.31 198.06,-486.97"/>
<text text-anchor="middle" x="127.02" y="-408.6" font-family="Noto Sans CJK SC" font-size="8.00">用户主动动作</text>
</g>
<!-- planning -->
<g id="node3" class="node">
<title>planning</title>
<ellipse fill="#fee2e2" stroke="#dc2626" cx="345.61" cy="-509" rx="44.39" ry="18"/>
<text text-anchor="middle" x="345.61" y="-506.5" font-family="Noto Sans CJK SC" font-size="10.00">PLANNING</text>
</g>
<!-- accepted&#45;&gt;planning -->
<g id="edge2" class="edge">
<title>accepted&#45;&gt;planning</title>
<path fill="none" stroke="#64748b" d="M260.71,-509C271.47,-509 283.09,-509 294.15,-509"/>
<polygon fill="#64748b" stroke="#64748b" points="294.32,-511.45 301.32,-509 294.32,-506.55 294.32,-511.45"/>
</g>
<!-- cancelled -->
<g id="node11" class="node">
<title>cancelled</title>
<ellipse fill="#e2e8f0" stroke="#64748b" cx="1069.32" cy="-577" rx="74.49" ry="24.08"/>
<text text-anchor="middle" x="1069.32" y="-580" font-family="Noto Sans CJK SC" font-size="10.00">CANCELLED</text>
<text text-anchor="middle" x="1069.32" y="-569" font-family="Noto Sans CJK SC" font-size="10.00">被新 uiVersion 取代</text>
</g>
<!-- accepted&#45;&gt;cancelled -->
<g id="edge16" class="edge">
<title>accepted&#45;&gt;cancelled</title>
<path fill="none" stroke="#64748b" d="M222.2,-526.93C234.96,-568.51 272.99,-668 344.61,-668 344.61,-668 344.61,-668 845.27,-668 914.83,-668 988.15,-629.59 1030.99,-602.68"/>
<polygon fill="#64748b" stroke="#64748b" points="1032.5,-604.62 1037.09,-598.8 1029.87,-600.49 1032.5,-604.62"/>
<text text-anchor="middle" x="569.3" y="-670.6" font-family="Noto Sans CJK SC" font-size="8.00">新交互</text>
</g>
<!-- retrieving -->
<g id="node4" class="node">
<title>retrieving</title>
<ellipse fill="#dbeafe" stroke="#2563eb" cx="479.55" cy="-410" rx="48.99" ry="18"/>
<text text-anchor="middle" x="479.55" y="-407.5" font-family="Noto Sans CJK SC" font-size="10.00">RETRIEVING</text>
</g>
<!-- planning&#45;&gt;retrieving -->
<g id="edge3" class="edge">
<title>planning&#45;&gt;retrieving</title>
<path fill="none" stroke="#64748b" d="M367.52,-493.31C390.12,-476.35 426.24,-449.25 451.12,-430.59"/>
<polygon fill="#64748b" stroke="#64748b" points="452.74,-432.43 456.87,-426.27 449.8,-428.51 452.74,-432.43"/>
</g>
<!-- degraded -->
<g id="node9" class="node">
<title>degraded</title>
<ellipse fill="#fef3c7" stroke="#d97706" cx="844.27" cy="-165" rx="57.05" ry="24.08"/>
<text text-anchor="middle" x="844.27" y="-168" font-family="Noto Sans CJK SC" font-size="10.00">DEGRADED</text>
<text text-anchor="middle" x="844.27" y="-157" font-family="Noto Sans CJK SC" font-size="10.00">运行记录/部分结果</text>
</g>
<!-- planning&#45;&gt;degraded -->
<g id="edge12" class="edge">
<title>planning&#45;&gt;degraded</title>
<path fill="none" stroke="#64748b" d="M355.64,-491.16C384.21,-436.82 478.66,-272.89 610.3,-205 663.14,-177.75 730.78,-168.53 779.55,-165.66"/>
<polygon fill="#64748b" stroke="#64748b" points="779.75,-168.11 786.61,-165.29 779.49,-163.21 779.75,-168.11"/>
<text text-anchor="middle" x="569.3" y="-254.6" font-family="Noto Sans CJK SC" font-size="8.00">规划器失败</text>
<text text-anchor="middle" x="569.3" y="-245.6" font-family="Noto Sans CJK SC" font-size="8.00">保守计划</text>
</g>
<!-- failed -->
<g id="node10" class="node">
<title>failed</title>
<ellipse fill="#fee2e2" stroke="#dc2626" cx="1069.32" cy="-306" rx="33.29" ry="18"/>
<text text-anchor="middle" x="1069.32" y="-303.5" font-family="Noto Sans CJK SC" font-size="10.00">FAILED</text>
</g>
<!-- planning&#45;&gt;failed -->
<g id="edge21" class="edge">
<title>planning&#45;&gt;failed</title>
<path fill="none" stroke="#64748b" d="M377.79,-521.38C404.19,-530.75 443.25,-542 478.55,-542 478.55,-542 478.55,-542 750.99,-542 892.75,-542 1012.27,-388.48 1053.21,-329.08"/>
<polygon fill="#64748b" stroke="#64748b" points="1055.45,-330.14 1057.37,-322.97 1051.4,-327.38 1055.45,-330.14"/>
<text text-anchor="middle" x="661.65" y="-544.6" font-family="Noto Sans CJK SC" font-size="8.00">不可恢复</text>
</g>
<!-- planning&#45;&gt;cancelled -->
<g id="edge17" class="edge">
<title>planning&#45;&gt;cancelled</title>
<path fill="none" stroke="#64748b" d="M358.16,-526.42C378.69,-555.07 424.52,-609 478.55,-609 478.55,-609 478.55,-609 845.27,-609 897.81,-609 956.62,-600.19 1000.66,-591.82"/>
<polygon fill="#64748b" stroke="#64748b" points="1001.19,-594.21 1007.6,-590.48 1000.26,-589.4 1001.19,-594.21"/>
<text text-anchor="middle" x="661.65" y="-611.6" font-family="Noto Sans CJK SC" font-size="8.00">新 uiVersion</text>
</g>
<!-- generating -->
<g id="node5" class="node">
<title>generating</title>
<ellipse fill="#faf5ff" stroke="#9333ea" cx="661.65" cy="-315" rx="51.19" ry="18"/>
<text text-anchor="middle" x="661.65" y="-312.5" font-family="Noto Sans CJK SC" font-size="10.00">GENERATING</text>
</g>
<!-- retrieving&#45;&gt;generating -->
<g id="edge4" class="edge">
<title>retrieving&#45;&gt;generating</title>
<path fill="none" stroke="#64748b" d="M508.3,-395.36C539.84,-378.73 591.39,-351.53 625.66,-333.45"/>
<polygon fill="#64748b" stroke="#64748b" points="627.23,-335.4 632.27,-329.97 624.94,-331.06 627.23,-335.4"/>
</g>
<!-- retrieving&#45;&gt;degraded -->
<g id="edge13" class="edge">
<title>retrieving&#45;&gt;degraded</title>
<path fill="none" stroke="#64748b" d="M494.37,-392.59C516.73,-365.15 563.12,-311.13 610.3,-274 659.81,-235.04 675.68,-229.16 732.99,-203 751.28,-194.65 771.98,-187.06 790.46,-180.9"/>
<polygon fill="#64748b" stroke="#64748b" points="791.28,-183.21 797.16,-178.69 789.74,-178.55 791.28,-183.21"/>
<text text-anchor="middle" x="661.65" y="-276.6" font-family="Noto Sans CJK SC" font-size="8.00">资料/服务故障</text>
</g>
<!-- retrieving&#45;&gt;failed -->
<g id="edge22" class="edge">
<title>retrieving&#45;&gt;failed</title>
<path fill="none" stroke="#64748b" d="M525.46,-403.93C612.11,-391.95 808.26,-363.49 971.54,-330 991.75,-325.85 1014.12,-320.37 1032.26,-315.69"/>
<polygon fill="#64748b" stroke="#64748b" points="1033.08,-318 1039.24,-313.87 1031.85,-313.26 1033.08,-318"/>
</g>
<!-- retrieving&#45;&gt;cancelled -->
<g id="edge18" class="edge">
<title>retrieving&#45;&gt;cancelled</title>
<path fill="none" stroke="#64748b" d="M518.67,-420.83C617.78,-448.99 884.37,-524.73 1006.13,-559.33"/>
<polygon fill="#64748b" stroke="#64748b" points="1005.47,-561.69 1012.88,-561.25 1006.81,-556.98 1005.47,-561.69"/>
</g>
<!-- validating -->
<g id="node6" class="node">
<title>validating</title>
<ellipse fill="#fef3c7" stroke="#d97706" cx="844.27" cy="-244" rx="47.39" ry="18"/>
<text text-anchor="middle" x="844.27" y="-241.5" font-family="Noto Sans CJK SC" font-size="10.00">VALIDATING</text>
</g>
<!-- generating&#45;&gt;validating -->
<g id="edge5" class="edge">
<title>generating&#45;&gt;validating</title>
<path fill="none" stroke="#64748b" d="M684.46,-298.81C697.87,-289.52 715.74,-278.28 732.99,-271 752.15,-262.91 774.26,-256.9 793.62,-252.63"/>
<polygon fill="#64748b" stroke="#64748b" points="794.29,-254.99 800.62,-251.14 793.27,-250.2 794.29,-254.99"/>
</g>
<!-- generating&#45;&gt;degraded -->
<g id="edge14" class="edge">
<title>generating&#45;&gt;degraded</title>
<path fill="none" stroke="#64748b" d="M675.35,-297.54C688.52,-280.17 710.34,-253.37 732.99,-234 753.93,-216.1 779.94,-199.6 801.45,-187.22"/>
<polygon fill="#64748b" stroke="#64748b" points="802.8,-189.27 807.67,-183.68 800.38,-185.01 802.8,-189.27"/>
<text text-anchor="middle" x="749.99" y="-245.6" font-family="Noto Sans CJK SC" font-size="8.00">模型故障</text>
<text text-anchor="middle" x="749.99" y="-236.6" font-family="Noto Sans CJK SC" font-size="8.00">流式运行记录</text>
</g>
<!-- generating&#45;&gt;failed -->
<g id="edge23" class="edge">
<title>generating&#45;&gt;failed</title>
<path fill="none" stroke="#64748b" d="M713.2,-313.88C795.04,-312.06 954.79,-308.52 1028.86,-306.88"/>
<polygon fill="#64748b" stroke="#64748b" points="1029.24,-309.32 1036.19,-306.71 1029.13,-304.42 1029.24,-309.32"/>
</g>
<!-- generating&#45;&gt;cancelled -->
<g id="edge19" class="edge">
<title>generating&#45;&gt;cancelled</title>
<path fill="none" stroke="#64748b" d="M689.12,-330.49C733.53,-356.61 825.62,-411.46 901.54,-461 947.15,-490.76 998.4,-526.81 1031.91,-550.75"/>
<polygon fill="#64748b" stroke="#64748b" points="1030.84,-552.99 1037.96,-555.07 1033.69,-549.01 1030.84,-552.99"/>
</g>
<!-- validating&#45;&gt;generating -->
<g id="edge9" class="edge">
<title>validating&#45;&gt;generating</title>
<path fill="none" stroke="#64748b" d="M810.66,-256.82C780.57,-268.65 735.77,-286.26 703.34,-299"/>
<polygon fill="#64748b" stroke="#64748b" points="702.24,-296.8 696.62,-301.65 704.03,-301.36 702.24,-296.8"/>
<text text-anchor="middle" x="749.99" y="-287.6" font-family="Noto Sans CJK SC" font-size="8.00">一次修复</text>
</g>
<!-- streaming -->
<g id="node7" class="node">
<title>streaming</title>
<ellipse fill="#f8fafc" stroke="#64748b" cx="1307.09" cy="-127" rx="57.97" ry="24.08"/>
<text text-anchor="middle" x="1307.09" y="-130" font-family="Noto Sans CJK SC" font-size="10.00">STREAMING</text>
<text text-anchor="middle" x="1307.09" y="-119" font-family="Noto Sans CJK SC" font-size="10.00">partial blocks</text>
</g>
<!-- validating&#45;&gt;streaming -->
<g id="edge6" class="edge">
<title>validating&#45;&gt;streaming</title>
<path fill="none" stroke="#64748b" d="M884.16,-234.13C965.87,-213.38 1155.63,-165.2 1250.3,-141.16"/>
<polygon fill="#64748b" stroke="#64748b" points="1251.04,-143.5 1257.22,-139.41 1249.84,-138.75 1251.04,-143.5"/>
</g>
<!-- validating&#45;&gt;failed -->
<g id="edge24" class="edge">
<title>validating&#45;&gt;failed</title>
<path fill="none" stroke="#64748b" d="M883.11,-254.52C924.93,-266.14 991.8,-284.73 1032.71,-296.1"/>
<polygon fill="#64748b" stroke="#64748b" points="1032.14,-298.49 1039.54,-298 1033.45,-293.76 1032.14,-298.49"/>
</g>
<!-- validating&#45;&gt;cancelled -->
<g id="edge20" class="edge">
<title>validating&#45;&gt;cancelled</title>
<path fill="none" stroke="#64748b" d="M857.7,-261.3C880.63,-293.33 930.94,-364.11 971.54,-425 999.49,-466.92 1030.58,-516.25 1049.79,-547.08"/>
<polygon fill="#64748b" stroke="#64748b" points="1047.93,-548.72 1053.71,-553.37 1052.09,-546.13 1047.93,-548.72"/>
</g>
<!-- unavailable -->
<g id="node12" class="node">
<title>unavailable</title>
<ellipse fill="#f1f5f9" stroke="#64748b" cx="1069.32" cy="-127" rx="77.56" ry="24.08"/>
<text text-anchor="middle" x="1069.32" y="-130" font-family="Noto Sans CJK SC" font-size="10.00">SLOT UNAVAILABLE</text>
<text text-anchor="middle" x="1069.32" y="-119" font-family="Noto Sans CJK SC" font-size="10.00">资料不足</text>
</g>
<!-- validating&#45;&gt;unavailable -->
<g id="edge10" class="edge">
<title>validating&#45;&gt;unavailable</title>
<path fill="none" stroke="#64748b" d="M871.5,-229.21C881.79,-222.49 893.12,-213.83 901.54,-204 914.47,-188.9 906.05,-176.45 921.54,-164 940.11,-149.08 963.92,-140.09 986.94,-134.69"/>
<polygon fill="#64748b" stroke="#64748b" points="987.74,-137.03 994.05,-133.13 986.69,-132.24 987.74,-137.03"/>
<text text-anchor="middle" x="946.54" y="-166.6" font-family="Noto Sans CJK SC" font-size="8.00">无法可靠修复</text>
</g>
<!-- completed -->
<g id="node8" class="node">
<title>completed</title>
<ellipse fill="#dcfce7" stroke="#16a34a" cx="1459.81" cy="-59" rx="53.98" ry="24.08"/>
<text text-anchor="middle" x="1459.81" y="-62" font-family="Noto Sans CJK SC" font-size="10.00">COMPLETED</text>
<text text-anchor="middle" x="1459.81" y="-51" font-family="Noto Sans CJK SC" font-size="10.00">committed</text>
</g>
<!-- streaming&#45;&gt;completed -->
<g id="edge7" class="edge">
<title>streaming&#45;&gt;completed</title>
<path fill="none" stroke="#64748b" d="M1346.9,-109.49C1367.69,-100.11 1393.38,-88.52 1414.89,-78.81"/>
<polygon fill="#64748b" stroke="#64748b" points="1416.06,-80.98 1421.43,-75.87 1414.04,-76.51 1416.06,-80.98"/>
</g>
<!-- completed&#45;&gt;idle -->
<g id="edge8" class="edge">
<title>completed&#45;&gt;idle</title>
<path fill="none" stroke="#64748b" d="M1428.42,-39.35C1398.9,-22.19 1352.21,0 1308.09,0 215.22,0 215.22,0 215.22,0 113.02,0 65.21,-144.69 48.86,-209.84"/>
<polygon fill="#64748b" stroke="#64748b" points="46.39,-209.63 47.11,-217.01 51.15,-210.79 46.39,-209.63"/>
</g>
<!-- degraded&#45;&gt;completed -->
<g id="edge15" class="edge">
<title>degraded&#45;&gt;completed</title>
<path fill="none" stroke="#64748b" d="M874.78,-144.64C903.26,-126.2 948.3,-100.12 991.54,-88 1133.65,-48.17 1309.26,-50.25 1399.34,-54.83"/>
<polygon fill="#64748b" stroke="#64748b" points="1399.35,-57.28 1406.47,-55.21 1399.61,-52.39 1399.35,-57.28"/>
</g>
<!-- failed&#45;&gt;idle -->
<g id="edge25" class="edge">
<title>failed&#45;&gt;idle</title>
<path fill="none" stroke="#64748b" d="M1046.85,-292.74C1015.27,-272.22 956.27,-229.89 921.54,-180 906.92,-158.99 921.32,-142.24 901.54,-126 786.31,-31.4 719.39,-73 570.3,-73 215.22,-73 215.22,-73 215.22,-73 136.8,-73 80.45,-162.83 55.83,-211.12"/>
<polygon fill="#64748b" stroke="#64748b" points="53.51,-210.28 52.56,-217.64 57.89,-212.48 53.51,-210.28"/>
<text text-anchor="middle" x="479.55" y="-75.6" font-family="Noto Sans CJK SC" font-size="8.00">重试/关闭</text>
</g>
<!-- cancelled&#45;&gt;idle -->
<g id="edge26" class="edge">
<title>cancelled&#45;&gt;idle</title>
<path fill="none" stroke="#64748b" d="M1050.27,-600.44C1015.54,-642.62 934.87,-727 845.27,-727 215.22,-727 215.22,-727 215.22,-727 118.25,-727 61.4,-379.33 46.18,-272.1"/>
<polygon fill="#64748b" stroke="#64748b" points="48.6,-271.69 45.2,-265.1 43.74,-272.37 48.6,-271.69"/>
</g>
<!-- unavailable&#45;&gt;streaming -->
<g id="edge11" class="edge">
<title>unavailable&#45;&gt;streaming</title>
<path fill="none" stroke="#64748b" d="M1147.2,-127C1177.67,-127 1212.32,-127 1241.47,-127"/>
<polygon fill="#64748b" stroke="#64748b" points="1241.76,-129.45 1248.76,-127 1241.76,-124.55 1241.76,-129.45"/>
<text text-anchor="middle" x="1198.11" y="-129.6" font-family="Noto Sans CJK SC" font-size="8.00">提交 unavailable</text>
</g>
</g>
</svg>
