<?xml version="1.0" encoding="UTF-8" standalone="no"?>
<!DOCTYPE svg PUBLIC "-//W3C//DTD SVG 1.1//EN"
 "http://www.w3.org/Graphics/SVG/1.1/DTD/svg11.dtd">
<!-- Generated by graphviz version 2.42.4 (0)
 -->
<!-- Title: G Pages: 1 -->
<svg width="831pt" height="553pt"
 viewBox="0.00 0.00 831.40 553.31" xmlns="http://www.w3.org/2000/svg" xmlns:xlink="http://www.w3.org/1999/xlink">
<g id="graph0" class="graph" transform="scale(1 1) rotate(0) translate(25.2 528.11)">
<title>G</title>
<polygon fill="white" stroke="transparent" points="-25.2,25.2 -25.2,-528.11 806.2,-528.11 806.2,25.2 -25.2,25.2"/>
<text text-anchor="middle" x="390.5" y="-482.91" font-family="Noto Sans CJK SC" font-size="20.00">Prompt 分层与输入隔离</text>
<!-- l0 -->
<g id="node1" class="node">
<title>l0</title>
<path fill="#fee2e2" stroke="#dc2626" d="M463,-472.91C463,-472.91 12,-472.91 12,-472.91 6,-472.91 0,-466.91 0,-460.91 0,-460.91 0,-448.91 0,-448.91 0,-442.91 6,-436.91 12,-436.91 12,-436.91 463,-436.91 463,-436.91 469,-436.91 475,-442.91 475,-448.91 475,-448.91 475,-460.91 475,-460.91 475,-466.91 469,-472.91 463,-472.91"/>
<text text-anchor="middle" x="237.5" y="-457.91" font-family="Noto Sans CJK SC" font-size="10.00">L0 核心宪法 Prompt</text>
<text text-anchor="middle" x="237.5" y="-446.91" font-family="Noto Sans CJK SC" font-size="10.00">选定版本｜ContextPack 优先｜时间边界｜来源｜槽位分离｜结构化输出</text>
</g>
<!-- l1 -->
<g id="node2" class="node">
<title>l1</title>
<path fill="#faf5ff" stroke="#9333ea" d="M463,-403.91C463,-403.91 12,-403.91 12,-403.91 6,-403.91 0,-397.91 0,-391.91 0,-391.91 0,-379.91 0,-379.91 0,-373.91 6,-367.91 12,-367.91 12,-367.91 463,-367.91 463,-367.91 469,-367.91 475,-373.91 475,-379.91 475,-379.91 475,-391.91 475,-391.91 475,-397.91 469,-403.91 463,-403.91"/>
<text text-anchor="middle" x="237.5" y="-388.91" font-family="Noto Sans CJK SC" font-size="10.00">L1 任务 Prompt</text>
<text text-anchor="middle" x="237.5" y="-377.91" font-family="Noto Sans CJK SC" font-size="10.00">Planner｜背景｜处境｜思想｜场景｜问答｜Validator｜Repair</text>
</g>
<!-- l0&#45;&gt;l1 -->
<g id="edge1" class="edge">
<title>l0&#45;&gt;l1</title>
<path fill="none" stroke="#64748b" d="M237.5,-436.66C237.5,-428.98 237.5,-419.8 237.5,-411.43"/>
<polygon fill="#64748b" stroke="#64748b" points="239.95,-411.34 237.5,-404.34 235.05,-411.34 239.95,-411.34"/>
</g>
<!-- l2 -->
<g id="node3" class="node">
<title>l2</title>
<path fill="#dbeafe" stroke="#2563eb" d="M769,-326.91C769,-326.91 318,-326.91 318,-326.91 312,-326.91 306,-320.91 306,-314.91 306,-314.91 306,-302.91 306,-302.91 306,-296.91 312,-290.91 318,-290.91 318,-290.91 769,-290.91 769,-290.91 775,-290.91 781,-296.91 781,-302.91 781,-302.91 781,-314.91 781,-314.91 781,-320.91 775,-326.91 769,-326.91"/>
<text text-anchor="middle" x="543.5" y="-311.91" font-family="Noto Sans CJK SC" font-size="10.00">L2 运行上下文</text>
<text text-anchor="middle" x="543.5" y="-300.91" font-family="Noto Sans CJK SC" font-size="10.00">文章元数据｜当前锚点｜邻近正文｜用户事件｜当前 UI｜检索材料｜允许 ID</text>
</g>
<!-- l1&#45;&gt;l2 -->
<g id="edge2" class="edge">
<title>l1&#45;&gt;l2</title>
<path fill="none" stroke="#64748b" d="M306.94,-367.89C354.68,-356.19 418.09,-340.65 467.24,-328.6"/>
<polygon fill="#64748b" stroke="#64748b" points="467.86,-330.97 474.07,-326.93 466.69,-326.21 467.86,-330.97"/>
</g>
<!-- l3 -->
<g id="node4" class="node">
<title>l3</title>
<path fill="#dcfce7" stroke="#16a34a" d="M769,-257.91C769,-257.91 318,-257.91 318,-257.91 312,-257.91 306,-251.91 306,-245.91 306,-245.91 306,-233.91 306,-233.91 306,-227.91 312,-221.91 318,-221.91 318,-221.91 769,-221.91 769,-221.91 775,-221.91 781,-227.91 781,-233.91 781,-233.91 781,-245.91 781,-245.91 781,-251.91 775,-257.91 769,-257.91"/>
<text text-anchor="middle" x="543.5" y="-242.91" font-family="Noto Sans CJK SC" font-size="10.00">L3 输出契约</text>
<text text-anchor="middle" x="543.5" y="-231.91" font-family="Noto Sans CJK SC" font-size="10.00">Planner Schema｜Card Schema｜Scene Schema｜Validation Schema</text>
</g>
<!-- l2&#45;&gt;l3 -->
<g id="edge3" class="edge">
<title>l2&#45;&gt;l3</title>
<path fill="none" stroke="#64748b" d="M543.5,-290.66C543.5,-282.98 543.5,-273.8 543.5,-265.43"/>
<polygon fill="#64748b" stroke="#64748b" points="545.95,-265.34 543.5,-258.34 541.05,-265.34 545.95,-265.34"/>
</g>
<!-- model -->
<g id="node5" class="node">
<title>model</title>
<ellipse fill="#fffbeb" stroke="#b45309" cx="543.5" cy="-163.46" rx="72.25" ry="25.41"/>
<text text-anchor="middle" x="543.5" y="-166.46" font-family="Noto Sans CJK SC" font-size="10.00">模型任务</text>
<text text-anchor="middle" x="543.5" y="-155.46" font-family="Noto Sans CJK SC" font-size="10.00">只生成受控 JSON</text>
</g>
<!-- l3&#45;&gt;model -->
<g id="edge4" class="edge">
<title>l3&#45;&gt;model</title>
<path fill="none" stroke="#64748b" d="M543.5,-221.64C543.5,-214.06 543.5,-204.9 543.5,-196.16"/>
<polygon fill="#64748b" stroke="#64748b" points="545.95,-195.96 543.5,-188.96 541.05,-195.96 545.95,-195.96"/>
</g>
<!-- validate -->
<g id="node6" class="node">
<title>validate</title>
<path fill="#fef3c7" stroke="#d97706" d="M587.5,-105C587.5,-105 499.5,-105 499.5,-105 493.5,-105 487.5,-99 487.5,-93 487.5,-93 487.5,-81 487.5,-81 487.5,-75 493.5,-69 499.5,-69 499.5,-69 587.5,-69 587.5,-69 593.5,-69 599.5,-75 599.5,-81 599.5,-81 599.5,-93 599.5,-93 599.5,-99 593.5,-105 587.5,-105"/>
<text text-anchor="middle" x="543.5" y="-90" font-family="Noto Sans CJK SC" font-size="10.00">确定性 + 语义校验</text>
<text text-anchor="middle" x="543.5" y="-79" font-family="Noto Sans CJK SC" font-size="10.00">不合格最多一次修复</text>
</g>
<!-- model&#45;&gt;validate -->
<g id="edge5" class="edge">
<title>model&#45;&gt;validate</title>
<path fill="none" stroke="#64748b" d="M543.5,-137.66C543.5,-129.5 543.5,-120.44 543.5,-112.31"/>
<polygon fill="#64748b" stroke="#64748b" points="545.95,-112.17 543.5,-105.17 541.05,-112.17 545.95,-112.17"/>
</g>
<!-- ui -->
<g id="node7" class="node">
<title>ui</title>
<path fill="#e2e8f0" stroke="#64748b" d="M610,-36C610,-36 477,-36 477,-36 471,-36 465,-30 465,-24 465,-24 465,-12 465,-12 465,-6 471,0 477,0 477,0 610,0 610,0 616,0 622,-6 622,-12 622,-12 622,-24 622,-24 622,-30 616,-36 610,-36"/>
<text text-anchor="middle" x="543.5" y="-15.5" font-family="Noto Sans CJK SC" font-size="10.00">固定 UI 槽位 / SSE committed</text>
</g>
<!-- validate&#45;&gt;ui -->
<g id="edge6" class="edge">
<title>validate&#45;&gt;ui</title>
<path fill="none" stroke="#64748b" d="M543.5,-68.75C543.5,-61.07 543.5,-51.89 543.5,-43.52"/>
<polygon fill="#64748b" stroke="#64748b" points="545.95,-43.43 543.5,-36.43 541.05,-43.43 545.95,-43.43"/>
</g>
<!-- user -->
<g id="node8" class="node">
<title>user</title>
<polygon fill="#f1f5f9" stroke="#64748b" points="581,-403.91 500,-403.91 500,-367.91 587,-367.91 587,-397.91 581,-403.91"/>
<polyline fill="none" stroke="#64748b" points="581,-403.91 581,-397.91 "/>
<polyline fill="none" stroke="#64748b" points="587,-397.91 581,-397.91 "/>
<text text-anchor="middle" x="543.5" y="-388.91" font-family="Noto Sans CJK SC" font-size="10.00">用户选区/问题</text>
<text text-anchor="middle" x="543.5" y="-377.91" font-family="Noto Sans CJK SC" font-size="10.00">不可信数据</text>
</g>
<!-- user&#45;&gt;l2 -->
<g id="edge7" class="edge">
<title>user&#45;&gt;l2</title>
<path fill="none" stroke="#64748b" d="M543.5,-367.89C543.5,-357.99 543.5,-345.34 543.5,-334.38"/>
<polygon fill="#64748b" stroke="#64748b" points="545.95,-334.12 543.5,-327.12 541.05,-334.12 545.95,-334.12"/>
<text text-anchor="middle" x="560.5" y="-345.51" font-family="Noto Sans CJK SC" font-size="8.00">隔离注入</text>
</g>
<!-- source -->
<g id="node9" class="node">
<title>source</title>
<polygon fill="#f1f5f9" stroke="#64748b" points="718.5,-403.91 612.5,-403.91 612.5,-367.91 724.5,-367.91 724.5,-397.91 718.5,-403.91"/>
<polyline fill="none" stroke="#64748b" points="718.5,-403.91 718.5,-397.91 "/>
<polyline fill="none" stroke="#64748b" points="724.5,-397.91 718.5,-397.91 "/>
<text text-anchor="middle" x="668.5" y="-388.91" font-family="Noto Sans CJK SC" font-size="10.00">原文/资料摘录</text>
<text text-anchor="middle" x="668.5" y="-377.91" font-family="Noto Sans CJK SC" font-size="10.00">不可信指令，仅数据</text>
</g>
<!-- source&#45;&gt;l2 -->
<g id="edge8" class="edge">
<title>source&#45;&gt;l2</title>
<path fill="none" stroke="#64748b" d="M640.14,-367.89C621.81,-356.9 597.83,-342.51 578.34,-330.82"/>
<polygon fill="#64748b" stroke="#64748b" points="579.45,-328.62 572.18,-327.12 576.93,-332.82 579.45,-328.62"/>
<text text-anchor="middle" x="629.5" y="-345.51" font-family="Noto Sans CJK SC" font-size="8.00">隔离注入</text>
</g>
</g>
</svg>
