<?xml version="1.0" encoding="UTF-8" standalone="no"?>
<!DOCTYPE svg PUBLIC "-//W3C//DTD SVG 1.1//EN"
 "http://www.w3.org/Graphics/SVG/1.1/DTD/svg11.dtd">
<!-- Generated by graphviz version 2.42.4 (0)
 -->
<!-- Title: G Pages: 1 -->
<svg width="935pt" height="376pt"
 viewBox="0.00 0.00 935.40 376.40" xmlns="http://www.w3.org/2000/svg" xmlns:xlink="http://www.w3.org/1999/xlink">
<g id="graph0" class="graph" transform="scale(1 1) rotate(0) translate(25.2 351.2)">
<title>G</title>
<polygon fill="white" stroke="transparent" points="-25.2,25.2 -25.2,-351.2 910.2,-351.2 910.2,25.2 -25.2,25.2"/>
<text text-anchor="middle" x="442.5" y="-306" font-family="Noto Sans CJK SC" font-size="20.00">不可变 Release 与版本组合</text>
<!-- av -->
<g id="node1" class="node">
<title>av</title>
<path fill="#fffbeb" stroke="#b45309" d="M144.5,-296C144.5,-296 26.5,-296 26.5,-296 20.5,-296 14.5,-290 14.5,-284 14.5,-284 14.5,-272 14.5,-272 14.5,-266 20.5,-260 26.5,-260 26.5,-260 144.5,-260 144.5,-260 150.5,-260 156.5,-266 156.5,-272 156.5,-272 156.5,-284 156.5,-284 156.5,-290 150.5,-296 144.5,-296"/>
<text text-anchor="middle" x="85.5" y="-281" font-family="Noto Sans CJK SC" font-size="10.00">ArticleVersion</text>
<text text-anchor="middle" x="85.5" y="-270" font-family="Noto Sans CJK SC" font-size="10.00">选定版本正文 + 段落 + 锚点</text>
</g>
<!-- rel -->
<g id="node6" class="node">
<title>rel</title>
<path fill="#dcfce7" stroke="#16a34a" stroke-width="2" d="M390,-166C390,-166 224,-166 224,-166 218,-166 212,-160 212,-154 212,-154 212,-142 212,-142 212,-136 218,-130 224,-130 224,-130 390,-130 390,-130 396,-130 402,-136 402,-142 402,-142 402,-154 402,-154 402,-160 396,-166 390,-166"/>
<text text-anchor="middle" x="307" y="-151" font-family="Noto Sans CJK SC" font-size="10.00">Release</text>
<text text-anchor="middle" x="307" y="-140" font-family="Noto Sans CJK SC" font-size="10.00">不可变组合 + 发布者 + 时间 + 质量报告</text>
</g>
<!-- av&#45;&gt;rel -->
<g id="edge1" class="edge">
<title>av&#45;&gt;rel</title>
<path fill="none" stroke="#64748b" d="M140.65,-259.95C150.95,-255.84 161.48,-251.14 171,-246 211.04,-224.39 252.79,-192.39 279.06,-170.89"/>
<polygon fill="#64748b" stroke="#64748b" points="280.9,-172.55 284.75,-166.21 277.79,-168.77 280.9,-172.55"/>
</g>
<!-- cp -->
<g id="node2" class="node">
<title>cp</title>
<path fill="#dbeafe" stroke="#2563eb" d="M159,-231C159,-231 12,-231 12,-231 6,-231 0,-225 0,-219 0,-219 0,-207 0,-207 0,-201 6,-195 12,-195 12,-195 159,-195 159,-195 165,-195 171,-201 171,-207 171,-207 171,-219 171,-219 171,-225 165,-231 159,-231"/>
<text text-anchor="middle" x="85.5" y="-216" font-family="Noto Sans CJK SC" font-size="10.00">ContextPackVersion</text>
<text text-anchor="middle" x="85.5" y="-205" font-family="Noto Sans CJK SC" font-size="10.00">情境单元 + 来源 + 链接 + 时间政策</text>
</g>
<!-- cp&#45;&gt;rel -->
<g id="edge2" class="edge">
<title>cp&#45;&gt;rel</title>
<path fill="none" stroke="#64748b" d="M147.35,-194.98C175.54,-186.63 209.14,-176.68 238.15,-168.09"/>
<polygon fill="#64748b" stroke="#64748b" points="239.01,-170.39 245.03,-166.05 237.62,-165.69 239.01,-170.39"/>
</g>
<!-- pb -->
<g id="node3" class="node">
<title>pb</title>
<path fill="#fee2e2" stroke="#dc2626" d="M138.5,-166C138.5,-166 32.5,-166 32.5,-166 26.5,-166 20.5,-160 20.5,-154 20.5,-154 20.5,-142 20.5,-142 20.5,-136 26.5,-130 32.5,-130 32.5,-130 138.5,-130 138.5,-130 144.5,-130 150.5,-136 150.5,-142 150.5,-142 150.5,-154 150.5,-154 150.5,-160 144.5,-166 138.5,-166"/>
<text text-anchor="middle" x="85.5" y="-151" font-family="Noto Sans CJK SC" font-size="10.00">PromptBundleVersion</text>
<text text-anchor="middle" x="85.5" y="-140" font-family="Noto Sans CJK SC" font-size="10.00">所有已发布任务 Prompt</text>
</g>
<!-- pb&#45;&gt;rel -->
<g id="edge3" class="edge">
<title>pb&#45;&gt;rel</title>
<path fill="none" stroke="#64748b" d="M150.58,-148C167.45,-148 186.07,-148 204.38,-148"/>
<polygon fill="#64748b" stroke="#64748b" points="204.66,-150.45 211.66,-148 204.66,-145.55 204.66,-150.45"/>
</g>
<!-- wf -->
<g id="node4" class="node">
<title>wf</title>
<path fill="#faf5ff" stroke="#9333ea" d="M137,-101C137,-101 34,-101 34,-101 28,-101 22,-95 22,-89 22,-89 22,-77 22,-77 22,-71 28,-65 34,-65 34,-65 137,-65 137,-65 143,-65 149,-71 149,-77 149,-77 149,-89 149,-89 149,-95 143,-101 137,-101"/>
<text text-anchor="middle" x="85.5" y="-86" font-family="Noto Sans CJK SC" font-size="10.00">WorkflowVersion</text>
<text text-anchor="middle" x="85.5" y="-75" font-family="Noto Sans CJK SC" font-size="10.00">节点 / 分支 / 超时 / 回退</text>
</g>
<!-- wf&#45;&gt;rel -->
<g id="edge4" class="edge">
<title>wf&#45;&gt;rel</title>
<path fill="none" stroke="#64748b" d="M147.35,-101.02C175.54,-109.37 209.14,-119.32 238.15,-127.91"/>
<polygon fill="#64748b" stroke="#64748b" points="237.62,-130.31 245.03,-129.95 239.01,-125.61 237.62,-130.31"/>
</g>
<!-- ss -->
<g id="node5" class="node">
<title>ss</title>
<path fill="#f0fdf4" stroke="#16a34a" d="M141.5,-36C141.5,-36 29.5,-36 29.5,-36 23.5,-36 17.5,-30 17.5,-24 17.5,-24 17.5,-12 17.5,-12 17.5,-6 23.5,0 29.5,0 29.5,0 141.5,0 141.5,0 147.5,0 153.5,-6 153.5,-12 153.5,-12 153.5,-24 153.5,-24 153.5,-30 147.5,-36 141.5,-36"/>
<text text-anchor="middle" x="85.5" y="-21" font-family="Noto Sans CJK SC" font-size="10.00">GenerationRunSet</text>
<text text-anchor="middle" x="85.5" y="-10" font-family="Noto Sans CJK SC" font-size="10.00">各锚点 × 模式的审核运行记录</text>
</g>
<!-- ss&#45;&gt;rel -->
<g id="edge5" class="edge">
<title>ss&#45;&gt;rel</title>
<path fill="none" stroke="#64748b" d="M138.82,-36.07C149.69,-40.47 160.9,-45.51 171,-51 210.61,-72.52 252.14,-103.89 278.5,-125.08"/>
<polygon fill="#64748b" stroke="#64748b" points="277.23,-127.2 284.21,-129.7 280.31,-123.39 277.23,-127.2"/>
</g>
<!-- cache -->
<g id="node7" class="node">
<title>cache</title>
<path fill="#e2e8f0" stroke="#64748b" d="M495,-166C495,-166 455,-166 455,-166 449,-166 443,-160 443,-154 443,-154 443,-142 443,-142 443,-136 449,-130 455,-130 455,-130 495,-130 495,-130 501,-130 507,-136 507,-142 507,-142 507,-154 507,-154 507,-160 501,-166 495,-166"/>
<text text-anchor="middle" x="475" y="-145.5" font-family="Noto Sans CJK SC" font-size="10.00">缓存预热</text>
</g>
<!-- rel&#45;&gt;cache -->
<g id="edge6" class="edge">
<title>rel&#45;&gt;cache</title>
<path fill="none" stroke="#64748b" d="M402.16,-148C413.93,-148 425.4,-148 435.6,-148"/>
<polygon fill="#64748b" stroke="#64748b" points="435.78,-150.45 442.78,-148 435.78,-145.55 435.78,-150.45"/>
</g>
<!-- pointer -->
<g id="node8" class="node">
<title>pointer</title>
<path fill="#e2e8f0" stroke="#64748b" d="M672,-166C672,-166 560,-166 560,-166 554,-166 548,-160 548,-154 548,-154 548,-142 548,-142 548,-136 554,-130 560,-130 560,-130 672,-130 672,-130 678,-130 684,-136 684,-142 684,-142 684,-154 684,-154 684,-160 678,-166 672,-166"/>
<text text-anchor="middle" x="616" y="-151" font-family="Noto Sans CJK SC" font-size="10.00">Article.currentReleaseId</text>
<text text-anchor="middle" x="616" y="-140" font-family="Noto Sans CJK SC" font-size="10.00">原子切换</text>
</g>
<!-- cache&#45;&gt;pointer -->
<g id="edge7" class="edge">
<title>cache&#45;&gt;pointer</title>
<path fill="none" stroke="#64748b" d="M507.19,-148C517.2,-148 528.75,-148 540.5,-148"/>
<polygon fill="#64748b" stroke="#64748b" points="540.82,-150.45 547.82,-148 540.82,-145.55 540.82,-150.45"/>
</g>
<!-- sessions -->
<g id="node9" class="node">
<title>sessions</title>
<path fill="#fffbeb" stroke="#b45309" d="M873,-199C873,-199 770,-199 770,-199 764,-199 758,-193 758,-187 758,-187 758,-175 758,-175 758,-169 764,-163 770,-163 770,-163 873,-163 873,-163 879,-163 885,-169 885,-175 885,-175 885,-187 885,-187 885,-193 879,-199 873,-199"/>
<text text-anchor="middle" x="821.5" y="-184" font-family="Noto Sans CJK SC" font-size="10.00">阅读会话绑定 releaseId</text>
<text text-anchor="middle" x="821.5" y="-173" font-family="Noto Sans CJK SC" font-size="10.00">阅读中内容不漂移</text>
</g>
<!-- pointer&#45;&gt;sessions -->
<g id="edge8" class="edge">
<title>pointer&#45;&gt;sessions</title>
<path fill="none" stroke="#64748b" d="M684.2,-158.9C705.61,-162.37 729.35,-166.22 750.93,-169.72"/>
<polygon fill="#64748b" stroke="#64748b" points="750.55,-172.14 757.85,-170.84 751.33,-167.3 750.55,-172.14"/>
</g>
<!-- old -->
<g id="node10" class="node">
<title>old</title>
<path fill="#f1f5f9" stroke="#64748b" d="M860,-134C860,-134 783,-134 783,-134 777,-134 771,-128 771,-122 771,-122 771,-110 771,-110 771,-104 777,-98 783,-98 783,-98 860,-98 860,-98 866,-98 872,-104 872,-110 872,-110 872,-122 872,-122 872,-128 866,-134 860,-134"/>
<text text-anchor="middle" x="821.5" y="-119" font-family="Noto Sans CJK SC" font-size="10.00">旧 Release</text>
<text text-anchor="middle" x="821.5" y="-108" font-family="Noto Sans CJK SC" font-size="10.00">继续可读 / 可回滚</text>
</g>
<!-- pointer&#45;&gt;old -->
<g id="edge9" class="edge">
<title>pointer&#45;&gt;old</title>
<path fill="none" stroke="#64748b" stroke-dasharray="5,2" d="M684.2,-137.43C709.91,-133.39 738.96,-128.82 763.61,-124.95"/>
<polygon fill="#64748b" stroke="#64748b" points="764.24,-127.33 770.78,-123.82 763.48,-122.49 764.24,-127.33"/>
<text text-anchor="middle" x="721" y="-135.6" font-family="Noto Sans CJK SC" font-size="8.00">保留历史</text>
</g>
</g>
</svg>
